<svg xmlns:xlink="http://www.w3.org/1999/xlink" xmlns="http://www.w3.org/2000/svg" version="1.1" viewBox="0 0 1630 1024" height="1024px" width="1630px">
    <title>缺省页-404</title>
    <defs>
        <ellipse ry="156.731106" rx="156.710985" cy="164.217202" cx="164.196119" id="path-1"></ellipse>
    </defs>
    <g fill-rule="evenodd" fill="none" stroke-width="1" stroke="none" id="页面-1">
        <g transform="translate(147.000000, 57.000000)" id="编组-8">
            <ellipse ry="455" rx="453.494044" cy="455" cx="453.494044" fill="#EFF0F9" id="椭圆形备份-12"></ellipse>
            <g transform="translate(98.494895, 85.876187)" id="编组-5">
                <path fill="#FFFFFF" stroke-width="7.81986677" stroke="#555555" id="路径-19" d="M481.796897,0 L100.008363,36.5232881 C44.5852775,41.8252633 3.73845023,90.7229849 8.3856445,146.20481 L65.1148323,823.482043 L65.1148323,823.482043 L562.888912,745.855435 L562.888912,592.610468 L507.967,396.386732 L542.577293,198.154746 L481.796897,114.569592 L481.796897,0 Z"></path>
                <path fill="#F4F4F4" id="椭圆形" d="M533.14483,604.901678 C591.505165,604.901678 532.146749,568.976664 533.14483,463.323273 C534.177644,353.993224 604.258015,206.884177 543.866785,206.884177 C425.115221,206.884177 353.310985,293.91184 353.310985,412.678652 C353.310985,531.445464 414.393266,604.901678 533.14483,604.901678 Z"></path>
                <path transform="translate(875.747244, 411.741022) scale(-1, 1) translate(-875.747244, -411.741022)" fill="#FFFFFF" stroke-width="7.81986677" stroke="#555555" id="路径-19备份" d="M1076.09968,0 L686.28025,37.2915534 C634.124052,42.2810062 594.302788,86.0935163 594.302788,138.487825 L594.302788,823.482043 L594.302788,823.482043 L1157.1917,745.855435 L1076.09968,602.369528 L1102.26979,396.386732 L1027.16089,213.983665 L1076.09968,114.569592 L1076.09968,0 Z"></path>
                <g fill-rule="nonzero" fill="#3681FD" transform="translate(220.390317, 408.768719) rotate(-7.000000) translate(-220.390317, -408.768719) translate(118.745100, 283.650850)" id="4">
                    <polygon points="172.921915 250.235737 97.536535 250.235737 106.825729 202.044832 -3.1326028e-12 202.044832 10.7183005 148.142412 100.037472 -1.31103052e-13 177.923789 -1.31103052e-13 93.2492147 142.787867 118.615859 142.787867 127.905053 94.9539315 203.290434 94.9539315 193.682089 145.64866 202.105153 144.385504 193.03663 198.877103 182.743664 200.01469"></polygon>
                </g>
                <g fill-rule="nonzero" fill="#3681FD" transform="translate(822.442755, 275.830984)" id="4备份">
                    <polygon points="179.572758 265.87547 101.28794 265.87547 110.934411 214.672634 0 214.672634 11.1305429 157.401313 103.885067 0 184.767012 0 96.835723 151.712109 123.178008 151.712109 132.824478 100.888552 211.109296 100.888552" id="4"></polygon>
                </g>
                <g transform="translate(564.340998, 409.002539) rotate(-13.000000) translate(-564.340998, -409.002539) translate(400.144878, 244.785337)" id="椭圆形备份-10">
                    <ellipse ry="164.217202" rx="164.196119" cy="164.217202" cx="164.196119" fill="#555555" id="蒙版"></ellipse>
                    <mask fill="white" id="mask-2">
                        <use xlink:href="#path-1"></use>
                    </mask>
                    <use xlink:href="#path-1" fill="#FFFFFF" id="蒙版"></use>
                    <path mask="url(#mask-2)" fill="#EAE8E8" id="路径-21" d="M147.831797,219.422116 C135.977707,231.773107 135.977707,246.602995 147.831797,263.911781 C165.612932,289.874959 194.613625,306.013726 194.613625,306.013726 C194.613625,306.013726 208.009313,319.061312 222.956103,319.061312 C237.902892,319.061312 273.781975,322.152493 273.781975,306.013726 C273.781975,306.013726 273.781975,306.013726 273.781975,306.013726 C273.781975,276.499415 255.894409,249.929616 228.548723,238.825203 L169.499498,214.846821 C162.019809,211.809511 153.445006,213.620144 147.831797,219.422116 L147.831797,219.422116 L147.831797,219.422116 Z"></path>
                    <ellipse ry="19.5496669" rx="19.5471571" cy="50.829134" cx="254.218963" mask="url(#mask-2)" fill="#EAE8E8"></ellipse>
                </g>
                <ellipse ry="31.2794671" rx="31.2754513" cy="338.389918" cx="533.14483" fill="#EAE8E8" id="椭圆形"></ellipse>
                <path transform="translate(568.668505, 423.128762) rotate(-13.000000) translate(-568.668505, -423.128762)" stroke-width="7.81986677" stroke="#555555" id="椭圆形" d="M715.669216,356.142454 C736.462262,354.60902 753.609724,354.807904 765.827316,356.895181 C771.37073,357.842229 775.843704,359.154928 779.071956,360.936214 C781.361158,362.199351 783.022184,363.635634 783.533219,365.543248 C784.044304,367.451051 783.323741,369.525783 781.972521,371.764779 C780.067175,374.921972 776.849601,378.295872 772.522167,381.888436 C762.984806,389.806194 748.23404,398.554029 729.460117,407.624803 C692.084576,425.6831 638.913489,444.89527 578.814094,461.002283 C518.714714,477.109292 463.063178,487.062267 421.667794,490.115071 C400.874749,491.648504 383.727287,491.44962 371.509695,489.362343 C365.96628,488.415295 361.493306,487.102596 358.265055,485.32131 C355.975852,484.058173 354.314827,482.62189 353.803792,480.714276 C353.292706,478.806473 354.01327,476.731741 355.36449,474.492745 C357.269835,471.335552 360.48741,467.961652 364.814844,464.369088 C374.352205,456.45133 389.10297,447.703496 407.876894,438.632721 C445.252434,420.574424 498.423522,401.362254 558.522917,385.255241 C618.622297,369.148232 674.273833,359.195257 715.669216,356.142454 Z"></path>
                <path transform="translate(559.324953, 394.924445) rotate(-13.000000) translate(-559.324953, -394.924445)" fill="#FFFFFF" id="路径-20" d="M404.50086,412.402071 C404.817912,433.624274 408.006637,448.206867 414.067035,456.14985 C420.127433,464.092833 520.15477,439.10058 714.149047,381.173091 C709.976901,353.070167 702.474668,336.910903 691.642348,332.695296 C680.810029,328.47969 585.096199,355.048615 404.50086,412.402071 Z"></path>
                <path fill-rule="nonzero" fill="#5B5B5D" id="路径-2备份-2" d="M671.854841,114.752348 L1157.5051,136.837546 L1157.1917,145.154659 L671.541436,123.069462 L671.854841,114.752348 Z M8.8098584,176.980634 L489.750872,105.981727 L491.030001,114.20584 L10.0891459,185.204716 L8.8098584,176.980634 Z"></path>
                <path transform="translate(1059.001459, 92.459369) rotate(4.000000) translate(-1059.001459, -92.459369)" fill-rule="nonzero" fill="#555555" id="路径-3" d="M1041.42509,75.3378428 C1040.60509,76.105942 1039.80511,76.9347742 1039.02488,77.8238902 C1035.31627,82.0495791 1033.23818,87.468111 1033.16699,93.0982954 C1033.00246,106.112089 1043.38392,116.79568 1056.35464,116.960764 L1057.99586,116.905882 C1069.3159,115.959748 1081.58933,104.173061 1084.13372,94.4546954 C1089.86436,72.5663407 1059.2616,58.6302706 1041.42509,75.3378428 Z M1077.14199,92.6119964 C1075.33282,99.5221847 1065.45807,109.005319 1057.56472,109.667918 L1056.2707,109.710465 C1047.46772,109.594143 1040.28144,102.198727 1040.39534,93.1902939 C1040.44461,89.2929567 1041.88311,85.54213 1044.45039,82.6169083 C1045.07724,81.9025714 1045.71327,81.2436001 1046.35829,80.6394136 C1058.94665,68.8478147 1079.74336,77.8571855 1077.3846,91.4962963 L1077.14199,92.6119964 Z"></path>
                <path transform="translate(965.949077, 78.112715) rotate(4.000000) translate(-965.949077, -78.112715)" fill-rule="nonzero" fill="#555555" id="路径-3备份-5" d="M948.372708,60.9911889 C947.552708,61.7592881 946.752728,62.5881203 945.972498,63.4772362 C942.263885,67.7029251 940.185798,73.121457 940.114613,78.7516414 C939.950075,91.7654346 950.331537,102.449026 963.302257,102.61411 L964.943479,102.559228 C976.263522,101.613094 988.536945,89.8264072 991.081335,80.1080415 C996.811979,58.2196868 966.209216,44.2836167 948.372708,60.9911889 Z M984.089608,78.2653425 C982.280435,85.1755308 972.405691,94.658665 964.512336,95.3212639 L963.218316,95.3638115 C954.415334,95.2474895 947.229058,87.8520732 947.342955,78.8436399 C947.392231,74.9463028 948.830728,71.1954761 951.398006,68.2702543 C952.024861,67.5559175 952.660893,66.8969462 953.305905,66.2927596 C965.894266,54.5011608 986.690981,63.5105316 984.332221,77.1496424 L984.089608,78.2653425 Z"></path>
            </g>
            <g fill-rule="nonzero" fill="#3681FD" transform="translate(616.002000, 202.703213)" id="shandian">
                <polygon points="43.071725 168.687037 19.4299098 184.864607 1.3716545e-14 3.77325461e-13 82.5829466 31.2653265 72.9632028 92.3470372 109.46408 84.3264103 38.8896201 255.448981" id="路径"></polygon>
            </g>
        </g>
    </g>
</svg>