<svg xmlns:xlink="http://www.w3.org/1999/xlink" xmlns="http://www.w3.org/2000/svg" version="1.1" viewBox="0 0 1630 1024" height="1024px" width="1630px">
    <title>缺省页-搜索空</title>
    <g fill-rule="evenodd" fill="none" stroke-width="1" stroke="none" id="页面-1">
        <g transform="translate(130.000000, 72.000000)" id="编组-12">
            <path fill="#F0F1F9" id="椭圆形备份-22" d="M413.422231,851.771116 C445.227085,916.783599 933.100611,853.548643 1027.2987,821.016938 C1261.30617,740.201476 1371,749.006823 1371,553.872664 C1371,420.382358 1325.92098,272.837948 1216.86558,202.858903 C1102.33377,129.365734 919.001623,136.785724 718.888162,136.785724 C524.592612,136.785724 307.971442,7.07135361 166.394519,76.4016374 C23.3112462,146.469582 -31.0344943,232.544281 17.187876,366.982758 C84.2242967,553.872664 242.12727,501.626113 413.422231,851.771116 Z"></path>
            <polygon points="290.107285 4.82545804 239.283847 290.03006 290.107285 263.756892 867.346545 211.194465 1049.09589 4.82545804" fill="#F4F4F4" stroke-width="8.46070129" stroke="#555555" id="路径-28"></polygon>
            <path fill="#FFFFFF" stroke-width="8.46070129" stroke="#555555" id="矩形备份-9" d="M1051.77757,4.23035064 L1215.33421,867.477208 L445.219269,867.477208 L295.136576,4.23035064 L1051.77757,4.23035064 Z"></path>
            <polygon points="321.620295 138.582893 1078.92574 118.705144 1078.58652 127.703841 321.281072 147.58159" fill-rule="nonzero" fill="#5B5B5D" id="路径-2备份-3"></polygon>
            <ellipse ry="135.371221" rx="135.407407" cy="457.133195" cx="871.373665" fill="#FFFFFF" id="椭圆形"></ellipse>
            <path transform="translate(395.981358, 69.465981) rotate(-3.000000) translate(-395.981358, -69.465981)" fill-rule="nonzero" fill="#555555" id="路径-3备份-10" d="M395.395088,44.1063032 C394.411229,44.07146 393.4081,44.0772413 392.386015,44.1234893 C386.153553,44.4024231 380.231662,46.9468143 375.745566,51.2739448 C365.630474,61.0306081 365.358176,77.0689532 375.137371,87.0965912 L376.431474,88.3070659 C385.793929,96.2306247 404.133438,96.6518612 413.470409,91.2078178 C434.482502,78.9564409 421.707502,45.038154 395.395088,44.1063032 Z M409.530816,84.5022929 C402.911904,88.3615361 388.179521,88.0231509 381.646821,82.4984427 L380.625228,81.5418139 C373.982768,74.7240638 374.171473,63.6093055 381.181349,56.8478252 C384.290265,53.8490738 388.394204,52.0857813 392.714714,51.8924166 C393.529733,51.8555385 394.3215,51.8509754 395.091876,51.8782582 C414.165905,52.5537625 423.197697,76.5336382 409.530816,84.5022929 Z"></path>
            <path transform="translate(539.851728, 69.465981) rotate(-3.000000) translate(-539.851728, -69.465981)" fill-rule="nonzero" fill="#555555" id="路径-3备份-11" d="M539.265458,44.1063032 C538.2816,44.07146 537.27847,44.0772413 536.256386,44.1234893 C530.023923,44.4024231 524.102032,46.9468143 519.615936,51.2739448 C509.500844,61.0306081 509.228546,77.0689532 519.007741,87.0965912 L520.301845,88.3070659 C529.664299,96.2306247 548.003808,96.6518612 557.340779,91.2078178 C578.352872,78.9564409 565.577873,45.038154 539.265458,44.1063032 Z M553.401186,84.5022929 C546.782274,88.3615361 532.049892,88.0231509 525.517191,82.4984427 L524.495598,81.5418139 C517.853138,74.7240638 518.041844,63.6093055 525.051719,56.8478252 C528.160635,53.8490738 532.264575,52.0857813 536.585085,51.8924166 C537.400103,51.8555385 538.191871,51.8509754 538.962247,51.8782582 C558.036276,52.5537625 567.068068,76.5336382 553.401186,84.5022929 Z"></path>
            <path transform="translate(692.185062, 69.465981) rotate(-3.000000) translate(-692.185062, -69.465981)" fill-rule="nonzero" fill="#555555" id="路径-3备份-12" d="M691.598791,44.1063032 C690.614933,44.07146 689.611804,44.0772413 688.589719,44.1234893 C682.357257,44.4024231 676.435365,46.9468143 671.94927,51.2739448 C661.834178,61.0306081 661.561879,77.0689532 671.341075,87.0965912 L672.635178,88.3070659 C681.997633,96.2306247 700.337141,96.6518612 709.674112,91.2078178 C730.686206,78.9564409 717.911206,45.038154 691.598791,44.1063032 Z M705.734519,84.5022929 C699.115608,88.3615361 684.383225,88.0231509 677.850525,82.4984427 L676.828931,81.5418139 C670.186471,74.7240638 670.375177,63.6093055 677.385053,56.8478252 C680.493969,53.8490738 684.597908,52.0857813 688.918418,51.8924166 C689.733436,51.8555385 690.525204,51.8509754 691.29558,51.8782582 C710.369609,52.5537625 719.401401,76.5336382 705.734519,84.5022929 Z"></path>
            <path transform="translate(852.668417, 810.470782) scale(-1, 1) translate(-852.668417, -810.470782)" fill="#3681FD" stroke-width="8.46070129" stroke="#555555" id="路径-25备份-3" d="M1194.3607,753.464356 L1194.3607,812.380263 L1252.5463,863.701963 L483.673667,867.467864 L445.891292,824.762833 L445.891292,753.464356 L1194.3607,753.464356 Z"></path>
            <path transform="translate(372.915080, 397.299587) scale(1, -1) rotate(-206.000000) translate(-372.915080, -397.299587)" stroke-dasharray="39.74124857584636,39.74124857584636" opacity="0.200000003" stroke-width="8.17465217" stroke="#555555" id="路径-5备份-3" d="M265.505067,268.185841 C265.505067,268.185841 313.277945,482.174506 401.216721,433.349288 C427.656724,418.669314 441.492809,367.443625 417.68359,351.153545 C401.863386,340.329487 395.556441,332.111798 350.612176,338.284121 C305.104332,344.533841 306.058253,472.7659 365.769819,497.470527 C405.577529,513.940279 443.762621,523.587881 480.325093,526.413333"></path>
            <path fill-rule="nonzero" fill="#3681FD" id="椭圆形" d="M871.373665,279.458468 C969.526938,279.458468 1049.09589,359.006153 1049.09589,457.133195 C1049.09589,555.260238 969.526938,634.807922 871.373665,634.807922 C773.220392,634.807922 693.651443,555.260238 693.651443,457.133195 C693.651443,359.006153 773.220392,279.458468 871.373665,279.458468 Z M871.373665,330.222676 C801.264184,330.222676 744.429221,387.042451 744.429221,457.133195 C744.429221,527.22394 801.264184,584.043715 871.373665,584.043715 C941.483146,584.043715 998.31811,527.22394 998.31811,457.133195 C998.31811,387.042451 941.483146,330.222676 871.373665,330.222676 Z"></path>
            <polygon points="978.270239 537.489167 1089.89477 649.083871 1053.98946 684.979586 942.364928 573.384882" fill-rule="nonzero" fill="#3681FD" id="路径-29"></polygon>
            <path fill-rule="nonzero" fill="#3681FD" id="路径备份-13" d="M775.761761,464.289667 C775.849128,403.793693 826.043235,360.643484 873.911559,362.84493 C874.029054,365.165204 874.264042,367.548019 874.264042,369.899562 C874.324295,376.891654 874.294169,383.886872 874.294169,390.788279 C828.399143,394.909735 805.418492,427.24972 803.243343,464.292794 L775.761761,464.289667 Z"></path>
            <polygon points="94.2344164 581.581794 175.956045 616.742248 235.293533 566.73954 199.570602 626.950574 278.247328 649.092805 323.147091 485.569364" transform="translate(208.690753, 567.331084) rotate(-520.000000) translate(-208.690753, -567.331084)" fill="#3681FD" id="路径-4备份-3"></polygon>
        </g>
    </g>
</svg>