<svg xmlns:xlink="http://www.w3.org/1999/xlink" xmlns="http://www.w3.org/2000/svg" version="1.1" viewBox="0 0 1630 1024" height="1024px" width="1630px">
    <title>缺省页-无文档</title>
    <g fill-rule="evenodd" fill="none" stroke-width="1" stroke="none" id="页面-1">
        <g transform="translate(99.512373, 95.000000)" id="编组-10">
            <path transform="translate(689.000000, 466.161721) scale(1, -1) translate(-689.000000, -466.161721)" fill="#EFF0F9" id="椭圆形备份-13" d="M878.50341,725.296187 C1145.1469,725.296187 1378,614.048996 1378,271.435165 C1378,-71.1786659 1258.08024,118.206958 991.436752,118.206958 C847.535891,118.206958 460.94656,41.438924 236.216629,138.940378 C44.5295084,222.10586 0.442161286,478.946919 0.0349505296,507.482785 C-1.96919151,647.92585 82.6572875,787.919847 140.751245,829.139052 C316.364273,953.741159 697.951275,725.296187 878.50341,725.296187 Z"></path>
            <g transform="translate(212.697329, 0.000000)" id="编组-6">
                <path fill="#3681FD" stroke-width="7.26392637" stroke="#555555" id="矩形" d="M459.471955,3.63196318 C467.01078,3.63196318 474.160822,6.97771275 478.991245,12.7657085 L478.991245,12.7657085 L509.853665,49.7462257 C516.064209,57.1879345 525.257119,61.4896125 534.949894,61.4896125 L534.949894,61.4896125 L903.893077,61.4896125 L912.185162,555.658647 L79.0202506,555.658647 C71.999678,555.658647 65.6437424,552.812997 61.04295,548.212205 C56.4421576,543.611413 53.5965083,537.255477 53.5965083,530.234904 L53.5965083,530.234904 L62.6698014,3.63196318 Z"></path>
                <path fill="#FFFFFF" stroke-width="7.26392637" stroke="#555555" id="形状结合" d="M110.833742,107.196002 L542.513069,152.578946 L482.297865,246.234662 L456.116562,358.514804 L500.323786,444.121139 L564.648788,307.966777 L515.349368,257.606037 L563.916977,213.334623 L563.916883,154.829207 L868.791172,186.881353 L792.494563,673.585189 C789.049611,695.560887 777.295375,714.258791 760.871837,726.881341 C744.448299,739.503891 723.355459,746.051087 701.233299,743.725367 L701.233299,743.725367 L158.970861,686.716901 C136.850193,684.391339 117.581055,673.602001 104.141672,657.841486 C90.7022897,642.080971 83.092662,621.349279 84.2910146,599.139008 L84.2910146,599.139008 L110.833742,107.196002 Z"></path>
                <path transform="translate(912.400537, 228.401571) rotate(-270.000000) translate(-912.400537, -228.401571)" stroke-dasharray="34.11980881900906,34.11980881900906" opacity="0.200000003" stroke-width="7.01833919" stroke="#555555" id="路径-5备份" d="M820.215361,117.594471 C820.215361,117.594471 861.202517,301.254104 936.690377,259.340047 C959.386841,246.738009 971.267864,202.770353 950.832369,188.790921 C937.25386,179.502189 931.84095,172.449614 893.26187,177.751308 C854.199028,183.119482 855.006247,293.179461 906.258249,314.377755 C940.426251,328.509951 973.202072,336.786923 1004.58571,339.208671"></path>
                <polygon points="933.563197 114.814874 1003.69453 145.008685 1054.60913 102.086084 1023.95993 153.775008 1091.47708 172.792124 1129.99127 32.4083401" transform="translate(1031.777236, 102.600232) rotate(-354.000000) translate(-1031.777236, -102.600232)" fill="#3681FD" id="路径-4备份"></polygon>
                <path fill="#F4F4F4" id="形状结合" d="M231.639677,159.196295 C233.176008,159.235354 234.710186,159.335343 236.23859,159.496026 L515.655231,188.871457 L477.863109,244.987115 L459.957402,358.036869 L500.179016,435.925157 L571.179138,308.70101 L521.015333,257.457277 L567.842548,214.011005 C567.830171,207.04871 567.764712,200.490747 567.646169,194.337118 L735.258006,211.958549 C767.176148,215.314143 790.330668,243.909155 786.975075,275.827297 C786.814594,277.353778 786.593698,278.873302 786.312906,280.382294 L720.216013,635.590886 C711.898579,680.289268 670.62264,711.087639 625.406184,706.333999 L240.91246,665.911879 C195.699299,661.158584 161.731777,622.454772 162.887221,577.007123 L172.070111,215.812009 C172.885795,183.72833 199.555998,158.380612 231.639677,159.196295 Z"></path>
                <path fill="#FFFFFF" stroke-width="7.26392637" stroke="#555555" id="矩形" d="M936.799982,214.075465 L956.493976,254.461817 L923.34538,768.045661 L628.888192,789.7511 L431.264872,789.7511 L98.8250607,767.992684 L3.98013503,297.24162 L59.4629476,249.473008 L936.799982,214.075465 Z"></path>
                <path transform="translate(592.097556, 698.009415) rotate(-3.000000) translate(-592.097556, -698.009415)" fill-rule="nonzero" fill="#555555" id="路径-3备份" d="M572.635833,677.406604 C570.533797,679.539454 568.551879,682.053485 566.683608,684.944946 C563.860381,689.313455 562.325151,694.38442 562.252981,699.579989 C562.040157,714.901354 574.334816,727.493656 589.713869,727.705682 L591.671784,727.631358 C604.596553,726.402849 618.338348,712.080622 621.173982,700.348503 C627.549118,673.972092 592.876868,656.868855 572.635833,677.406604 Z M612.916412,698.293745 C610.866906,706.770396 599.76739,718.334713 591.068805,719.165575 L589.571263,719.221034 C579.15648,719.070667 570.632391,710.343254 570.779946,699.724395 C570.829982,696.123475 571.894383,692.608915 573.851928,689.580968 C575.430044,687.139421 577.065834,685.065168 578.752584,683.354288 C592.733641,669.173217 615.858445,679.9909 613.207568,696.835596 L612.916412,698.293745 Z"></path>
                <path transform="translate(715.553140, 698.009415) rotate(11.000000) translate(-715.553140, -698.009415)" fill-rule="nonzero" fill="#555555" id="路径-3备份-9" d="M696.091417,677.406604 C693.989381,679.539454 692.007463,682.053485 690.139193,684.944946 C687.315966,689.313455 685.780736,694.38442 685.708566,699.579989 C685.495742,714.901354 697.7904,727.493656 713.169454,727.705682 L715.127369,727.631358 C728.052138,726.402849 741.793933,712.080622 744.629567,700.348503 C751.004703,673.972092 716.332453,656.868855 696.091417,677.406604 Z M736.371996,698.293745 C734.32249,706.770396 723.222975,718.334713 714.52439,719.165575 L713.026848,719.221034 C702.612064,719.070667 694.087976,710.343254 694.23553,699.724395 C694.285567,696.123475 695.349967,692.608915 697.307513,689.580968 C698.885628,687.139421 700.521419,685.065168 702.208169,683.354288 C716.189226,669.173217 739.314029,679.9909 736.663153,696.835596 L736.371996,698.293745 Z"></path>
                <path transform="translate(839.278135, 692.722178) rotate(-3.000000) translate(-839.278135, -692.722178)" fill-rule="nonzero" fill="#555555" id="路径-3备份-3" d="M838.594022,663.114847 C837.445968,663.074168 836.275427,663.080917 835.082767,663.134912 C827.81017,663.460566 820.899975,666.431133 815.665196,671.483042 C803.861999,682.873911 803.544257,701.59862 814.9555,713.305851 L816.465576,714.719076 C827.390528,723.969802 848.790713,724.461594 859.685929,718.105693 C884.204727,703.802255 869.29771,664.202779 838.594022,663.114847 Z M855.088859,710.277017 C847.365319,714.782669 830.174252,714.387606 822.55131,707.937529 L821.359224,706.820669 C813.608205,698.86097 813.828404,685.884531 822.008156,677.990527 C825.635918,674.489496 830.424763,672.430859 835.466322,672.205106 C836.417358,672.162051 837.341264,672.156723 838.240208,672.188576 C860.497498,672.977225 871.036603,700.973642 855.088859,710.277017 Z"></path>
                <polygon points="63.2987188 263.201066 23.5193002 299.856754 939.024467 258.169907 923.828536 226.545377" fill="#F4F4F4" id="路径-24"></polygon>
            </g>
        </g>
    </g>
</svg>