<svg xmlns:xlink="http://www.w3.org/1999/xlink" xmlns="http://www.w3.org/2000/svg" version="1.1" viewBox="0 0 1630 1024" height="1024px" width="1630px">
    <title>缺省页-无对话</title>
    <g fill-rule="evenodd" fill="none" stroke-width="1" stroke="none" id="页面-1">
        <g transform="translate(159.500000, 41.995789)" id="编组-9">
            <path fill="#EFF0F9" id="椭圆形备份-18" d="M818.10881,893.901614 C1086.4591,893.901614 1304,652.75414 1304,355.283657 C1304,57.8131736 1031.42824,167.399554 763.077941,167.399554 C494.727647,167.399554 0,100.937195 0,398.407678 C0,695.878161 549.758516,893.901614 818.10881,893.901614 Z"></path>
            <path transform="translate(1024.857734, 202.208698) rotate(-270.000000) translate(-1024.857734, -202.208698)" stroke-dasharray="33.51099242245463,33.51099242245463" opacity="0.200000003" stroke-width="6.8931073" stroke="#555555" id="路径-5备份-2" d="M934.317466,93.3403485 C934.317466,93.3403485 974.573267,273.786557 1048.71416,232.605854 C1071.00564,220.224309 1082.67466,177.025939 1062.60381,163.2911 C1049.26759,154.16489 1043.95126,147.235711 1006.06057,152.444643 C967.694745,157.718892 968.48756,265.853192 1018.82505,286.680588 C1052.38337,300.565518 1084.57435,308.697671 1115.398,311.077047"></path>
            <polygon points="1045.65034 90.6524997 1114.55326 120.305132 1164.57838 78.146423 1134.46369 128.914336 1200.79858 147.589756 1238.64382 9.70899305" transform="translate(1142.147080, 78.649375) rotate(-354.000000) translate(-1142.147080, -78.649375)" fill="#3681FD" id="路径-4备份-2"></polygon>
            <path fill="#FFFFFF" stroke-width="7.13431233" stroke="#555555" id="矩形备份-12" d="M106.749291,111.213063 L912.422228,132.209696 L912.422228,624.209989 L234.406085,624.209989 L106.936021,692.478539 L145.012084,368.382163 L106.749291,111.213063 Z"></path>
            <polygon points="177.833554 187.374394 860.275189 200.220688 848.039864 278.240279 188.216218 278.240279" fill="#F4F4F4" id="矩形备份-13"></polygon>
            <polygon points="192.103616 344.329265 874.545251 357.175559 862.309926 435.195151 202.48628 435.195151" fill="#F4F4F4" id="矩形备份-14"></polygon>
            <path transform="translate(810.768209, 602.953730) scale(-1, 1) translate(-810.768209, -602.953730)" fill="#3681FD" stroke-width="7.13431233" stroke="#555555" id="矩形备份-15" d="M1222.83714,289.470405 L1222.83714,803.17793 L550.55082,841.070786 L398.924347,914.214354 L410.882691,602.95373 L398.838953,289.470405 L1222.83714,289.470405 Z"></path>
            <path fill="#FFFFFF" stroke-width="7.13431233" stroke="#555555" id="椭圆形备份-19" d="M585.381983,490.054504 C595.445309,490.054504 607.080118,494.0713 615.728436,500.746896 C622.8435,506.238981 628.027781,513.586306 628.027781,522.158909 C628.027781,531.077103 623.792194,538.76674 617.456145,544.368394 C610.436101,550.574763 600.834352,554.263315 591.246718,554.263315 C581.736027,554.263315 572.414754,550.627373 565.623739,544.495053 C559.402224,538.876995 555.310698,531.133936 555.310698,522.158909 C555.310698,512.733438 558.331059,504.589032 563.738194,498.855088 C568.992416,493.283298 576.47304,490.054504 585.381983,490.054504 Z"></path>
            <path fill="#FFFFFF" stroke-width="7.13431233" stroke="#555555" id="椭圆形备份-20" d="M814.062235,490.054504 C824.125561,490.054504 835.760371,494.0713 844.408688,500.746896 C851.523753,506.238981 856.708033,513.586306 856.708033,522.158909 C856.708033,531.077103 852.472446,538.76674 846.136397,544.368394 C839.116354,550.574763 829.514605,554.263315 819.92697,554.263315 C810.41628,554.263315 801.095006,550.627373 794.303991,544.495053 C788.082477,538.876995 783.990951,531.133936 783.990951,522.158909 C783.990951,512.733438 787.011312,504.589032 792.418446,498.855088 C797.672669,493.283298 805.153292,490.054504 814.062235,490.054504 Z"></path>
            <path fill="#FFFFFF" stroke-width="7.13431233" stroke="#555555" id="椭圆形备份-21" d="M1044.81349,490.054504 C1055.61127,490.054504 1068.08296,494.897682 1077.35758,502.90968 C1085.19129,509.676939 1090.798,518.769252 1090.798,529.293221 C1090.798,540.246661 1086.19431,549.724566 1079.22939,556.615853 C1071.69561,564.069987 1061.39921,568.531939 1051.10193,568.531939 C1040.88535,568.531939 1030.88899,564.130773 1023.59998,556.764544 C1016.76274,549.854869 1012.31194,540.316627 1012.31194,529.293221 C1012.31194,517.721077 1015.62105,507.728169 1021.55116,500.690395 C1027.1983,493.988444 1035.22549,490.054504 1044.81349,490.054504 Z"></path>
            <line stroke-width="7.13431233" stroke="#555555" id="路径-23备份-3" y2="133.172259" x2="951.522385" y1="132.091165" x1="907.920668"></line>
            <line stroke-width="7.13431233" stroke="#555555" id="路径-23备份-4" y2="289.468673" x2="401.993643" y1="289.468673" x1="357.603133"></line>
        </g>
    </g>
</svg>