<svg xmlns:xlink="http://www.w3.org/1999/xlink" xmlns="http://www.w3.org/2000/svg" version="1.1" viewBox="0 0 1631 1024" height="1024px" width="1631px">
    <title>缺省页-无日程安排</title>
    <defs>
        <path id="path-1" d="M145.207637,100.917783 L159.807155,39.6249524 C165.234621,16.8389449 186.495832,1.43697902 209.838465,3.3814604 L837.482005,55.6652442 L837.482005,55.6652442 L683.918735,811.964205 C675.252279,854.646489 633.668783,882.256882 590.968206,873.681011 L27.7131529,760.55836 C12.7454989,757.552296 3.0487142,742.981719 6.05477814,728.014065 C6.09527834,727.812408 6.13802803,727.61121 6.1830192,727.410507 L38.5792232,582.893304 L38.5792232,582.893304 L75.2409076,444.599682"></path>
    </defs>
    <g fill-rule="evenodd" fill="none" stroke-width="1" stroke="none" id="页面-1">
        <g transform="translate(0.500000, 0.000000)" id="缺省页-无日程安排">
            <g transform="translate(127.390000, 54.375147)" id="编组-3">
                <path fill-rule="nonzero" fill="#F0F1F8" id="路径备份-5" d="M0,848.552816 C33.5455413,725.99051 98.0020715,563.342465 228.273317,522.78263 C340.765426,487.715784 343.473615,574.279398 480.494878,594.436704 C841.911267,647.633682 1011.20989,144.166952 1208.70312,223.063269 C1334.47436,273.293053 1410.79456,439.676656 1359.73988,626.266611 C1330.5798,732.783179 1273.32329,806.873131 1235.84229,847.784452 L0,848.552816 Z"></path>
                <polygon points="1134.5042 356.428508 1199.43425 384.853652 1246.48334 344.653068 1218.19672 393.106336 1280.69261 411.041684 1316.13391 279.384041" transform="translate(1225.319053, 345.212863) rotate(-354.000000) translate(-1225.319053, -345.212863)" fill="#3681FD" id="路径-4备份"></polygon>
                <path fill="#3681FD" stroke-width="7.89785904" stroke="#555555" id="矩形备份" d="M419.602842,71.2117388 C428.010112,63.9384101 439.192063,59.8723465 451.155956,60.7375141 L451.155956,60.7375141 L1078.27961,106.087892 L1139.50654,671.53434 C1139.67471,673.087396 1139.75897,674.648393 1139.75897,676.210527 C1139.75897,688.205662 1134.89698,699.065218 1127.03621,706.92599 C1119.17544,714.786763 1108.31588,719.648752 1096.32075,719.648752 L1096.32075,719.648752 L916.378229,719.648752 L495.406943,323.040009 L408.154036,121.306517 C405.379308,114.891193 404.193676,107.90102 404.697817,100.929554 C405.562985,88.9656614 411.195573,78.4850675 419.602842,71.2117388 Z"></path>
                <g transform="translate(235.714529, 51.163578)" id="矩形">
                    <mask fill="white" id="mask-2">
                        <use xlink:href="#path-1"></use>
                    </mask>
                    <use xlink:href="#path-1" fill="#FFFFFF" stroke-width="7.89785904" stroke="#555555" id="蒙版"></use>
                    <g fill-rule="nonzero" fill="#424242" mask="url(#mask-2)" id="0">
                        <g transform="translate(407.161096, 468.570650) rotate(-184.000000) translate(-407.161096, -468.570650) translate(290.881799, 328.824557)">
                            <path d="M0,192.744141 C0,144.228516 16.6992188,99.9755859 50.0976562,59.9853516 C83.4960938,19.9951172 120.410156,0 160.839844,0 C182.285156,0 199.599609,8.30566406 212.783203,24.9169922 C225.966797,41.5283203 232.558594,63.3691406 232.558594,90.4394531 C232.558594,137.021484 215.639648,180.175781 181.801758,219.902344 C147.963867,259.628906 111.181641,279.492188 71.4550781,279.492188 C50.7128906,279.492188 33.6181641,271.318359 20.1708984,254.970703 C6.72363281,238.623047 0,217.880859 0,192.744141 Z M192.216797,122.080078 C192.216797,93.7792969 185.888672,70.8837891 173.232422,53.3935547 C160.576172,35.9033203 144.052734,27.1582031 123.662109,27.1582031 C100.634766,27.1582031 80.9912109,39.7705078 64.7314453,64.9951172 C48.4716797,90.2197266 40.3417969,120.673828 40.3417969,156.357422 C40.3417969,185.185547 46.6259766,208.344727 59.1943359,225.834961 C71.7626953,243.325195 88.3300781,252.070312 108.896484,252.070312 C131.923828,252.070312 151.567383,239.414062 167.827148,214.101562 C184.086914,188.789062 192.216797,158.115234 192.216797,122.080078 Z"></path>
                        </g>
                    </g>
                </g>
                <path transform="translate(1058.206169, 465.465510) scale(1, -1) translate(-1058.206169, -465.465510)" stroke-dasharray="15.79571707589286,15.79571707589286" stroke-width="7.89785904" stroke="#D6D6D6" id="路径-5" d="M962.289377,388.447304 C962.289377,388.447304 1025.30683,510.094653 1109.43017,485.395624 C1159.97118,470.556533 1162.73549,433.963374 1141.95037,415.813737 C1128.13955,403.754083 1122.63403,394.597653 1083.3949,401.480896 C1043.66373,408.45045 1032.09165,504.757562 1083.3949,529.978912 C1105.43433,540.813787 1128.90882,544.607697 1153.81834,541.360643"></path>
                <path transform="translate(538.299973, 59.344714) rotate(-91.000000) translate(-538.299973, -59.344714)" fill-rule="nonzero" fill="#555555" id="椭圆形" d="M537.674014,1.58024596 C555.343035,1.58024596 572.65218,7.91893045 582.35895,19.0744386 C602.015997,41.665306 599.461287,70.9066485 586.36965,90.3712825 C575.896016,105.943472 559.435788,115.888087 541.12614,117.004159 L537.672418,117.109181 L537.672418,109.211322 C554.636114,109.211322 570.11003,100.393682 579.815353,85.9638162 C591.11637,69.1614742 593.338646,43.7251986 576.400023,24.2584817 C568.358872,15.0171872 553.233214,9.478105 537.674014,9.478105 C522.80686,9.478105 509.01355,16.0288163 499.599367,27.1776226 C492.739956,35.3009241 488.63986,45.3669759 487.951078,56.1051621 L487.847434,59.3455114 L479.948804,59.3455114 C479.948804,45.5170431 484.82641,32.430306 493.564235,22.0824811 C504.463437,9.17503137 520.45517,1.58024596 537.674014,1.58024596 Z"></path>
                <path transform="translate(712.744149, 72.952594) rotate(-91.000000) translate(-712.744149, -72.952594)" fill-rule="nonzero" fill="#555555" id="椭圆形备份" d="M708.722887,21.8386726 C725.122664,21.8386726 741.867546,27.1081481 750.844006,36.331669 C763.153152,48.9796029 767.606145,62.7589945 765.794191,76.7666137 C764.578489,86.1647987 760.989566,94.0142534 756.159832,101.14842 C747.127032,114.491081 731.909205,123.019294 715.029993,123.976445 L711.846776,124.066515 L711.846776,116.168656 C727.369361,116.168656 741.495246,108.720877 749.618893,96.721158 C753.818821,90.5172984 756.931742,83.7089246 757.960812,75.7535256 C759.466738,64.1117168 755.791932,52.7403555 745.183266,41.8397047 C737.916961,34.3734082 723.182297,29.7365316 708.722887,29.7365316 C695.76643,29.7365316 683.397009,35.6119159 674.548856,45.3234846 C670.926011,49.2998519 667.733481,61.2793921 667.26376,71.8882861 L667.204381,74.5065298 L659.305751,74.5065298 C659.305751,61.5484799 663.163833,46.091964 668.70991,40.0046935 C679.005226,28.7047449 693.460339,21.8386726 708.722887,21.8386726 Z"></path>
                <path transform="translate(889.775027, 89.189439) rotate(-91.000000) translate(-889.775027, -89.189439)" fill-rule="nonzero" fill="#555555" id="椭圆形备份-2" d="M886.423975,45.9363503 C900.252153,45.9363503 914.373739,50.3802964 921.996636,58.2129992 C932.395964,68.8985511 936.171641,80.5820466 934.636176,92.4522134 C933.607539,100.404266 930.577103,107.032235 926.499841,113.0549 C918.920614,124.250438 906.201597,131.436417 892.074616,132.34479 L889.027216,132.442529 L889.027216,124.54467 C901.744915,124.54467 913.312005,118.445999 919.958902,108.627638 C923.406358,103.53528 925.960792,97.9483923 926.802798,91.4391253 C928.032233,81.9347688 925.034744,72.6593037 916.335896,63.7210349 C910.423155,57.6455565 898.311786,53.8342093 886.423975,53.8342093 C875.819102,53.8342093 865.685059,58.6478055 858.432195,66.6084144 C855.557975,69.7631054 852.954551,79.4964357 852.540607,88.1552748 L852.48344,90.4843862 L844.584809,90.4843862 C844.584809,79.5374213 847.836407,66.5106437 852.593248,61.2896234 C861.293276,51.7406345 873.513011,45.9363503 886.423975,45.9363503 Z"></path>
                <polygon points="455.456264 200.421093 930.267431 257.867558 925.784331 269.631357 455.456264 207.358366" fill-rule="nonzero" fill="#424242" id="路径-6"></polygon>
                <path transform="translate(317.644886, 321.327202) scale(-1, 1) translate(-317.644886, -321.327202)" fill-rule="nonzero" fill="#3681FD" id="路径备份-6" d="M311.941223,182.755686 C260.663794,184.897786 214.751693,215.126556 192.5574,261.358627 C170.363106,307.590698 175.507238,362.284099 205.933528,403.576195 L187.328096,460.021431 L314.407524,460.021431 C391.360457,460.021431 457.020325,397.10277 456.382116,320.221397 C456.110579,283.459089 441.232282,248.310351 415.020495,222.508019 C388.808709,196.705687 353.410726,182.363508 316.614215,182.636809 C315.056551,182.658423 313.466436,182.690844 311.941223,182.755686 Z"></path>
                <path fill-rule="nonzero" fill="#FFFFFF" id="路径备份-7" d="M261.65247,367.523867 L289.117117,367.523867 C289.635309,379.108899 299.187221,388.234995 310.794609,388.234995 C322.401997,388.234995 331.953909,379.108899 332.472101,367.523867 L360.272078,367.523867 C361.053018,367.541428 361.807775,367.242208 362.364184,366.694461 C362.920593,366.146715 363.231198,365.397158 363.225674,364.61677 C363.23615,364.048819 363.07392,363.490966 362.760014,363.017326 L350.017456,343.002664 L350.017456,305.3617 C350.017457,284.207337 332.855664,267.056665 311.681612,267.050698 L311.681612,267.050698 C290.503336,267.050698 273.334951,284.203117 273.334951,305.3617 L273.334951,343.002664 L259.175352,362.984905 C258.573708,363.889165 258.522195,365.051767 259.04151,366.005603 C259.560826,366.959439 260.565728,367.547946 261.65247,367.534674 L261.65247,367.523867 Z"></path>
            </g>
        </g>
    </g>
</svg>