<svg xmlns:xlink="http://www.w3.org/1999/xlink" xmlns="http://www.w3.org/2000/svg" version="1.1" viewBox="0 0 1630 1024" height="1024px" width="1630px">
    <title>缺省页-无协作</title>
    <g fill-rule="evenodd" fill="none" stroke-width="1" stroke="none" id="页面-1">
        <g transform="translate(70.000000, 110.000000)" id="编组-11">
            <path fill="#F0F1F9" id="椭圆形备份-17" d="M405.067933,771.146105 C454.074576,862.89385 991.284991,730.65696 1081.3706,771.146105 C1256.81519,850 1444.63089,761.95871 1444.63089,556.32532 C1444.63089,415.652542 1397.13086,260.169475 1282.21854,186.425195 C1161.53568,108.977712 968.357503,116.796936 757.496753,116.796936 C552.76637,116.796936 324.511349,-19.8967416 175.330899,53.1638716 C24.5631994,127.001835 -32.7012321,217.707801 18.1109677,359.379765 C88.7476447,556.32532 356.06129,679.39836 405.067933,771.146105 Z"></path>
            <path fill="#3681FD" stroke-width="8.91593096" stroke="#555555" id="路径-25" d="M1408.67215,45.7228823 L1483.90222,270.303899 L1304.27314,278.985727 L1408.67215,45.7228823 Z"></path>
            <path transform="translate(205.328658, 371.984972) scale(-1, 1) translate(-205.328658, -371.984972)" fill="#3681FD" stroke-width="8.91593096" stroke="#555555" id="路径-25备份" d="M253.957574,154.783146 L308.037946,517.431802 L173.888142,595.386339 L102.691958,400.196902 L253.957574,154.783146 Z"></path>
            <path fill="#FFFFFF" stroke-width="8.91593096" stroke="#555555" id="矩形备份-11" d="M661.975323,4.62898606 L1404.43251,37.7203979 L1359.09634,567.313446 L1353.94533,627.484869 L556.541906,627.484869 L661.975323,4.62898606 Z"></path>
            <path fill-rule="nonzero" fill="#F4F4F4" id="路径备份-2" d="M773.996622,262.152238 L1282.49739,288.831712 L1273.15459,372.12666 L696.73603,332.908248 C697.755547,313.066846 706.475133,294.454824 720.970306,281.180002 C735.465478,267.90518 754.544552,261.058917 773.996622,262.152238 Z"></path>
            <path fill-rule="nonzero" fill="#F4F4F4" id="路径备份-12" d="M773.996622,92.7495495 L1310.79702,117.568669 L1297.23937,202.717194 L696.73603,163.505559 C697.755547,143.664158 706.475133,125.052135 720.970306,111.777314 C735.465478,98.5024919 754.544552,91.6562288 773.996622,92.7495495 Z"></path>
            <path fill-rule="nonzero" fill="#F4F4F4" id="路径备份-3" d="M754.05343,429.952296 L1256.81519,457.755425 L1242.59051,540.595293 L676.792839,500.708306 C677.812356,480.866904 686.531942,462.254882 701.027115,448.98006 C715.522287,435.705238 734.60136,428.858975 754.05343,429.952296 Z"></path>
            <path fill="#FFFFFF" stroke-width="8.91593096" stroke="#555555" id="矩形" d="M956.231036,146.512083 L992.952808,624.317551 L937.618086,741.608161 L198.836027,752.62925 L158.852443,146.512083 L956.231036,146.512083 Z"></path>
            <line stroke-width="8.91593096" stroke="#555555" id="路径-23备份-2" y2="166.084811" x2="957.543271" y1="95.816876" x1="952.744783"></line>
            <path stroke-dasharray="53.49558577383213,53.49558577383213" stroke-width="8.91593096" stroke="#3681FD" id="路径-26" d="M597.142551,623.026903 C896.088891,721.166537 1085.57603,753.879748 1165.60397,721.166537 C1285.64588,672.09672 1033.16069,482.895392 1049.88054,390.780023 C1056.85638,352.347738 1085.93912,318.490048 1137.12877,289.206953"></path>
            <polygon points="423.219848 597.42063 548.065882 532.011671 523.452723 671.816912 499.100607 610.498595" transform="translate(485.642865, 601.914291) rotate(13.000000) translate(-485.642865, -601.914291)" fill="#3681FD" id="路径-27"></polygon>
            <polygon points="1145.54746 267.524647 1270.36923 202.117107 1245.77213 341.940831 1221.41817 280.611286" transform="translate(1207.958348, 272.028969) rotate(-72.000000) translate(-1207.958348, -272.028969)" fill="#3681FD" id="路径-27备份"></polygon>
            <polygon points="167.024848 262.841577 965.002119 241.894302 964.644678 251.377176 166.667407 272.324451" fill-rule="nonzero" fill="#5B5B5D" id="路径-2备份-3"></polygon>
            <path transform="translate(861.749947, 197.952772) rotate(-3.000000) translate(-861.749947, -197.952772)" fill-rule="nonzero" fill="#555555" id="路径-3备份-2" d="M861.338109,180.136665 C860.646977,180.112186 859.942309,180.116248 859.224324,180.148739 C854.846202,180.3447 850.686247,182.132228 847.534897,185.172197 C840.429341,192.026612 840.23806,203.294139 847.107658,210.338924 L848.016727,211.189327 C854.593577,216.755918 867.476543,217.051853 874.035491,213.227212 C888.79587,204.620169 879.821808,180.791324 861.338109,180.136665 Z M871.268043,208.516334 C866.618452,211.227594 856.269385,210.989866 851.680355,207.108555 L850.962716,206.436488 C846.296583,201.646768 846.429143,193.838241 851.353375,189.088053 C853.537297,186.981319 856.420194,185.742542 859.455225,185.606696 C860.027752,185.580788 860.583945,185.577582 861.125112,185.596749 C874.524058,186.071316 880.868626,202.918061 871.268043,208.516334 Z"></path>
            <path transform="translate(763.657725, 197.952772) rotate(-3.000000) translate(-763.657725, -197.952772)" fill-rule="nonzero" fill="#555555" id="路径-3备份-7" d="M763.245888,180.136665 C762.554756,180.112186 761.850087,180.116248 761.132103,180.148739 C756.753981,180.3447 752.594026,182.132228 749.442676,185.172197 C742.33712,192.026612 742.145839,203.294139 749.015436,210.338924 L749.924506,211.189327 C756.501356,216.755918 769.384322,217.051853 775.94327,213.227212 C790.703649,204.620169 781.729587,180.791324 763.245888,180.136665 Z M773.175822,208.516334 C768.526231,211.227594 758.177164,210.989866 753.588134,207.108555 L752.870495,206.436488 C748.204362,201.646768 748.336922,193.838241 753.261154,189.088053 C755.445076,186.981319 758.327973,185.742542 761.363004,185.606696 C761.935531,185.580788 762.491724,185.577582 763.032891,185.596749 C776.431836,186.071316 782.776405,202.918061 773.175822,208.516334 Z"></path>
            <path transform="translate(662.947329, 198.089961) rotate(-3.000000) translate(-662.947329, -198.089961)" fill-rule="nonzero" fill="#555555" id="路径-3备份-8" d="M662.480604,177.899418 C661.697362,177.871677 660.898778,177.87628 660.085105,177.913101 C655.12349,178.135179 650.409118,180.160939 646.837773,183.606059 C638.785227,191.373994 638.568452,204.143197 646.353593,212.126873 L647.383819,213.090614 C654.837196,219.399091 669.437136,219.734466 676.870226,215.400097 C693.597789,205.645953 683.427712,178.641327 662.480604,177.899418 Z M673.733947,210.061378 C668.464683,213.133981 656.736348,212.86457 651.535716,208.465979 L650.722433,207.704342 C645.434423,202.276273 645.58465,193.427068 651.165157,188.043799 C653.640141,185.656292 656.907255,184.252416 660.346779,184.098466 C660.995609,184.069104 661.625929,184.065471 662.239219,184.087193 C677.423905,184.625007 684.614044,203.716997 673.733947,210.061378 Z"></path>
        </g>
    </g>
</svg>