<?xml version="1.0" standalone="no"?><!DOCTYPE svg PUBLIC "-//W3C//DTD SVG 1.1//EN" "http://www.w3.org/Graphics/SVG/1.1/DTD/svg11.dtd"><svg t="1709467825291" class="icon" viewBox="0 0 1024 1024" version="1.1" xmlns="http://www.w3.org/2000/svg" p-id="1559" xmlns:xlink="http://www.w3.org/1999/xlink" width="200" height="200"><path d="M512 485.0688c146.8416 0 265.8304-108.5952 265.8304-242.5344S658.8416 0 512 0C365.1584 0 246.1696 108.544 246.1696 242.5344c0 133.9392 118.9888 242.5344 265.8304 242.5344zM600.576 538.9312H423.424c-78.336 0.1024-153.4464 28.5184-208.7936 79.0528-55.3984 50.4832-86.528 118.9888-86.6304 190.464v161.6384c0 14.336 6.2464 28.0064 17.3056 38.144 11.0592 10.0864 26.112 15.7696 41.7792 15.7696h649.8304c15.6672 0 30.72-5.632 41.7792-15.7696 11.0592-10.1376 17.3056-23.808 17.3056-38.144V808.448c-0.1024-71.4752-31.232-139.9808-86.6304-190.464-55.3472-50.5344-130.4576-78.9504-208.7424-79.0528z" fill="#ffffff" p-id="1560"></path></svg>