<?xml version="1.0" standalone="no"?><!DOCTYPE svg PUBLIC "-//W3C//DTD SVG 1.1//EN" "http://www.w3.org/Graphics/SVG/1.1/DTD/svg11.dtd"><svg t="1709468090839" class="icon" viewBox="0 0 1024 1024" version="1.1" xmlns="http://www.w3.org/2000/svg" p-id="2541" xmlns:xlink="http://www.w3.org/1999/xlink" width="200" height="200"><path d="M967.168 624.3328a56.832 56.832 0 0 0-56.832 56.7296v146.7904l-187.0848-186.88a56.832 56.832 0 0 0-80.384 80.2304l189.44 189.2864h-149.248a56.832 56.832 0 0 0-56.832 56.7296A56.7296 56.7296 0 0 0 683.0592 1024h284.16A56.832 56.832 0 0 0 1024 967.2704v-286.208a56.7296 56.7296 0 0 0-56.832-56.7296zM195.1744 113.5104h146.944a56.832 56.832 0 0 0 56.832-56.7296A56.7296 56.7296 0 0 0 342.1184 0H56.832A56.832 56.832 0 0 0 0 56.7808V340.48A56.7296 56.7296 0 0 0 56.832 397.312 56.832 56.832 0 0 0 113.664 340.48v-147.968l188.3136 188.1088a56.832 56.832 0 0 0 96.256-40.3456c0.1536-14.848-5.5808-29.184-15.9232-39.936l-187.136-186.88zM342.1184 910.4896H192.8704l189.44-189.2864a56.7296 56.7296 0 0 0-40.3968-96.2048 56.832 56.832 0 0 0-39.936 15.9744L113.664 829.0304v-147.968a56.7296 56.7296 0 0 0-56.832-56.7296A56.832 56.832 0 0 0 0 681.0624v286.208A56.7296 56.7296 0 0 0 56.832 1024h285.2864a56.832 56.832 0 0 0 56.832-56.7296 56.7296 56.7296 0 0 0-56.832-56.7808zM1019.648 35.072A56.832 56.832 0 0 0 967.168 0h-284.1088a56.832 56.832 0 0 0-56.832 56.7808 56.7296 56.7296 0 0 0 56.832 56.7296h146.944l-187.0848 186.88a56.832 56.832 0 1 0 80.3328 80.2816l187.0848-186.88V340.48a56.7296 56.7296 0 0 0 56.832 56.7808A56.832 56.832 0 0 0 1024 340.48V56.832c0-7.4752-1.536-14.848-4.352-21.7088z" fill="#ffffff" p-id="2542"></path></svg>