<?xml version="1.0" standalone="no"?><!DOCTYPE svg PUBLIC "-//W3C//DTD SVG 1.1//EN" "http://www.w3.org/Graphics/SVG/1.1/DTD/svg11.dtd"><svg t="1709468000872" class="icon" viewBox="0 0 1024 1024" version="1.1" xmlns="http://www.w3.org/2000/svg" p-id="2157" xmlns:xlink="http://www.w3.org/1999/xlink" width="200" height="200"><path d="M916.224 42.6496H107.776a106.496 106.496 0 0 0-76.1856 32.3584A111.8208 111.8208 0 0 0 0 153.088v496.9472c0 29.2864 11.3664 57.344 31.5904 78.08 20.1728 20.6848 47.616 32.3584 76.1856 32.3584h107.8272v165.632c0 10.3936 2.816 20.5824 8.2432 29.3888 5.4272 8.8064 13.1072 15.872 22.272 20.3776a52.7872 52.7872 0 0 0 57.0368-6.656l254.72-208.7424h358.3488a106.496 106.496 0 0 0 76.1856-32.3584c20.224-20.736 31.5904-48.7936 31.5904-78.08V153.088c0-29.2864-11.3664-57.344-31.5904-78.08a106.496 106.496 0 0 0-76.1856-32.3584zM296.3968 484.4032c-15.9744 0-31.5904-4.864-44.9024-13.9776a82.432 82.432 0 0 1-29.7472-37.1712A84.6848 84.6848 0 0 1 239.2576 343.04a79.0528 79.0528 0 0 1 88.064-17.92c14.848 6.2464 27.4432 16.896 36.352 30.464a84.2752 84.2752 0 0 1-10.0864 104.6016 79.872 79.872 0 0 1-57.1904 24.2688z m215.6032 0c-15.9744 0-31.6416-4.864-44.9024-13.9776a82.432 82.432 0 0 1-29.7984-37.1712c-6.144-15.1552-7.68-31.744-4.608-47.872a83.456 83.456 0 0 1 22.1696-42.3936 79.0528 79.0528 0 0 1 88.064-17.92c14.7968 6.2464 27.392 16.896 36.3008 30.464a84.2752 84.2752 0 0 1-10.0864 104.6016A79.872 79.872 0 0 1 512 484.352z m215.552 0c-15.9744 0-31.5904-4.864-44.9024-13.9776a82.432 82.432 0 0 1-29.7472-37.1712c-6.144-15.1552-7.7312-31.744-4.608-47.872a83.456 83.456 0 0 1 22.1184-42.3936c11.264-11.5712 25.7024-19.456 41.4208-22.6816 15.6672-3.1744 31.8976-1.536 46.6944 4.7616 14.7456 6.2464 27.392 16.896 36.2496 30.464a84.2752 84.2752 0 0 1-10.0352 104.6016 79.872 79.872 0 0 1-57.1904 24.2688z" fill="#ffffff" p-id="2158"></path></svg>