<?xml version="1.0" standalone="no"?><!DOCTYPE svg PUBLIC "-//W3C//DTD SVG 1.1//EN" "http://www.w3.org/Graphics/SVG/1.1/DTD/svg11.dtd"><svg t="1709468033107" class="icon" viewBox="0 0 1024 1024" version="1.1" xmlns="http://www.w3.org/2000/svg" p-id="2347" xmlns:xlink="http://www.w3.org/1999/xlink" width="200" height="200"><path d="M819.96595 739.530951h90.265374a56.831858 56.831858 0 1 0 0-113.766115h-227.583431a56.831858 56.831858 0 0 0-56.831858 56.883057v227.583431a56.831858 56.831858 0 1 0 113.714916 0v-90.214174l187.391532 187.289132a56.729458 56.729458 0 0 0 80.383799 0 56.831858 56.831858 0 0 0 0-80.383799l-187.340332-187.391532zM341.349547 56.883058c-31.436721 0-56.883058 25.497536-56.883058 56.883058v90.265374L97.074957 16.639958a56.831858 56.831858 0 1 0-80.383799 80.486199l187.340332 187.340332H113.766116a56.883058 56.883058 0 0 0 0 113.766115h227.583431c31.385522 0 56.831858-25.497536 56.831858-56.883057V113.766116c0-31.385522-25.446336-56.831858-56.831858-56.831858zM341.349547 625.764836H113.766116a56.934258 56.934258 0 0 0 0 113.817315h90.265374l-187.391532 187.289132a56.831858 56.831858 0 1 0 80.486199 80.434999l187.340332-187.289132v90.214174a56.934258 56.934258 0 0 0 113.766115 0v-227.583431c0-31.385522-25.497536-56.831858-56.883057-56.831858zM682.647893 398.232604h227.583431a56.831858 56.831858 0 1 0 0-113.766115h-90.265374l187.391532-187.391532a56.831858 56.831858 0 1 0-80.486199-80.383799l-187.340332 187.340332V113.766116a56.831858 56.831858 0 1 0-113.766115 0v227.583431a56.831858 56.831858 0 0 0 56.883057 56.831858z" fill="#ffffff" p-id="2348"></path></svg>