<?xml version="1.0" standalone="no"?><!DOCTYPE svg PUBLIC "-//W3C//DTD SVG 1.1//EN" "http://www.w3.org/Graphics/SVG/1.1/DTD/svg11.dtd"><svg t="1709467946616" class="icon" viewBox="0 0 1024 1024" version="1.1" xmlns="http://www.w3.org/2000/svg" p-id="1962" xmlns:xlink="http://www.w3.org/1999/xlink" width="200" height="200"><path d="M512.001024 538.9312c84.8384 0 153.6-72.3456 153.6-161.6896 0-89.2928-68.7616-161.6384-153.6-161.6384S358.401024 287.9488 358.401024 377.2416c0 89.344 68.7616 161.6896 153.6 161.6896zM460.801024 700.6208h102.4a199.68 199.68 0 0 1 144.7936 63.1808c38.4 40.448 60.0064 95.232 60.0064 152.4224V1024H256.001024v-107.776c0-57.1904 21.5552-112.0256 60.0064-152.4224A199.7312 199.7312 0 0 1 460.801024 700.6208z" fill="#ffffff" p-id="1963"></path><path d="M665.601024 377.2416c0-38.0928-12.9024-74.9568-36.2496-104.0384a151.7056 151.7056 0 0 0-91.4944-54.8864M742.401024 0a196.5056 196.5056 0 0 0-104.448 30.6176c-31.488 19.968-57.344 48.4352-74.752 82.5856a254.5664 254.5664 0 0 1 146.9952 93.696A278.784 278.784 0 0 1 768.001024 377.2416c-0.1024 17.408-1.792 34.7136-5.12 51.7632a201.1136 201.1136 0 0 0 135.168-73.4208 222.208 222.208 0 0 0 49.4592-151.3984 220.0064 220.0064 0 0 0-63.6416-145.408A198.8096 198.8096 0 0 0 742.401024 0zM377.140224 605.3376a268.9536 268.9536 0 0 1-99.1744-120.32H256.001024a250.0096 250.0096 0 0 0-180.9408 79.0528A277.1456 277.1456 0 0 0 0.001024 754.5344v107.776c0 14.336 5.376 28.0064 15.0016 38.0928a49.92 49.92 0 0 0 36.1984 15.8208h102.4a335.0016 335.0016 0 0 1 62.3104-194.816 307.6608 307.6608 0 0 1 161.2288-116.0704zM768.001024 485.0688h-21.9648a268.9536 268.9536 0 0 1-99.1744 120.32 307.6096 307.6096 0 0 1 161.2288 116.0192A335.0016 335.0016 0 0 1 870.401024 916.224h102.4c13.568 0 26.624-5.6832 36.1984-15.8208 9.6256-10.0864 15.0016-23.808 15.0016-38.0928v-107.776a277.1456 277.1456 0 0 0-75.0592-190.464A250.0096 250.0096 0 0 0 768.001024 485.0688zM256.001024 377.2416a278.784 278.784 0 0 1 57.7536-170.3424A254.5664 254.5664 0 0 1 460.801024 113.152 210.944 210.944 0 0 0 389.786624 33.1776 195.6864 195.6864 0 0 0 188.826624 23.296a208.0256 208.0256 0 0 0-77.824 72.704A224.768 224.768 0 0 0 96.564224 307.2a212.5824 212.5824 0 0 0 67.072 83.712c28.8768 21.3504 62.464 34.4576 97.536 38.0928a277.504 277.504 0 0 1-5.12-51.712z" fill="#ffffff" p-id="1964"></path></svg>