<svg xmlns:xlink="http://www.w3.org/1999/xlink" xmlns="http://www.w3.org/2000/svg" version="1.1" viewBox="0 0 1630 1024" height="1024px" width="1630px">
    <title>缺省页-加载中</title>
    <defs>
        <linearGradient id="linearGradient-1" y2="50%" x2="100%" y1="50%" x1="-2.77555756e-15%">
            <stop offset="0%" stop-color="#FFFFFF"></stop>
            <stop offset="100%" stop-opacity="0" stop-color="#FFFFFF"></stop>
        </linearGradient>
    </defs>
    <g fill-rule="evenodd" fill="none" stroke-width="1" stroke="none" id="页面-1">
        <g transform="translate(128.000000, 70.000000)" id="加载中">
            <path fill="#F0F1F9" id="椭圆形备份-6" d="M407.872152,819.500102 C439.449284,875.854969 923.829638,821.040919 1017.35327,792.841413 C1249.68525,722.788027 1373,663.619019 1373,494.470588 C1373,378.75699 1313.83742,317.662612 1205.56285,257.002573 C1091.85109,193.296382 909.831598,199.728263 711.150949,199.728263 C518.246553,199.728263 292.796005,97.9411765 162.613157,147.385436 C32.4303089,196.829695 -25.7418364,281.96064 14.4748329,399.270296 C107.368377,670.235294 237.803662,515.983394 407.872152,819.500102 Z"></path>
            <g id="编组-18">
                <path fill="#FFFFFF" stroke-width="7.33400216" stroke="#555555" id="矩形" d="M960.866546,167.889309 L960.866546,771.286516 L195.406297,749.611424 L211.40025,188.983146 L960.866546,167.889309 Z"></path>
                <path fill="#F4F4F4" id="矩形" d="M251.985713,264.37755 C350.05208,261.877809 455.416984,255.388434 568.080425,244.909426 C680.743866,234.430417 784.518467,242.026136 879.404228,267.696582 L910.536608,701.340863 C792.818829,716.168649 682.101499,721.62743 578.384617,717.717205 C474.667736,713.80698 365.868101,708.3482 251.985713,701.340863 L251.985713,264.37755 Z"></path>
                <path fill-rule="nonzero" fill="#E73443" id="路径-14" d="M19.2512849,154.762407 C22.0682819,151.941707 26.5009011,151.72473 29.5664553,154.111476 L30.3026373,154.762407 L62.2957634,186.797594 C65.3475101,189.853353 65.3475101,194.807717 62.2957634,197.863476 C59.4787664,200.684176 55.0461472,200.901153 51.980593,198.514407 L51.244411,197.863476 L19.2512849,165.828289 C16.1995382,162.77253 16.1995382,157.818166 19.2512849,154.762407 Z M1.82842441,203.671225 C4.38918436,200.615418 8.7860502,200.012431 12.0476846,202.122563 L12.837723,202.70677 L47.4974903,231.828003 C50.8036014,234.605807 51.2348357,239.541318 48.4606791,242.851775 C45.8999192,245.907583 41.5030533,246.51057 38.2414189,244.400438 L37.4513805,243.816231 L2.79161323,214.694998 C-0.514497884,211.917194 -0.945732209,206.981683 1.82842441,203.671225 Z"></path>
                <path fill="#FFFFFF" stroke-width="7.33400216" stroke="#555555" id="路径-9" d="M1071.78956,284.255236 L1176.82943,463.380801 L1169.16149,771.391822 L960.789203,771.391822 L960.789203,284.255236 L1071.78956,284.255236 Z"></path>
                <polygon points="989.943871 327.176471 1061.26055 327.176471 1147.69963 471.30337 1137.99576 494.470588 999.136552 494.190064" fill="#FFFFFF" stroke-width="7.33400216" stroke="#555555" id="路径-16"></polygon>
                <line stroke-width="7.33400216" stroke="#555555" id="路径-17" y2="457.411765" x2="1055.58721" y1="417.176471" x1="1095.82022"></line>
                <line stroke-width="7.33400216" stroke="#555555" id="路径-18" y2="494.470588" x2="1138.17076" y1="434.117647" x1="1077.82124"></line>
                <path fill="#3681FD" stroke-width="7.33400216" stroke="#555555" id="矩形" d="M590.558005,4.27626445 C590.724926,4.27626445 590.891839,4.27854391 591.058697,4.28310218 L591.058697,4.28310218 L1013.96939,15.8362576 C1018.9331,15.9718573 1023.39168,18.0711154 1026.60933,21.3778654 C1029.82698,24.6846154 1031.8037,29.1988575 1031.8037,34.1644252 L1031.8037,34.1644252 L1031.8037,169.009377 C1031.8037,174.072449 1029.75148,178.6562 1026.4335,181.974184 C1023.11552,185.292167 1018.53177,187.344383 1013.46869,187.344383 L1013.46869,187.344383 L842.089639,187.344383 L802.073927,214.693432 L764.29171,187.344383 L590.558005,187.344383 C585.494933,187.344383 580.911182,185.292167 577.593198,181.974184 C574.275215,178.6562 572.223,174.072449 572.223,169.009377 L572.223,169.009377 L572.223,22.6112698 C572.223,17.5481979 574.275215,12.9644466 577.593198,9.6464632 C580.911182,6.32847983 585.494933,4.27626445 590.558005,4.27626445 Z"></path>
                <path fill="url(#linearGradient-1)" id="形状结合" d="M647.444187,43.4117647 C655.545102,43.4117647 662.112191,49.9788539 662.112191,58.079769 L662.112191,137.802584 C662.112191,145.903499 655.545102,152.470588 647.444187,152.470588 L645.691049,152.470588 C637.590134,152.470588 631.023045,145.903499 631.023045,137.802584 L631.023045,58.079769 C631.023045,49.9788539 637.590134,43.4117647 645.691049,43.4117647 L647.444187,43.4117647 Z M774.810347,51.2016807 C781.24912,51.2016807 786.468777,56.4213375 786.468777,62.8601106 L786.468777,133.022242 C786.468777,139.461015 781.24912,144.680672 774.810347,144.680672 C768.371574,144.680672 763.151917,139.461015 763.151917,133.022242 L763.151917,62.8601106 C763.151917,56.4213375 768.371574,51.2016807 774.810347,51.2016807 Z M712.632054,66.7815126 C719.070827,66.7815126 724.290484,72.0011695 724.290484,78.4399425 L724.290484,125.232326 C724.290484,131.671099 719.070827,136.890756 712.632054,136.890756 C706.193281,136.890756 700.973624,131.671099 700.973624,125.232326 L700.973624,78.4399425 C700.973624,72.0011695 706.193281,66.7815126 712.632054,66.7815126 Z M836.988639,66.7815126 C843.427412,66.7815126 848.647069,72.0011695 848.647069,78.4399425 L848.647069,125.232326 C848.647069,131.671099 843.427412,136.890756 836.988639,136.890756 C830.549866,136.890756 825.33021,131.671099 825.33021,125.232326 L825.33021,78.4399425 C825.33021,72.0011695 830.549866,66.7815126 836.988639,66.7815126 Z M961.345225,66.7815126 C967.783998,66.7815126 973.003655,72.0011695 973.003655,78.4399425 L973.003655,125.232326 C973.003655,131.671099 967.783998,136.890756 961.345225,136.890756 C954.906452,136.890756 949.686795,131.671099 949.686795,125.232326 L949.686795,78.4399425 C949.686795,72.0011695 954.906452,66.7815126 961.345225,66.7815126 Z M899.166932,74.5714286 C905.605705,74.5714286 910.825362,79.7910854 910.825362,86.2298585 L910.825362,117.44241 C910.825362,123.881183 905.605705,129.10084 899.166932,129.10084 C892.728159,129.10084 887.508502,123.881183 887.508502,117.44241 L887.508502,86.2298585 C887.508502,79.7910854 892.728159,74.5714286 899.166932,74.5714286 Z"></path>
                <path transform="translate(1249.014393, 701.658479) rotate(119.000000) translate(-1249.014393, -701.658479)" opacity="0.5" fill-rule="nonzero" fill="#E73443" id="路径备份-9" d="M1227.58189,680.227248 C1230.38741,677.421896 1234.80177,677.205901 1237.85457,679.579402 L1238.58769,680.226725 L1270.44742,712.084567 C1273.48644,715.123409 1273.48621,720.05058 1270.4469,723.08971 C1267.64138,725.895062 1263.22702,726.111057 1260.17422,723.737556 L1259.4411,723.090233 L1227.58137,691.232391 C1224.54235,688.193549 1224.54258,683.266378 1227.58189,680.227248 Z"></path>
                <path transform="translate(1215.723909, 665.406941) rotate(114.000000) translate(-1215.723909, -665.406941)" opacity="0.5" fill-rule="nonzero" fill="#E73443" id="路径备份-10" d="M1194.29111,643.975751 C1197.09664,641.170437 1201.51103,640.954469 1204.56387,643.32797 L1205.297,643.975293 L1237.15716,675.833073 C1240.19623,678.87191 1240.19602,683.799042 1237.1567,686.838131 C1234.35118,689.643444 1229.93679,689.859412 1226.88395,687.485911 L1226.15082,686.838589 L1194.29066,654.980808 C1191.25159,651.941972 1191.2518,647.01484 1194.29111,643.975751 Z"></path>
                <ellipse ry="120.705882" rx="120.699039" cy="779.294118" cx="385.389913" fill="#FFFFFF" id="椭圆形"></ellipse>
                <ellipse ry="104.823529" rx="104.817586" cy="779.294118" cx="1023.8243" fill="#FFFFFF" id="椭圆形备份-8"></ellipse>
                <path fill="#3681FD" stroke-width="7.33400216" stroke="#555555" id="形状结合" d="M385.307726,673.902295 C414.386132,673.902295 440.711553,685.698433 459.76746,704.769794 C478.824444,723.842232 490.611178,750.190629 490.611178,779.294118 C490.611178,808.397606 478.824444,834.746004 459.76746,853.818441 C440.711553,872.889802 414.386132,884.68594 385.307726,884.68594 C356.229321,884.68594 329.9039,872.889802 310.847992,853.818441 C291.791009,834.746004 280.004274,808.397606 280.004274,779.294118 C280.004274,750.190629 291.791009,723.842232 310.847992,704.769794 C329.9039,685.698433 356.229321,673.902295 385.307726,673.902295 Z M1027.45504,681.692211 C1054.38406,681.692211 1078.76358,692.616433 1096.41093,710.278097 C1114.05936,727.940837 1124.97489,752.341755 1124.97489,779.294118 C1124.97489,806.24648 1114.05936,830.647399 1096.41093,848.310139 C1078.76358,865.971803 1054.38406,876.896024 1027.45504,876.896024 C1000.52602,876.896024 976.146497,865.971803 958.499144,848.310139 C940.850716,830.647399 929.935191,806.24648 929.935191,779.294118 C929.935191,752.341755 940.850716,727.940837 958.499144,710.278097 C976.146497,692.616433 1000.52602,681.692211 1027.45504,681.692211 Z"></path>
                <path fill="#FFFFFF" id="椭圆形备份-9" d="M385.008958,816.352941 C403.174812,816.352941 421.387872,803.040254 421.387872,784.588235 C421.387872,766.136217 397.887027,752.823529 379.721173,752.823529 C361.555319,752.823529 349.391954,766.136217 349.391954,784.588235 C349.391954,803.040254 366.843104,816.352941 385.008958,816.352941 Z"></path>
                <path fill-rule="nonzero" fill="#555555" id="路径-3备份-4" d="M387.227821,746.501887 C385.870118,746.453191 384.485821,746.461266 383.075367,746.525892 C374.474708,746.915669 366.302637,750.471334 360.11194,756.518312 C346.153372,770.152829 345.777665,792.565786 359.272776,806.579053 L361.058615,808.270648 C373.978625,819.343545 399.286744,819.932274 412.171538,812.324472 C441.167719,795.203731 423.538376,747.804208 387.227821,746.501887 Z M409.20065,805.499779 C398.876077,811.595888 375.895557,811.061251 365.705389,802.334228 L364.111835,800.823104 C353.750446,790.053557 354.044715,772.496398 364.979116,761.815843 C369.82858,757.078961 376.230154,754.293651 382.969561,753.98824 C384.240879,753.929993 385.475929,753.922791 386.677611,753.965894 C416.430512,755.033087 430.519067,792.912392 409.20065,805.499779 Z"></path>
                <path transform="translate(1025.878802, 779.109280) rotate(-210.000000) translate(-1025.878802, -779.109280)" fill="#FFFFFF" id="椭圆形备份-11" d="M1025.49862,811.080151 C1043.55358,811.079276 1061.65611,797.679253 1061.65701,779.1074 C1061.65791,760.535547 1038.30118,747.137534 1020.24622,747.138409 C1002.19126,747.139285 990.1015,760.539016 990.100599,779.110869 C990.099699,797.682721 1007.44367,811.081026 1025.49862,811.080151 Z"></path>
                <path transform="translate(1025.618786, 782.340312) rotate(-210.000000) translate(-1025.618786, -782.340312)" fill-rule="nonzero" fill="#555555" id="路径-3备份-6" d="M1024.80414,746.904628 C1023.43719,746.855937 1022.04346,746.864012 1020.62341,746.928631 C1011.96418,747.318369 1003.73646,750.873686 997.5036,756.920072 C983.449976,770.553253 983.071711,792.964014 996.658721,806.975907 L998.456721,808.667337 C1011.46472,819.739149 1036.94518,820.32782 1049.91772,812.720763 C1079.11136,795.6017 1061.36196,748.206822 1024.80414,746.904628 Z M1046.9266,805.896739 C1036.53172,811.992251 1013.3947,811.457667 1003.13514,802.731498 L1001.53073,801.220523 C991.098785,790.452031 991.395058,772.896592 1002.40392,762.217083 C1007.28641,757.480666 1013.73158,754.695629 1020.51688,754.390248 C1021.79685,754.332007 1023.04031,754.324806 1024.25018,754.367904 C1054.20569,755.434992 1068.39019,793.310585 1046.9266,805.896739 Z"></path>
                <g opacity="0.300000012" fill-rule="nonzero" fill="#555555" transform="translate(505.030189, 363.176471)" id="jiazai-xian">
                    <path id="形状" d="M87.6983581,0 L87.6983581,34.2453553 L69.9638902,34.2453553 L65.3385425,0 L87.6983581,0 Z M93.0844357,126.793001 L95.2396786,160.941176 L69.9638902,160.941176 L75.3499678,126.793001 L93.0844357,126.793001 Z M152.375962,47.9783529 L117.870298,62.7217199 L112.2653,50.396566 L141.534705,28.6876816 L152.375962,47.9783529 Z M46.3153817,111.302092 L13.9685762,130.960026 L0,112.95916 L31.7187186,99.4211305 L46.3153817,111.302092 Z M140.037534,130.979309 L116.693055,112.962824 L122.172814,97.0042812 L154.579471,110.592477 L140.037534,130.979309 Z M28.3233596,61.3901176 L4.44161198,50.5438067 L14.1535197,32.4922353 L37.7595718,50.5438067 L28.3233596,61.3901176 Z"></path>
                </g>
            </g>
        </g>
    </g>
</svg>