<?xml version="1.0" standalone="no"?><!DOCTYPE svg PUBLIC "-//W3C//DTD SVG 1.1//EN" "http://www.w3.org/Graphics/SVG/1.1/DTD/svg11.dtd"><svg height="1024" node-id="1" sillyvg="true" template-height="1024" template-width="1630" version="1.1" viewBox="0 0 1630 1024" width="1630" xmlns="http://www.w3.org/2000/svg" xmlns:xlink="http://www.w3.org/1999/xlink"><defs node-id="22"></defs><g node-id="24"><path d="M 160.10 945.65 C -58.52 945.76 195.58 608.18 322.49 569.93 C 432.18 536.92 434.81 618.46 568.42 637.49 C 920.85 687.62 1085.93 212.99 1278.57 287.35 C 1401.11 334.87 1475.64 491.61 1425.96 667.56 C 1397.52 767.96 1317.69 907.04 1281.11 945.65 C 1090.59 945.58 934.29 945.58 812.22 945.65 C 593.60 945.76 378.72 945.53 160.10 945.65 Z" fill="#f0f1f9" fill-rule="nonzero" group-id="1" id="bg" node-id="6" stroke="none" target-height="732.7776" target-width="1534.1641" target-x="-58.52308" target-y="212.98712"></path><g node-id="25"><path d="M 530.87 377.18 L 1297.70 404.54 L 1301.11 404.90 L 1304.30 405.67 L 1307.32 406.84 L 1310.15 408.40 L 1312.72 410.27 L 1315.04 412.46 L 1317.06 414.92 L 1318.74 417.62 L 1320.09 420.56 L 1321.04 423.65 L 1321.58 426.89 L 1321.70 430.31 L 1321.24 434.24 L 1219.96 948.69 L 1218.93 952.28 L 1217.40 955.49 L 1215.38 958.38 L 1212.91 960.91 L 1210.13 962.98 L 1207.00 964.62 L 1203.65 965.72 L 1200.13 966.26 L 1196.39 966.22 L 530.87 901.43 L 530.87 901.43 L 530.87 377.18 Z" fill="#3681fd" fill-rule="evenodd" group-id="1,2" id="路径-11" node-id="8" stroke="#555555" stroke-linecap="butt" stroke-width="9.309091" target-height="589.0864" target-width="790.8235" target-x="530.87366" target-y="377.1764"></path><g node-id="26"><path d="M 1418.25 252.37 L 1412.81 253.69 L 1398.05 257.61 L 1388.29 260.42 L 1376.36 264.09 L 1363.89 268.21 L 1350.08 273.11 L 1336.08 278.51 L 1321.59 284.62 L 1311.99 289.01 L 1302.55 293.66 L 1293.25 298.58 L 1284.14 303.83 L 1275.54 309.29 L 1267.43 314.96 L 1261.51 319.52 L 1256.06 324.16 L 1251.06 328.90 L 1246.48 333.71 L 1242.18 338.88 L 1238.49 344.10 L 1235.36 349.41 L 1232.78 354.81 L 1231.09 359.31 L 1229.85 363.88 L 1229.03 368.54 L 1228.64 373.31 L 1228.68 378.20 L 1229.17 382.96 L 1230.17 387.87 L 1231.71 392.98 L 1233.82 398.30 L 1236.56 403.86 L 1238.77 407.43 L 1241.33 410.86 L 1244.28 414.16 L 1247.62 417.32 L 1252.40 421.13 L 1257.58 424.57 L 1263.20 427.65 L 1269.05 430.28 L 1275.02 432.43 L 1281.11 434.09 L 1287.32 435.26 L 1293.33 435.84 L 1299.17 435.86 L 1303.56 435.47 L 1307.67 434.72 L 1311.54 433.62 L 1315.19 432.17 L 1318.65 430.31 L 1321.75 428.05 L 1324.52 425.37 L 1326.99 422.25 L 1332.64 414.06 L 1335.18 410.15 L 1337.46 406.14 L 1339.41 401.90 L 1341.08 397.01 L 1342.29 391.72 L 1343.14 385.16 L 1343.47 378.08 L 1343.28 369.12 L 1342.56 359.47 L 1341.14 347.38 L 1340.24 343.25 L 1338.80 339.40 L 1336.80 335.79 L 1334.22 332.38 L 1331.25 329.33 L 1327.82 326.47 L 1323.88 323.81 L 1319.39 321.34 L 1313.20 318.62 L 1306.33 316.29 L 1298.72 314.36 L 1290.98 312.98 L 1282.83 312.04 L 1274.22 311.57 L 1265.60 311.59 L 1256.85 312.08 L 1247.96 313.07 L 1239.13 314.55 L 1230.47 316.52 L 1221.96 318.98 L 1213.63 321.97 L 1205.75 325.45 L 1198.28 329.41 L 1192.88 332.77 L 1187.88 336.40 L 1183.24 340.30 L 1178.95 344.47 L 1175.01 348.98 L 1171.55 353.78 L 1168.56 358.87 L 1166.01 364.28 L 1160.04 379.59 L 1154.72 394.60 L 1150.04 409.32 L 1145.96 423.75 L 1142.48 437.92 L 1139.58 451.83 L 1137.24 465.50 L 1135.44 478.94 L 1134.18 492.17" fill="none" group-id="1,2,3" id="路径-5" node-id="9" stroke="#555555" stroke-dasharray="43.72627 43.72627" stroke-linecap="butt" stroke-opacity="0.2" stroke-width="8.994358" target-height="239.7951" target-width="284.06567" target-x="1134.1833" target-y="252.37054"></path></g><path d="M 461.08 201.26 L 409.12 764.21 L 409.12 764.21 L 1180.82 962.27 L 1184.19 962.81 L 1187.42 962.76 L 1190.56 962.15 L 1193.55 961.00 L 1196.25 959.41 L 1198.69 957.34 L 1200.74 954.88 L 1202.33 952.08 L 1203.49 948.87 L 1203.91 946.71 L 1204.07 944.52 L 1215.73 173.99 L 1215.55 170.57 L 1214.94 167.34 L 1213.92 164.27 L 1212.51 161.36 L 1210.78 158.70 L 1208.71 156.28 L 1206.35 154.13 L 1203.74 152.32 L 1200.87 150.82 L 1197.84 149.71 L 1194.63 149.01 L 1191.21 148.72 L 1189.78 148.74 L 484.82 178.67 L 481.71 179.00 L 478.78 179.67 L 476.01 180.67 L 473.38 182.00 L 470.16 184.23 L 467.36 186.89 L 464.98 190.00 L 463.52 192.56 L 462.38 195.27 L 461.57 198.16 L 461.08 201.26 Z" fill="#ffffff" fill-rule="evenodd" group-id="1,2" id="路径-10" node-id="10" stroke="#555555" stroke-linecap="butt" stroke-width="9.309091" target-height="814.0929" target-width="806.6112" target-x="409.1222" target-y="148.7168"></path><path d="M 418.56 412.38 L 547.77 412.38 L 613.57 484.43 L 1055.52 484.43 L 1169.69 789.58 L 481.66 729.94 Z" fill="#3681fd" fill-rule="evenodd" group-id="1,2" id="矩形备份-2" node-id="11" stroke="none" target-height="377.20624" target-width="751.12854" target-x="418.5631" target-y="412.3786"></path><path d="M 1302.40 211.10 L 1387.75 259.69 L 1458.41 211.09 L 1412.41 273.78 L 1495.93 307.56 L 1563.84 131.21 Z" fill="#3681fd" fill-rule="evenodd" group-id="1,2,4" id="路径-4" node-id="12" stroke="none" target-height="176.34915" target-width="261.44397" target-x="1302.3955" target-y="131.20853"></path><path d="M 323.66 947.72 L 1189.18 967.53 L 1192.21 967.38 L 1195.06 966.87 L 1197.74 966.01 L 1200.28 964.80 L 1203.40 962.69 L 1206.06 960.15 L 1208.30 957.14 L 1209.63 954.65 L 1210.61 952.01 L 1211.25 949.19 L 1211.54 946.17 L 1211.48 943.90 L 1211.17 941.65 L 1137.12 545.92 L 1137.12 545.92 L 553.80 544.05 L 417.85 378.20 L 181.36 363.49 L 315.11 940.75 L 315.80 942.68 L 316.82 944.32 L 318.19 945.70 L 319.83 946.76 L 321.64 947.43 L 323.66 947.72 Z" fill="#ffffff" fill-rule="evenodd" group-id="1,2" id="路径-7" node-id="13" stroke="#555555" stroke-linecap="butt" stroke-width="9.309091" target-height="604.03784" target-width="1030.184" target-x="181.3575" target-y="363.49078"></path><path d="M 339.90 472.48 L 491.02 475.24 L 551.02 548.52 L 941.92 548.52 L 1042.31 762.66 L 428.19 746.71 Z" fill="#eff0f9" fill-rule="evenodd" group-id="1,2" id="矩形备份-2" node-id="14" stroke="none" target-height="290.18347" target-width="702.4082" target-x="339.90186" target-y="472.47754"></path><path d="M 722.23 839.60 L 719.65 842.47 L 717.11 845.72 L 714.60 849.40 L 712.93 852.33 L 711.54 855.36 L 710.44 858.52 L 709.63 861.76 L 709.13 865.07 L 708.92 868.44 L 709.20 873.40 L 710.07 878.08 L 711.54 882.52 L 713.56 886.74 L 716.06 890.59 L 719.03 894.10 L 722.42 897.20 L 726.16 899.83 L 730.27 901.99 L 734.62 903.60 L 739.23 904.61 L 744.12 905.02 L 746.63 904.92 L 750.73 904.19 L 754.85 902.84 L 759.02 900.85 L 762.97 898.41 L 766.76 895.57 L 770.39 892.30 L 773.75 888.75 L 776.72 885.05 L 779.34 881.20 L 781.60 877.13 L 783.29 873.22 L 784.45 869.44 L 785.20 865.08 L 785.44 860.98 L 785.19 857.13 L 784.48 853.46 L 783.32 849.86 L 781.81 846.52 L 779.95 843.42 L 777.72 840.52 L 775.18 837.87 L 772.42 835.52 L 769.41 833.44 L 766.13 831.64 L 762.71 830.17 L 759.18 829.05 L 755.52 828.27 L 751.71 827.84 L 747.90 827.80 L 744.10 828.16 L 740.28 828.94 L 736.42 830.15 L 732.76 831.75 L 729.19 833.84 L 725.68 836.44 L 722.23 839.60 Z M 773.86 866.77 L 773.01 869.50 L 771.72 872.41 L 769.95 875.51 L 766.81 879.89 L 763.06 884.07 L 760.29 886.64 L 757.46 888.86 L 754.57 890.77 L 751.51 892.35 L 748.62 893.38 L 745.86 893.91 L 743.94 893.99 L 740.62 893.70 L 737.49 893.00 L 734.52 891.88 L 731.71 890.39 L 729.15 888.57 L 726.82 886.41 L 724.78 883.98 L 723.06 881.31 L 721.66 878.39 L 720.65 875.31 L 720.04 872.07 L 719.85 868.63 L 720.14 865.14 L 720.91 861.75 L 722.13 858.50 L 723.79 855.43 L 726.96 850.93 L 730.07 847.34 L 732.96 844.74 L 735.87 842.68 L 738.84 841.10 L 741.87 839.97 L 745.07 839.22 L 748.20 838.85 L 751.28 838.85 L 754.34 839.23 L 758.31 840.27 L 761.96 841.83 L 765.32 843.92 L 767.61 845.83 L 769.59 847.94 L 771.27 850.28 L 772.67 852.86 L 773.69 855.58 L 774.30 858.47 L 774.49 861.55 L 774.24 864.87 L 773.86 866.77 Z" fill="#555555" fill-rule="nonzero" group-id="1,2" id="路径-3备份" node-id="15" stroke="none" target-height="77.22308" target-width="76.51288" target-x="708.9241" target-y="827.7972"></path><path d="M 900.24 835.76 L 895.74 835.78 L 891.10 836.28 L 886.64 837.32 L 882.32 838.91 L 878.22 841.00 L 874.40 843.57 L 870.85 846.64 L 868.16 849.58 L 865.84 852.65 L 863.88 855.87 L 862.27 859.25 L 860.64 863.97 L 859.63 868.77 L 859.24 873.68 L 859.47 878.61 L 860.31 883.43 L 861.79 888.20 L 863.29 891.62 L 865.13 894.89 L 867.35 898.03 L 869.94 901.04 L 871.88 902.87 L 874.82 905.11 L 878.08 907.06 L 881.68 908.75 L 885.42 910.11 L 889.32 911.19 L 893.41 912.00 L 899.60 912.69 L 905.78 912.76 L 911.86 912.24 L 917.50 911.15 L 921.13 910.07 L 924.38 908.78 L 927.28 907.28 L 931.05 904.68 L 934.21 901.88 L 936.82 898.87 L 938.92 895.62 L 940.61 892.09 L 941.85 888.46 L 942.64 884.70 L 942.98 880.78 L 942.91 876.85 L 942.44 872.94 L 941.58 869.02 L 940.30 865.07 L 938.68 861.28 L 936.72 857.64 L 934.41 854.15 L 931.73 850.79 L 928.77 847.71 L 925.52 844.94 L 921.97 842.45 L 918.09 840.25 L 914.05 838.48 L 909.75 837.13 L 905.16 836.22 L 900.24 835.76 Z M 921.39 897.10 L 918.78 898.38 L 915.69 899.45 L 912.07 900.27 L 908.38 900.77 L 904.52 900.99 L 900.48 900.92 L 896.46 900.54 L 892.62 899.86 L 888.93 898.89 L 885.37 897.56 L 882.30 895.94 L 879.68 894.05 L 878.15 892.60 L 875.86 889.85 L 874.03 886.93 L 872.62 883.82 L 871.62 880.55 L 871.05 877.22 L 870.91 873.82 L 871.19 870.43 L 871.90 867.11 L 873.03 863.84 L 874.58 860.74 L 876.55 857.84 L 878.98 855.10 L 881.44 852.97 L 884.09 851.19 L 886.93 849.74 L 889.92 848.65 L 893.02 847.93 L 896.23 847.58 L 899.79 847.56 L 904.49 848.07 L 908.78 849.14 L 912.71 850.74 L 916.41 852.86 L 919.70 855.33 L 922.61 858.17 L 925.17 861.34 L 927.27 864.67 L 928.95 868.17 L 930.20 871.85 L 930.95 875.49 L 931.21 879.10 L 930.97 882.70 L 930.18 886.09 L 928.87 889.30 L 927.53 891.51 L 925.86 893.54 L 923.82 895.40 L 921.39 897.10 Z" fill="#555555" fill-rule="nonzero" group-id="1,2" id="路径-3备份-2" node-id="16" stroke="none" target-height="77.007935" target-width="83.7439" target-x="859.2392" target-y="835.7562"></path><path d="M 1053.28 846.79 L 1048.78 846.82 L 1044.14 847.32 L 1039.67 848.36 L 1035.35 849.94 L 1031.25 852.03 L 1027.44 854.60 L 1023.89 857.68 L 1021.19 860.61 L 1018.87 863.68 L 1016.92 866.90 L 1015.30 870.28 L 1013.67 875.01 L 1012.66 879.81 L 1012.27 884.72 L 1012.50 889.64 L 1013.35 894.47 L 1014.82 899.23 L 1016.32 902.65 L 1018.17 905.93 L 1020.38 909.06 L 1022.98 912.07 L 1024.91 913.91 L 1027.86 916.14 L 1031.11 918.10 L 1034.71 919.78 L 1038.45 921.14 L 1042.36 922.23 L 1046.44 923.04 L 1052.64 923.72 L 1058.81 923.80 L 1064.89 923.27 L 1070.53 922.18 L 1074.17 921.11 L 1077.42 919.81 L 1080.31 918.31 L 1084.08 915.72 L 1087.24 912.92 L 1089.85 909.90 L 1091.95 906.65 L 1093.65 903.13 L 1094.88 899.49 L 1095.67 895.73 L 1096.02 891.82 L 1095.94 887.89 L 1095.48 883.97 L 1094.61 880.05 L 1093.34 876.11 L 1091.72 872.31 L 1089.75 868.68 L 1087.44 865.18 L 1084.76 861.83 L 1081.80 858.75 L 1078.56 855.97 L 1075.00 853.49 L 1071.13 851.29 L 1067.09 849.51 L 1062.79 848.17 L 1058.20 847.26 L 1053.28 846.79 Z M 1074.42 908.13 L 1071.81 909.42 L 1068.73 910.48 L 1065.10 911.31 L 1061.41 911.81 L 1057.56 912.03 L 1053.52 911.95 L 1049.50 911.58 L 1045.65 910.90 L 1041.96 909.93 L 1038.40 908.59 L 1035.34 906.98 L 1032.71 905.09 L 1031.18 903.64 L 1028.90 900.89 L 1027.06 897.97 L 1025.65 894.85 L 1024.65 891.58 L 1024.09 888.26 L 1023.94 884.86 L 1024.22 881.46 L 1024.93 878.14 L 1026.07 874.87 L 1027.61 871.78 L 1029.58 868.87 L 1032.02 866.14 L 1034.48 864.01 L 1037.12 862.23 L 1039.96 860.78 L 1042.96 859.68 L 1046.05 858.96 L 1049.27 858.61 L 1052.82 858.59 L 1057.52 859.11 L 1061.81 860.17 L 1065.75 861.78 L 1069.44 863.89 L 1072.73 866.37 L 1075.64 869.20 L 1078.20 872.37 L 1080.31 875.70 L 1081.99 879.21 L 1083.23 882.89 L 1083.98 886.52 L 1084.25 890.14 L 1084.00 893.74 L 1083.22 897.12 L 1081.90 900.33 L 1080.56 902.55 L 1078.89 904.57 L 1076.86 906.44 L 1074.42 908.13 Z" fill="#555555" fill-rule="nonzero" group-id="1,2" id="路径-3备份-3" node-id="17" stroke="none" target-height="77.00787" target-width="83.74396" target-x="1012.2725" target-y="846.7915"></path><path d="M 405.40 140.01 L 458.19 151.75 L 432.42 218.50 L 425.29 216.59 L 419.72 215.53 L 415.42 215.16 L 411.08 215.31 L 405.05 216.06 L 396.92 217.62 L 405.40 140.01 Z M 276.23 174.45 L 328.06 130.94 L 362.10 212.72 L 322.78 233.70 L 276.23 174.45 Z M 235.65 259.26 L 308.49 257.51 L 303.71 269.61 L 301.11 287.90 L 235.33 302.92 L 235.65 259.26 Z" fill="#ff4848" fill-rule="evenodd" group-id="1,2,5" id="形状结合" node-id="18" stroke="none" target-height="171.98227" target-width="222.86378" target-x="235.32536" target-y="130.93951"></path><path d="M 1111.22 545.96 L 1178.10 545.96" fill="none" group-id="1,2" id="路径-2" node-id="19" stroke="#555555" stroke-linecap="butt" stroke-width="9.309091" target-height="0" target-width="66.8772" target-x="1111.2213" target-y="545.9646"></path><path d="M 1012.76 338.90 L 1013.49 348.18 L 570.22 382.90 L 569.50 373.62 Z" fill="#555555" fill-rule="nonzero" group-id="1,2" id="路径-14" node-id="20" stroke="none" target-height="43.995056" target-width="443.99304" target-x="569.4951" target-y="338.9021"></path></g></g></svg>