<svg xmlns:xlink="http://www.w3.org/1999/xlink" xmlns="http://www.w3.org/2000/svg" version="1.1" viewBox="0 0 1631 1024" height="1024px" width="1631px">
    <title>缺省页-无信号备份 2</title>
    <g fill-rule="evenodd" fill="none" stroke-width="1" stroke="none" id="页面-1">
        <g transform="translate(0.500000, 0.000000)" id="缺省页-无信号备份-2">
            <g transform="translate(108.500000, 79.002971)" id="缺省页-无信号备份">
                <g transform="translate(0.000000, 0.000000)" id="无信号">
                    <path fill="#EFF0F9" id="椭圆形备份-5" d="M885.866288,820.72577 C1176.44191,820.72577 1412,575.437534 1412,272.859163 C1412,-29.7192094 1116.85327,81.7488871 826.277648,81.7488871 C535.702022,81.7488871 0,14.1452974 0,316.723669 C0,619.302041 595.290663,820.72577 885.866288,820.72577 Z"></path>
                    <g transform="translate(279.996145, 0.000000)" id="编组-17">
                        <path transform="translate(467.154109, 722.524546) rotate(-8.000000) translate(-467.154109, -722.524546)" fill="#3681FD" stroke-width="6.11851295" stroke="#555555" id="路径-8备份" d="M352.62573,808.537854 L565.464608,838.450407 C578.84971,840.331561 591.225456,831.005768 593.10661,817.620665 C593.76479,812.93747 593.052018,808.163884 591.054498,803.877226 L504.934588,619.064769 C499.892612,608.244739 487.780305,602.640574 476.269404,605.801858 L376.817766,633.114661 L376.817766,633.114661 L332.634288,777.123345 C328.669636,790.045467 335.9311,803.734902 348.853223,807.699554 C350.086663,808.077987 351.348097,808.358294 352.62573,808.537854 Z"></path>
                        <path transform="translate(456.504104, 456.405475) rotate(-20.000000) translate(-456.504104, -456.405475)" fill="#F4F4F4" stroke-width="6.11851295" stroke="#555555" id="椭圆形备份-4" d="M288.087786,143.674989 C372.936194,143.824704 475.954286,174.902151 572.801215,230.829176 C669.756655,286.818865 748.772246,361.69728 791.027269,435.396278 C811.278286,470.717041 823.074804,505.745614 824.216843,538.25262 C825.278134,568.461222 817.10014,596.463015 797.914424,620.391452 C750.918044,679.005366 661.435124,739.04375 553.682611,760.709956 C470.538208,777.428116 376.495877,771.276765 282.645914,723.937667 C190.213039,677.313367 136.649352,601.928047 110.071114,521.432548 C74.7374347,414.420104 87.0023576,298.351806 119.186185,228.65445 C132.255367,200.351806 153.736979,179.523174 181.327232,165.58117 C210.869743,150.652644 247.375893,143.603153 288.087786,143.674989 Z"></path>
                        <g stroke-width="6.11851295" stroke="#555555" transform="translate(455.282748, 393.922667) rotate(-20.000000) translate(-455.282748, -393.922667) translate(99.585246, 133.893015)" id="路径-9备份">
                            <path fill="#FFFFFF" id="12" d="M75.8972336,9.91153168 C105.512551,-0.891880163 142.077934,-4.92314655 183.083836,-2.26844046 C263.008788,2.90586983 359.901096,33.4760588 454.795109,88.2939688 C549.688834,143.111713 624.594481,211.784746 669.035396,278.453386 C691.835725,312.65761 706.629024,346.357042 712.085829,377.420306 C717.415076,407.757441 713.86183,435.6087 700.306696,459.10009 C686.751256,482.592011 664.420995,499.596831 635.49777,510.147774 C605.882454,520.951185 569.31707,524.982452 528.311168,522.327746 C448.386216,517.153435 351.493908,486.583246 256.599895,431.765336 C161.706171,376.947592 86.8005226,308.274559 42.3596082,241.605919 C19.5592788,207.401695 4.76597978,173.702263 -0.690824855,142.639 C-6.02007238,112.301864 -2.46682549,84.4506053 11.0883078,60.9592156 C24.643748,37.4672939 46.9740088,20.4624743 75.8972336,9.91153168 Z"></path>
                            <path transform="translate(300.014689, 336.572429) rotate(6.000000) translate(-300.014689, -336.572429)" fill="#F4F4F4" d="M216.761186,410.916039 L320.425104,245.840016 C328.48993,232.997463 343.823961,226.69849 358.587653,230.163454 C370.415013,232.939276 377.752735,244.777495 374.976913,256.604856 C374.739862,257.614896 374.431651,258.6069 374.054588,259.573439 L300.244459,448.773802 L300.244459,448.773802 C283.51918,442.858235 269.937457,437.428099 259.499291,432.483394 C249.061125,427.538689 234.81509,420.349571 216.761186,410.916039 Z"></path>
                        </g>
                        <ellipse ry="140.732373" rx="180.324658" cy="191.784898" cx="476.289162" fill="#FFFFFF" id="椭圆形"></ellipse>
                        <path transform="translate(471.545789, 81.064083) rotate(2.000000) translate(-471.545789, -81.064083)" fill-rule="nonzero" fill="#3681FD" stroke-width="6.11851295" stroke="#555555" id="路径" d="M471.741969,7.63849644 C393.178521,7.63849644 318.646712,38.0051375 261.419197,93.0503488 L251.392891,102.694492 L261.131938,112.644522 L292.886785,145.142221 L302.032104,154.489669 L311.474261,145.553247 C355.228029,104.013659 412.062963,81.06466 471.550547,81.0647437 C531.03813,81.064827 587.96889,104.013986 631.627013,145.553695 L641.069195,154.489669 L650.204911,145.142722 L681.969244,112.645112 L691.698686,102.695108 L681.672353,93.0413793 C624.645785,38.0151241 550.008552,7.63849644 471.741969,7.63849644 Z"></path>
                        <path transform="translate(468.449518, 169.732622) rotate(2.000000) translate(-468.449518, -169.732622)" fill-rule="nonzero" fill="#3681FD" stroke-width="6.11851295" stroke="#555555" id="路径" d="M604.979965,166.459288 C567.490264,131.060113 519.084924,111.604033 468.647039,111.604033 L460.04625,111.604033 L459.95215,111.794488 C412.412565,113.815873 367.197286,133.081284 331.834353,166.458906 L321.68092,176.034686 L331.439159,186.113485 L363.038163,218.788913 L371.827165,227.861211 L381.105466,219.396322 C405.552752,196.999056 436.56827,184.604662 468.355429,184.604706 C500.3402,184.604751 531.355752,197.008723 555.793692,219.396567 L565.072016,227.861211 L573.860993,218.789208 L605.459906,186.113869 L615.218116,176.035098 L604.979965,166.449798 L604.979965,166.459288 Z"></path>
                        <path transform="translate(464.819393, 273.688840) rotate(2.000000) translate(-464.819393, -273.688840)" fill-rule="nonzero" fill="#3681FD" stroke-width="6.11851295" stroke="#555555" id="路径" d="M464.863524,325.69863 L474.510457,315.976937 L527.558802,262.590693 L538.203693,251.857612 L526.551029,242.135241 C511.082634,230.487645 493.999895,221.67905 464.765539,221.67905 C435.638807,221.67905 419.661677,231.305735 402.989891,242.135068 L391.435094,251.857407 L402.080015,262.590517 L455.128509,315.986536 L464.863524,325.69863 Z"></path>
                        <path fill="#3681FD" stroke-width="6.11851295" stroke="#555555" id="路径-8" d="M157.995161,803.625628 L375.89901,833.790786 C389.287973,835.644264 401.644413,826.292907 403.497892,812.903944 C403.651837,811.791897 403.729082,810.670576 403.729082,809.547924 L403.729082,730.369396 C403.729082,712.446517 393.93351,695.956815 378.19391,687.383916 L282.932108,635.497603 C260.823994,623.455961 233.187138,630.147688 219.036095,650.968779 L141.109641,765.625615 C133.511775,776.804709 136.414935,792.026442 147.59403,799.624308 C150.707234,801.740195 154.266543,803.109463 157.995161,803.625628 Z"></path>
                        <path fill="#FFFFFF" id="椭圆形" d="M290.279391,770.679881 C301.420988,770.679881 310.453038,759.835324 310.453038,746.457884 C310.453038,733.080445 298.177851,724.622001 287.036254,724.622001 C275.894656,724.622001 268.434544,734.273501 268.434544,747.650941 C268.434544,761.02838 279.137794,770.679881 290.279391,770.679881 Z"></path>
                        <path fill-rule="nonzero" fill="#555555" id="路径-3备份-2" d="M288.291957,722.046307 C287.351875,722.012808 286.393379,722.018366 285.416771,722.062829 C279.461618,722.330998 273.803217,724.777188 269.516727,728.937313 C259.851699,738.317419 259.591516,753.736765 268.935731,763.37725 L270.172116,764.541144 C279.117995,772.158893 296.6415,772.563872 305.563029,767.329941 C325.640204,755.551406 313.433619,722.942193 288.291957,722.046307 Z M301.798726,760.883216 C295.474318,764.593512 281.397442,764.268187 275.15541,758.956704 L274.179514,758.036754 C267.832363,751.482377 268.012673,740.796592 274.710649,734.29607 C277.681236,731.413056 281.602573,729.717817 285.730845,729.531915 C286.5096,729.496461 287.266138,729.492074 288.002237,729.518303 C306.22758,730.167737 314.857509,753.222111 301.798726,760.883216 Z"></path>
                        <path fill-rule="nonzero" fill="#E73443" id="路径-14" d="M223.228114,278.369152 C225.432602,276.163423 228.901423,275.993751 231.300424,277.860137 L231.876536,278.369152 L256.913296,303.419999 C259.301492,305.809539 259.301492,309.683748 256.913296,312.073288 C254.708808,314.279016 251.239987,314.448688 248.840986,312.582302 L248.264874,312.073288 L223.228114,287.02244 C220.839918,284.6329 220.839918,280.758691 223.228114,278.369152 Z M209.59356,316.614826 C211.597526,314.225249 215.038368,313.753725 217.590815,315.403805 L218.209073,315.860643 L245.332658,338.632839 C247.919911,340.805024 248.257381,344.66449 246.086418,347.253199 C244.082452,349.642776 240.64161,350.1143 238.089163,348.46422 L237.470905,348.007383 L210.34732,325.235186 C207.760067,323.063002 207.422597,319.203535 209.59356,316.614826 Z"></path>
                        <path transform="translate(688.157342, 433.143629) rotate(119.000000) translate(-688.157342, -433.143629)" opacity="0.5" fill-rule="nonzero" fill="#E73443" id="路径备份-9" d="M671.31152,416.302828 C673.517483,414.097523 676.987838,413.927096 679.387427,415.792107 L679.963665,416.300765 L705.005228,441.334863 C707.393882,443.722805 707.392958,447.595348 705.003165,449.984429 C702.797201,452.189735 699.326847,452.360161 696.927258,450.495151 L696.35102,449.986493 L671.309457,424.952394 C668.920803,422.564452 668.921727,418.69191 671.31152,416.302828 Z"></path>
                        <path transform="translate(661.995236, 404.641670) rotate(114.000000) translate(-661.995236, -404.641670)" opacity="0.5" fill-rule="nonzero" fill="#E73443" id="路径备份-10" d="M645.148257,387.801032 C647.354241,385.595877 650.824727,385.42556 653.224464,387.290569 L653.80074,387.799224 L678.844023,412.83308 C681.232841,415.220999 681.232031,419.09339 678.842215,421.482307 C676.63623,423.687462 673.165745,423.857779 670.766007,421.99277 L670.189731,421.484115 L645.146449,396.450259 C642.757631,394.06234 642.75844,390.189949 645.148257,387.801032 Z"></path>
                    </g>
                    <g transform="translate(811.550024, 153.509811) rotate(2.000000) translate(-811.550024, -153.509811) translate(611.420991, 8.896659)" id="wifi"></g>
                </g>
            </g>
            <g stroke-width="6" stroke="#555555" fill-rule="nonzero" fill="#FFFFFF" transform="translate(864.000000, 229.000000) rotate(7.000000) translate(-864.000000, -229.000000) translate(819.000000, 123.615385)" id="shandian备份">
                <polygon points="35.4130347 139.182536 15.9750293 152.53054 1.12775721e-14 -6.38802792e-14 67.8986679 25.79681 59.9894346 76.1949173 90 69.5771522 31.9745603 210.769231" id="路径"></polygon>
            </g>
        </g>
    </g>
</svg>