<svg xmlns:xlink="http://www.w3.org/1999/xlink" xmlns="http://www.w3.org/2000/svg" version="1.1" viewBox="0 0 1630 1024" height="1024px" width="1630px">
    <title>缺省页-联系人</title>
    <g fill-rule="evenodd" fill="none" stroke-width="1" stroke="none" id="页面-1">
        <g id="缺省页-联系人">
            <ellipse ry="427.56871" rx="426.184481" cy="464.805074" cx="1091.11266" fill="#EFF0F9" id="椭圆形"></ellipse>
            <path fill="#FFFFFF" stroke-width="9.90810731" stroke="#5B5B5D" id="矩形" d="M294.976878,314.825118 L294.976878,156.306131 L1196.80211,182.799456 C1261.07998,184.687776 1312.20801,237.339872 1312.20801,301.645471 L1312.20801,948.223017 L1312.20801,948.223017 L416.202318,965.771258 C350.54975,967.057062 296.285477,914.877489 294.999674,849.22492 C294.984477,848.448962 294.976878,847.672874 294.976878,846.896767"></path>
            <polygon points="377.827759 314.488989 1193.69564 345.569286 1232.10439 802.273375 377.827759 802.273375" fill="#EFF0F9" id="矩形"></polygon>
            <path fill="#FFFFFF" stroke-width="5.41226216" stroke="#5B5B5D" id="矩形" d="M696.853096,393.911786 C697.147391,393.911786 697.441647,393.918644 697.735624,393.932355 L697.735624,393.932355 L1123.54897,413.79206 C1128.60285,414.027771 1133.11795,416.22867 1136.36958,419.635486 C1139.6212,423.042301 1141.60936,427.655033 1141.60936,432.714409 L1141.60936,432.714409 L1141.60936,502.41129 C1141.60936,507.642232 1139.4891,512.377961 1136.06111,515.805955 C1132.63311,519.233949 1127.89738,521.354207 1122.66644,521.354207 C1122.37214,521.354207 1122.07789,521.347349 1121.78391,521.333638 L1121.78391,521.333638 L695.970567,501.473933 C690.916685,501.238222 686.401588,499.037323 683.149961,495.630507 C679.898334,492.223692 677.910178,487.61096 677.910178,482.551584 L677.910178,482.551584 L677.910178,412.854703 C677.910178,407.623761 680.030436,402.888032 683.45843,399.460038 C686.886424,396.032044 691.622153,393.911786 696.853096,393.911786 Z"></path>
            <path fill="#FFFFFF" stroke-width="5.41226216" stroke="#5B5B5D" id="矩形备份-21" d="M1122.66644,559.195329 C1127.89738,559.195329 1132.63311,561.315587 1136.06111,564.743581 C1139.4891,568.171575 1141.60936,572.907305 1141.60936,578.138247 L1141.60936,578.138247 L1141.60936,647.171773 C1141.60936,652.402715 1139.4891,657.138445 1136.06111,660.566439 C1132.63311,663.994432 1127.89738,666.114691 1122.66644,666.114691 C1122.46259,666.114691 1122.25876,666.1114 1122.05502,666.104821 L1122.05502,666.104821 L696.241671,652.353599 C691.132406,652.1886 686.549533,650.011303 683.243976,646.597273 C679.938419,643.183243 677.910178,638.53248 677.910178,633.420551 L677.910178,633.420551 L677.910178,578.138247 C677.910178,572.907305 680.030436,568.171575 683.45843,564.743581 C686.886424,561.315587 691.622153,559.195329 696.853096,559.195329 L696.853096,559.195329 Z"></path>
            <polygon points="675.204047 760.694181 1144.31549 760.694181 1144.31549 873.736226 675.204047 858.586734" transform="translate(909.759768, 817.215203) scale(-1, 1) translate(-909.759768, -817.215203)" fill="#3681FD" id="矩形备份-22"></polygon>
            <path fill-rule="nonzero" fill="#3681FD" id="形状" d="M294.976878,576.271551 C401.337307,576.271551 487.55947,654.858332 487.55947,751.80004 C430.078028,780.486197 365.88383,796.437049 294.976878,799.652597 C224.069925,802.868146 159.875728,795.693718 102.394286,778.129313 C102.394286,681.187606 188.616449,576.271551 294.976878,576.271551 Z M294.976878,586.914442 C232.731777,586.914442 182.316061,536.256698 182.316061,473.712778 C182.316061,411.168859 232.731777,360.511114 294.976878,360.511114 C357.221979,360.511114 407.637694,411.168859 407.637694,473.712778 C407.637694,536.256698 357.221979,586.914442 294.976878,586.914442 Z"></path>
            <polygon points="295.458086 273.699915 1397.31851 315.493374 1396.94539 325.394408 295.084969 283.600949" fill-rule="nonzero" fill="#5B5B5D" id="路径-2"></polygon>
            <path fill-rule="nonzero" fill="#555555" id="路径-3" d="M938.967259,220.64522 C937.991026,221.559597 937.038628,222.546273 936.109743,223.604713 C931.694537,228.635147 929.220517,235.08559 929.13577,241.787993 C928.939883,257.280147 941.299299,269.998334 956.741298,270.194857 L958.695218,270.129523 C972.172041,269.003206 986.783889,254.971849 989.813055,243.402707 C996.635545,217.34591 960.202113,200.755839 938.967259,220.64522 Z M981.489212,241.209083 C979.335341,249.435255 967.579186,260.724368 958.18193,261.513153 L956.641364,261.563803 C946.161172,261.425329 937.605713,252.621521 937.74131,241.897512 C937.799974,237.257961 939.512545,232.792823 942.568959,229.310519 C943.315247,228.460143 944.072461,227.675676 944.840365,226.956428 C959.827156,212.919224 984.586217,223.644349 981.778049,239.880907 L981.489212,241.209083 Z"></path>
            <g transform="translate(512.394545, 394.445666)" id="touxiang-3">
                <ellipse ry="54.1226216" rx="53.9474026" cy="54.1226216" cx="53.9474026" fill="#FFFFFF" id="椭圆形"></ellipse>
                <path fill-rule="nonzero" fill="#5B5B5D" id="形状" d="M53.9474026,56.8569415 C65.172396,56.8569415 74.3041178,47.6955603 74.3041178,36.4341085 C74.3041178,25.1726568 65.172396,16.0112755 53.9474026,16.0112755 C42.7224092,16.0112755 33.5906874,25.1726568 33.5906874,36.4341085 C33.5906874,47.6955603 42.7224092,56.8569415 53.9474026,56.8569415 Z M53.9474026,23.1571529 C61.25278,23.1571529 67.1954236,29.119098 67.1954236,36.448203 C67.1954236,43.777308 61.25278,49.7251586 53.9474026,49.7251586 C46.6420252,49.7251586 40.6993816,43.7632135 40.6993816,36.4341085 C40.6993816,29.1050035 46.6420252,23.1571529 53.9474026,23.1571529 L53.9474026,23.1571529 Z"></path>
                <path fill-rule="nonzero" fill="#5B5B5D" id="形状" d="M107.894805,54.1226216 C107.894805,24.2847075 83.688718,0 53.9474026,0 C24.2060872,0 0,24.2847075 0,54.1226216 C0,65.863284 3.83532315,77.3079634 10.8316269,86.6525722 L10.8035293,86.70895 L12.4050928,88.6398872 L15.6363175,92.5440451 L15.7627567,92.3326286 C25.8357483,102.494715 39.5052334,108.245243 53.9474026,108.245243 C68.3895718,108.245243 82.0590569,102.494715 92.1460973,92.3326286 L92.2725365,92.5440451 L95.5037612,88.6398872 L97.1053247,86.70895 L97.0772271,86.6525722 C104.059482,77.3079634 107.894805,65.863284 107.894805,54.1226216 Z M53.9474026,7.13178295 C79.7691021,7.13178295 100.786111,28.2170543 100.786111,54.1226216 C100.786111,63.4249471 98.0184969,72.5158562 92.9187815,80.1832276 C92.7782934,79.9859056 92.6237566,79.8026779 92.4832686,79.6194503 C92.3708781,79.478506 92.2584877,79.3234672 92.1460973,79.1825229 C91.9213165,78.9006342 91.6824868,78.6046512 91.457706,78.3227625 C91.3734131,78.210007 91.2891203,78.111346 91.1907787,77.9985906 C90.8676562,77.6180409 90.530485,77.2374912 90.2073625,76.8569415 C90.1511673,76.7864693 90.0809233,76.7300916 90.0247281,76.6596195 C89.743752,76.3495419 89.462776,76.0535588 89.1817999,75.7575758 C89.0553607,75.6307259 88.9289215,75.503876 88.816531,75.3770261 C88.5917502,75.1515152 88.3669694,74.9119098 88.1281397,74.6863989 C87.9876517,74.5454545 87.8471637,74.4045102 87.6926268,74.2635659 C87.4818948,74.0521494 87.2571139,73.8407329 87.0323331,73.6434109 L86.5687226,73.2205779 C86.3439418,73.0232558 86.1332097,72.8259338 85.9084289,72.6286117 C85.753892,72.4876674 85.5853064,72.346723 85.4307696,72.2198732 C85.2059887,72.0366455 84.9812079,71.8393235 84.756427,71.6560958 C84.6018902,71.5292459 84.4333046,71.3883016 84.2787678,71.2614517 C84.0399381,71.0782241 83.8151573,70.8949965 83.5763276,70.7117689 C83.4217908,70.584919 83.267254,70.4721635 83.0986683,70.3453136 C82.8457899,70.1479915 82.5929114,69.9647639 82.3259842,69.7815363 C82.1854961,69.6687808 82.0309593,69.5701198 81.8904713,69.4573643 C81.5813976,69.2459479 81.272324,69.0204369 80.9492015,68.8231149 C80.8508599,68.7526427 80.7525183,68.6821705 80.6541766,68.6257928 C80.2327126,68.3579986 79.8252973,68.0902044 79.4038332,67.8224101 C79.2914428,67.751938 79.1931012,67.6955603 79.0807107,67.6250881 C78.7575883,67.427766 78.4485146,67.2445384 78.1253921,67.0613108 C77.9708553,66.9767442 77.8022697,66.8780832 77.6477329,66.7935166 C77.3667568,66.6384778 77.0998295,66.483439 76.8188535,66.3424947 C76.6362191,66.2438337 76.4676334,66.1592671 76.284999,66.0606061 C76.0180717,65.9196617 75.7511445,65.7928118 75.4842172,65.6518675 C75.3015828,65.5532065 75.1189484,65.4686399 74.9222651,65.3840733 L74.1214834,65.0035236 C73.9388489,64.918957 73.7421657,64.8343904 73.5454824,64.7498238 C73.2785552,64.6370684 73.0116279,64.5102185 72.7306519,64.397463 C72.5480175,64.3128964 72.3513342,64.2424242 72.1686998,64.1578576 L71.3257716,63.8195913 L70.7778683,63.6081748 L69.8506473,63.2699084 C69.6961105,63.2135307 69.5275249,63.1571529 69.372988,63.1007752 C68.9655727,62.9598309 68.5722063,62.832981 68.164791,62.7061311 C68.094547,62.6779422 68.024303,62.6638478 67.9540589,62.6356589 C67.4763997,62.4947146 66.9987404,62.3537703 66.5210811,62.2269204 C66.380593,62.1846371 66.240105,62.1564482 66.099617,62.1141649 C65.7624457,62.0295983 65.4112256,61.9309373 65.0740544,61.8604651 L64.5261511,61.7336152 C64.2170774,61.6631431 63.9220526,61.5926709 63.6129789,61.5362932 C63.4162957,61.4940099 63.2055636,61.4517266 63.0088804,61.4235377 L62.1238058,61.2544045 C61.9130738,61.2121212 61.7023417,61.1839323 61.5056585,61.1557435 C61.2106336,61.1134602 60.9296576,61.0711769 60.6346327,61.0288936 L60.0024366,60.944327 C59.7074117,60.9020437 59.4123869,60.8738548 59.117362,60.845666 C58.90663,60.8174771 58.7099467,60.8033827 58.4992147,60.7751938 C58.190141,60.7470049 57.8810674,60.7188161 57.5719937,60.7047216 L56.981944,60.6624383 C56.6447727,60.6342495 56.3076015,60.620155 55.9704302,60.6060606 C55.8018446,60.5919662 55.6332589,60.5919662 55.4646733,60.5778717 C54.9589164,60.5637773 54.4531595,60.5496829 53.9474026,60.5496829 C53.4416457,60.5496829 52.9358888,60.5637773 52.4301319,60.5778717 C52.2615463,60.5778717 52.0929606,60.5919662 51.924375,60.6060606 C51.5872037,60.620155 51.2500325,60.6342495 50.9128612,60.6624383 L50.3228115,60.7047216 C50.0137378,60.7329105 49.7046642,60.7470049 49.3955905,60.7751938 C49.1848585,60.7892882 48.9881752,60.8174771 48.7774432,60.845666 C48.4824183,60.8738548 48.1873935,60.9161381 47.8923686,60.944327 L47.2601725,61.0288936 C46.9651476,61.0711769 46.6701228,61.1134602 46.3891467,61.1557435 C46.1784147,61.1839323 45.9676826,61.2262156 45.7709994,61.2544045 L44.8859248,61.4235377 C44.6892416,61.465821 44.4925583,61.4940099 44.2818263,61.5362932 C43.9727526,61.5926709 43.663679,61.6631431 43.3686541,61.7336152 L42.8207508,61.8604651 C42.4695307,61.9450317 42.1323595,62.0295983 41.7951882,62.1141649 C41.6547002,62.1564482 41.5142122,62.1846371 41.3737241,62.2269204 C40.8960648,62.3537703 40.4184055,62.4947146 39.9407462,62.6356589 C39.8705022,62.6497533 39.8002582,62.6779422 39.744063,62.7061311 C39.3366477,62.832981 38.9292324,62.9598309 38.5218172,63.1007752 C38.3672803,63.1571529 38.1986947,63.2135307 38.0441579,63.2699084 C37.7350842,63.3826638 37.4260106,63.4813249 37.1169369,63.6081748 L36.5690336,63.8195913 L35.7261054,64.1578576 C35.543471,64.2283298 35.3467877,64.3128964 35.1641533,64.397463 C34.8972261,64.5102185 34.61625,64.6229739 34.3493227,64.7498238 C34.1666883,64.8343904 33.9700051,64.918957 33.7873706,65.0035236 L32.9865889,65.3840733 C32.8039544,65.4686399 32.62132,65.5673009 32.4386856,65.6518675 C32.1717583,65.7787174 31.9048311,65.9196617 31.6379038,66.0606061 C31.4693182,66.1451727 31.2866837,66.2438337 31.1180981,66.3424947 C30.8371221,66.4975335 30.556146,66.6525722 30.2892188,66.807611 C30.1346819,66.8921776 29.9801451,66.9767442 29.8256083,67.0754052 C29.5024858,67.2586328 29.1793633,67.4559549 28.8562409,67.653277 C28.7578992,67.7096547 28.6455088,67.7801268 28.5471672,67.8365046 L27.282775,68.6398872 C27.1844333,68.696265 27.1001405,68.7667371 27.0017989,68.8372093 C26.6786764,69.0486258 26.3696028,69.2600423 26.0464803,69.4855532 C25.9059923,69.5842142 25.7514555,69.6969697 25.6109674,69.7956307 C25.358089,69.9788584 25.0911617,70.1761804 24.8382833,70.359408 C24.6837464,70.4721635 24.5292096,70.5990134 24.360624,70.7258633 C24.1217943,70.9090909 23.8829647,71.0923185 23.644135,71.2896406 C23.4895982,71.4164905 23.3210126,71.5433404 23.1664758,71.6842847 C22.9416949,71.8675123 22.7169141,72.0648344 22.4780844,72.248062 C22.3235476,72.3890063 22.1690108,72.5158562 22.0144739,72.6568006 C21.7896931,72.8541226 21.5649122,73.0514447 21.3541802,73.2487667 C21.1996434,73.3897111 21.0451065,73.5306554 20.9046185,73.6575053 C20.6798377,73.8689218 20.4550568,74.0803383 20.2443248,74.2917548 C20.1038367,74.4326991 19.9633487,74.559549 19.8228607,74.7004933 C19.584031,74.9260042 19.3592502,75.1656096 19.1344694,75.4052149 L18.7692005,75.7716702 C18.4741756,76.0817477 18.1931996,76.3777308 17.9122235,76.7019027 C17.8560283,76.7582805 17.7998331,76.8287526 17.7436379,76.8851304 C17.4064666,77.2656801 17.0833442,77.6462297 16.7461729,78.0267794 C16.6618801,78.1254405 16.5775873,78.2381959 16.4932944,78.3368569 C16.2544648,78.6187456 16.0156351,78.9147287 15.7908543,79.2107118 C15.6784639,79.3516561 15.5660735,79.4926004 15.453683,79.6476392 C15.2991462,79.8449612 15.1586582,80.0281889 15.0041213,80.2255109 C9.90440595,72.5440451 7.13676366,63.453136 7.13676366,54.1649049 C7.1086942,28.2170543 28.1257031,7.13178295 53.9474026,7.13178295 L53.9474026,7.13178295 Z M51.4186181,101.042988 C51.137642,101.028894 50.8707148,101.000705 50.5897387,100.972516 C50.0277866,100.930233 49.4658345,100.887949 48.9038824,100.831572 C48.5807599,100.789288 48.2435887,100.747005 47.9204662,100.704722 C47.4147093,100.634249 46.9230012,100.577872 46.4172443,100.493305 C46.0660242,100.436927 45.728853,100.366455 45.3776329,100.295983 C44.8999736,100.211416 44.4363631,100.12685 43.9587038,100.014094 C43.6074838,99.9436223 43.2562637,99.8449612 42.9050436,99.7603946 C42.4554819,99.6476392 41.9918714,99.5348837 41.5423098,99.4080338 C41.1910897,99.3093728 40.8398696,99.2107118 40.4886496,99.0979563 C40.0390879,98.9711064 39.603575,98.8301621 39.1540133,98.6751233 C38.8027932,98.5623679 38.465622,98.435518 38.1144019,98.3086681 C37.678889,98.1536293 37.2433761,97.9985906 36.821912,97.8294574 C36.4847408,97.688513 36.1335207,97.5475687 35.7963494,97.4066244 L34.5319572,96.8569415 C34.1947859,96.7019027 33.8716635,96.546864 33.5344922,96.3918252 C33.1130281,96.1945032 32.7056128,95.9830867 32.2981975,95.7716702 C31.9750751,95.602537 31.6519526,95.4334038 31.3288302,95.2501762 C30.9214149,95.0246653 30.5139996,94.7850599 30.1206331,94.5454545 C29.8115595,94.3622269 29.5024858,94.1789993 29.1934121,93.9816772 C28.7859969,93.7279774 28.3926304,93.4601832 27.9992639,93.2064834 C27.704239,93.0091614 27.4092142,92.8118393 27.1282381,92.6145173 C26.7208228,92.3326286 26.3415052,92.0366455 25.9481387,91.7406624 C25.6812114,91.5433404 25.4002354,91.3319239 25.1333081,91.1205074 C24.7258929,90.7963354 24.3325264,90.4721635 23.9391599,90.1338971 C23.7003303,89.9224806 23.4474518,89.7251586 23.2086222,89.5137421 C22.7871581,89.1472868 22.365694,88.7526427 21.9582787,88.372093 C21.7615955,88.1888654 21.5508634,88.0056378 21.3541802,87.8083157 C20.8343745,87.3009161 20.3145688,86.7653277 19.8088119,86.2297393 C19.7385679,86.1451727 19.6542751,86.0747005 19.584031,86.0042283 L19.5559334,85.9760395 C19.5699822,85.9478506 19.584031,85.9196617 19.6121287,85.8914729 C19.7104703,85.7364341 19.8228607,85.5954898 19.9212023,85.4545455 C20.0757391,85.243129 20.2162272,85.017618 20.370764,84.8062016 C20.4831544,84.6511628 20.5955448,84.5102185 20.7079353,84.3551797 C20.8624721,84.1578576 21.0170089,83.9464412 21.1715458,83.7491191 C21.2839362,83.5940803 21.4103754,83.453136 21.5227658,83.2980973 C21.6773027,83.1007752 21.8318395,82.9034531 21.9863763,82.7202255 C22.1128155,82.5651868 22.2392548,82.4242424 22.365694,82.2832981 C22.5202308,82.1000705 22.6888165,81.9168428 22.8433533,81.7336152 C22.9697925,81.5926709 23.0962317,81.4376321 23.2367198,81.2966878 C23.4053054,81.1134602 23.5598422,80.9302326 23.7284279,80.7610994 C23.8548671,80.620155 23.9953551,80.4792107 24.1358431,80.3382664 C24.3044288,80.1691332 24.4730144,79.9859056 24.6556488,79.8167724 C24.7961369,79.675828 24.9366249,79.5489782 25.0630641,79.4080338 C25.2456986,79.2389006 25.4142842,79.0697674 25.5969186,78.9006342 C25.7374067,78.7737844 25.8778947,78.6469345 26.0183827,78.5059901 C26.2010171,78.3368569 26.3836516,78.1818182 26.566286,78.012685 C26.706774,77.8858351 26.8472621,77.7589852 26.9877501,77.6462297 C27.1703845,77.491191 27.3670678,77.3220578 27.563751,77.167019 C27.704239,77.0542636 27.8447271,76.9274137 27.9992639,76.8146582 C28.1959471,76.6596195 28.3926304,76.5045807 28.6033624,76.3495419 C28.7438504,76.2367865 28.8843385,76.124031 29.0388753,76.02537 L29.6710714,75.5602537 L30.0925355,75.2642706 C30.3173164,75.1092319 30.556146,74.9400987 30.7809268,74.7850599 L31.1602445,74.5313601 C31.4271718,74.3481325 31.7081478,74.1789993 31.9891239,74.0098661 C32.0734167,73.9534884 32.1717583,73.8971106 32.2560511,73.8407329 C33.0006377,73.3897111 33.7452242,72.9527837 34.5179084,72.5440451 C34.6302988,72.4876674 34.7426892,72.4312896 34.8550796,72.3608175 C35.1220069,72.2198732 35.3889342,72.0789288 35.6699102,71.9379845 C35.8103982,71.8675123 35.9508863,71.7970402 36.1054231,71.726568 C36.3583015,71.6138125 36.5971312,71.4869626 36.8500096,71.3742072 C37.0045465,71.303735 37.1731321,71.2332629 37.3276689,71.1627907 C37.5664986,71.0641297 37.8053282,70.9513742 38.0301091,70.8527132 L38.535866,70.6412967 C38.7746956,70.5426357 38.9994765,70.4580691 39.2383061,70.359408 C39.4068917,70.2889359 39.5895262,70.2325581 39.7721606,70.162086 C39.9969415,70.0775194 40.2357711,69.9929528 40.4746008,69.9083862 C40.6572352,69.8520085 40.8398696,69.7815363 41.0084553,69.7251586 C41.2332361,69.6546864 41.4720657,69.5701198 41.7108954,69.4996476 L42.2587987,69.3305144 C42.4835795,69.2600423 42.7224092,69.1895701 42.9612388,69.1331924 C43.1438733,69.0768147 43.3405565,69.0345314 43.5231909,68.9781536 C43.7620206,68.9217759 43.9868014,68.8513037 44.2256311,68.794926 C44.4082655,68.7526427 44.6049488,68.696265 44.7875832,68.6539817 C45.0264128,68.5976039 45.2652425,68.5553206 45.4900233,68.4989429 C45.6867066,68.4566596 45.869341,68.4143763 46.0660242,68.3861875 L46.7825132,68.2593376 C46.9791964,68.2311487 47.1618309,68.1888654 47.3585141,68.1606765 C47.5973438,68.1183932 47.8502222,68.0902044 48.0890518,68.0479211 C48.2716863,68.0197322 48.4683695,67.9915433 48.651004,67.9633545 L49.4096393,67.8787879 C49.5922737,67.8646934 49.7749082,67.8365046 49.9575426,67.8224101 C50.2244699,67.7942213 50.4913971,67.7801268 50.7583244,67.751938 C50.92691,67.7378436 51.1095444,67.7237491 51.2781301,67.7096547 L52.1632046,67.6673714 C52.3177415,67.6673714 52.4582295,67.653277 52.5987175,67.653277 C53.0342304,67.6391825 53.4837921,67.6250881 53.919305,67.6250881 C54.3688667,67.6250881 54.8043796,67.6391825 55.2398925,67.653277 C55.3944293,67.653277 55.5349173,67.6673714 55.6894541,67.6673714 L56.5745287,67.7096547 C56.7431143,67.7237491 56.9257488,67.7378436 57.0943344,67.751938 C57.3612617,67.7660324 57.6281889,67.7942213 57.8951162,67.8224101 C58.0777506,67.8365046 58.260385,67.8646934 58.4430195,67.8787879 L59.2016548,67.9633545 C59.3842893,67.9915433 59.5809725,68.0197322 59.7636069,68.0479211 C60.0024366,68.0902044 60.255315,68.1183932 60.4941447,68.1606765 C60.6908279,68.1888654 60.8734624,68.2311487 61.0701456,68.2593376 L61.7866345,68.3861875 C61.9833178,68.4284708 62.1659522,68.4707541 62.3626355,68.4989429 C62.6014651,68.5553206 62.8402947,68.5976039 63.0650756,68.6539817 C63.2617588,68.696265 63.4443933,68.7385483 63.6410765,68.794926 C63.8799061,68.8513037 64.104687,68.9076815 64.3435166,68.9781536 C64.5261511,69.0345314 64.7228343,69.0768147 64.9054688,69.1331924 C65.1442984,69.2036646 65.3690792,69.2600423 65.6079089,69.3305144 L66.1558122,69.4996476 C66.3946418,69.5701198 66.6194227,69.6546864 66.8582523,69.7251586 C67.0408868,69.7815363 67.2235212,69.8520085 67.4061556,69.9083862 C67.6449853,69.9929528 67.8697661,70.0775194 68.094547,70.162086 C68.2771814,70.2325581 68.445767,70.2889359 68.6284015,70.359408 C68.8672311,70.4439746 69.092012,70.5426357 69.3308416,70.6412967 L69.8365985,70.8527132 C70.0754282,70.9513742 70.3142578,71.0500352 70.5390387,71.1627907 C70.6935755,71.2332629 70.8621611,71.303735 71.016698,71.3742072 C71.2695764,71.4869626 71.508406,71.5997181 71.7612845,71.726568 C71.9017725,71.7970402 72.0563094,71.8675123 72.1967974,71.9379845 C72.4637246,72.0789288 72.7447007,72.2198732 73.0116279,72.3608175 C73.1240184,72.4171952 73.2364088,72.4735729 73.3487992,72.5440451 C74.1214834,72.9527837 74.8660699,73.3897111 75.6106565,73.8407329 C75.6949493,73.8971106 75.7932909,73.9534884 75.8775837,74.0098661 C76.1585598,74.1789993 76.425487,74.3622269 76.7064631,74.5313601 L77.0857807,74.7850599 C77.3246104,74.9400987 77.5493912,75.0951374 77.7882209,75.2642706 C77.9287089,75.3629316 78.0691969,75.4615927 78.1956362,75.5602537 L78.8278323,76.02537 C78.9683203,76.1381254 79.1088083,76.2367865 79.2492964,76.3495419 C79.4459796,76.5045807 79.6567116,76.6596195 79.8533949,76.8146582 C79.9938829,76.9274137 80.1343709,77.0542636 80.2889078,77.167019 C80.485591,77.3220578 80.6682254,77.491191 80.8649087,77.6462297 C81.0053967,77.7730796 81.1458847,77.8858351 81.2863728,78.012685 C81.4690072,78.1818182 81.6516416,78.3368569 81.8483249,78.5059901 L82.269789,78.8865398 C82.4524234,79.055673 82.6350578,79.2248062 82.8036435,79.3939394 C82.9441315,79.5207893 83.0705707,79.6617336 83.2110587,79.8026779 L83.7308644,80.324172 C83.8573037,80.4651163 83.9977917,80.6060606 84.1242309,80.7329105 L84.6299878,81.2825934 L85.0093055,81.7054264 C85.1778911,81.888654 85.332428,82.085976 85.5010136,82.2692037 C85.6274528,82.410148 85.753892,82.5651868 85.8662825,82.7061311 C86.0208193,82.9034531 86.1894049,83.1007752 86.3439418,83.2980973 C86.4563322,83.4390416 86.5827714,83.5940803 86.6951618,83.7350247 C86.8496987,83.9323467 87.0042355,84.1437632 87.1587723,84.3551797 C87.2711627,84.496124 87.3835532,84.6511628 87.4818948,84.7921071 C87.6364316,85.0035236 87.7909684,85.2290345 87.9455053,85.4545455 L88.2405301,85.8773784 C88.2545789,85.9055673 88.2826765,85.9337562 88.2967253,85.961945 L88.2686277,85.9901339 C88.1983837,86.0747005 88.1140909,86.1451727 88.0438469,86.2297393 C87.53809,86.7653277 87.0323331,87.3009161 86.5125274,87.8083157 C86.3158442,88.0056378 86.0910633,88.1888654 85.8943801,88.3861875 C85.4869648,88.7667371 85.0795495,89.1472868 84.6721342,89.5137421 C84.4192558,89.739253 84.1663773,89.9365751 83.9134989,90.1479915 C83.5341812,90.4721635 83.1408147,90.7963354 82.7474483,91.106413 L81.9045201,91.7406624 C81.5252024,92.0225511 81.1458847,92.3185342 80.7525183,92.5863284 C80.4574934,92.7977449 80.1484197,92.9950669 79.8393461,93.2064834 C79.4600284,93.4601832 79.0666619,93.713883 78.6732955,93.9675828 C78.350173,94.1649049 78.0410993,94.3622269 77.7179769,94.5454545 C77.3246104,94.7709655 76.9312439,95.0105708 76.5378774,95.2219873 C76.214755,95.4052149 75.8775837,95.5743481 75.5404124,95.7575758 C75.147046,95.9689922 74.7396307,96.1663143 74.3322154,96.3636364 C73.9950441,96.5327696 73.6438241,96.6878083 73.3066528,96.8428471 C72.8992375,97.0260747 72.4918222,97.2093023 72.0703582,97.3784355 C71.7191381,97.5193798 71.367918,97.6744186 71.016698,97.8012685 C70.5952339,97.9704017 70.1737698,98.1254405 69.7523057,98.2804792 C69.4010856,98.4073291 69.0498656,98.534179 68.6845967,98.6469345 C68.2490838,98.7878788 67.8135709,98.9288231 67.3921068,99.055673 C67.026838,99.1684285 66.6756179,99.2670895 66.310349,99.3657505 C65.8607873,99.4926004 65.4112256,99.5912615 64.9757128,99.7040169 C64.6244927,99.7885835 64.2592238,99.8872445 63.9080038,99.9577167 C63.4443933,100.056378 62.9807828,100.140944 62.5031235,100.225511 C62.1519034,100.295983 61.8006833,100.366455 61.4494633,100.422833 C60.9577552,100.5074 60.4660471,100.563777 59.9602902,100.634249 C59.6231189,100.676533 59.2999964,100.732911 58.9628252,100.761099 C58.4008731,100.817477 57.8529698,100.85976 57.2910177,100.902044 C57.0100416,100.916138 56.7290655,100.958421 56.4480895,100.972516 C55.6051613,101.014799 54.7622332,101.042988 53.919305,101.042988 C53.1044744,101.11346 52.2474975,101.085271 51.4186181,101.042988 L51.4186181,101.042988 Z"></path>
            </g>
            <g transform="translate(533.973506, 556.813531)" id="touxiang-3备份">
                <ellipse ry="54.1226216" rx="53.9474026" cy="54.1226216" cx="53.9474026" fill="#FFFFFF" id="椭圆形"></ellipse>
                <path fill-rule="nonzero" fill="#5B5B5D" id="形状" d="M53.9474026,56.8569415 C65.172396,56.8569415 74.3041178,47.6955603 74.3041178,36.4341085 C74.3041178,25.1726568 65.172396,16.0112755 53.9474026,16.0112755 C42.7224092,16.0112755 33.5906874,25.1726568 33.5906874,36.4341085 C33.5906874,47.6955603 42.7224092,56.8569415 53.9474026,56.8569415 Z M53.9474026,23.1571529 C61.25278,23.1571529 67.1954236,29.119098 67.1954236,36.448203 C67.1954236,43.777308 61.25278,49.7251586 53.9474026,49.7251586 C46.6420252,49.7251586 40.6993816,43.7632135 40.6993816,36.4341085 C40.6993816,29.1050035 46.6420252,23.1571529 53.9474026,23.1571529 L53.9474026,23.1571529 Z"></path>
                <path fill-rule="nonzero" fill="#5B5B5D" id="形状" d="M107.894805,54.1226216 C107.894805,24.2847075 83.688718,0 53.9474026,0 C24.2060872,0 0,24.2847075 0,54.1226216 C0,65.863284 3.83532315,77.3079634 10.8316269,86.6525722 L10.8035293,86.70895 L12.4050928,88.6398872 L15.6363175,92.5440451 L15.7627567,92.3326286 C25.8357483,102.494715 39.5052334,108.245243 53.9474026,108.245243 C68.3895718,108.245243 82.0590569,102.494715 92.1460973,92.3326286 L92.2725365,92.5440451 L95.5037612,88.6398872 L97.1053247,86.70895 L97.0772271,86.6525722 C104.059482,77.3079634 107.894805,65.863284 107.894805,54.1226216 Z M53.9474026,7.13178295 C79.7691021,7.13178295 100.786111,28.2170543 100.786111,54.1226216 C100.786111,63.4249471 98.0184969,72.5158562 92.9187815,80.1832276 C92.7782934,79.9859056 92.6237566,79.8026779 92.4832686,79.6194503 C92.3708781,79.478506 92.2584877,79.3234672 92.1460973,79.1825229 C91.9213165,78.9006342 91.6824868,78.6046512 91.457706,78.3227625 C91.3734131,78.210007 91.2891203,78.111346 91.1907787,77.9985906 C90.8676562,77.6180409 90.530485,77.2374912 90.2073625,76.8569415 C90.1511673,76.7864693 90.0809233,76.7300916 90.0247281,76.6596195 C89.743752,76.3495419 89.462776,76.0535588 89.1817999,75.7575758 C89.0553607,75.6307259 88.9289215,75.503876 88.816531,75.3770261 C88.5917502,75.1515152 88.3669694,74.9119098 88.1281397,74.6863989 C87.9876517,74.5454545 87.8471637,74.4045102 87.6926268,74.2635659 C87.4818948,74.0521494 87.2571139,73.8407329 87.0323331,73.6434109 L86.5687226,73.2205779 C86.3439418,73.0232558 86.1332097,72.8259338 85.9084289,72.6286117 C85.753892,72.4876674 85.5853064,72.346723 85.4307696,72.2198732 C85.2059887,72.0366455 84.9812079,71.8393235 84.756427,71.6560958 C84.6018902,71.5292459 84.4333046,71.3883016 84.2787678,71.2614517 C84.0399381,71.0782241 83.8151573,70.8949965 83.5763276,70.7117689 C83.4217908,70.584919 83.267254,70.4721635 83.0986683,70.3453136 C82.8457899,70.1479915 82.5929114,69.9647639 82.3259842,69.7815363 C82.1854961,69.6687808 82.0309593,69.5701198 81.8904713,69.4573643 C81.5813976,69.2459479 81.272324,69.0204369 80.9492015,68.8231149 C80.8508599,68.7526427 80.7525183,68.6821705 80.6541766,68.6257928 C80.2327126,68.3579986 79.8252973,68.0902044 79.4038332,67.8224101 C79.2914428,67.751938 79.1931012,67.6955603 79.0807107,67.6250881 C78.7575883,67.427766 78.4485146,67.2445384 78.1253921,67.0613108 C77.9708553,66.9767442 77.8022697,66.8780832 77.6477329,66.7935166 C77.3667568,66.6384778 77.0998295,66.483439 76.8188535,66.3424947 C76.6362191,66.2438337 76.4676334,66.1592671 76.284999,66.0606061 C76.0180717,65.9196617 75.7511445,65.7928118 75.4842172,65.6518675 C75.3015828,65.5532065 75.1189484,65.4686399 74.9222651,65.3840733 L74.1214834,65.0035236 C73.9388489,64.918957 73.7421657,64.8343904 73.5454824,64.7498238 C73.2785552,64.6370684 73.0116279,64.5102185 72.7306519,64.397463 C72.5480175,64.3128964 72.3513342,64.2424242 72.1686998,64.1578576 L71.3257716,63.8195913 L70.7778683,63.6081748 L69.8506473,63.2699084 C69.6961105,63.2135307 69.5275249,63.1571529 69.372988,63.1007752 C68.9655727,62.9598309 68.5722063,62.832981 68.164791,62.7061311 C68.094547,62.6779422 68.024303,62.6638478 67.9540589,62.6356589 C67.4763997,62.4947146 66.9987404,62.3537703 66.5210811,62.2269204 C66.380593,62.1846371 66.240105,62.1564482 66.099617,62.1141649 C65.7624457,62.0295983 65.4112256,61.9309373 65.0740544,61.8604651 L64.5261511,61.7336152 C64.2170774,61.6631431 63.9220526,61.5926709 63.6129789,61.5362932 C63.4162957,61.4940099 63.2055636,61.4517266 63.0088804,61.4235377 L62.1238058,61.2544045 C61.9130738,61.2121212 61.7023417,61.1839323 61.5056585,61.1557435 C61.2106336,61.1134602 60.9296576,61.0711769 60.6346327,61.0288936 L60.0024366,60.944327 C59.7074117,60.9020437 59.4123869,60.8738548 59.117362,60.845666 C58.90663,60.8174771 58.7099467,60.8033827 58.4992147,60.7751938 C58.190141,60.7470049 57.8810674,60.7188161 57.5719937,60.7047216 L56.981944,60.6624383 C56.6447727,60.6342495 56.3076015,60.620155 55.9704302,60.6060606 C55.8018446,60.5919662 55.6332589,60.5919662 55.4646733,60.5778717 C54.9589164,60.5637773 54.4531595,60.5496829 53.9474026,60.5496829 C53.4416457,60.5496829 52.9358888,60.5637773 52.4301319,60.5778717 C52.2615463,60.5778717 52.0929606,60.5919662 51.924375,60.6060606 C51.5872037,60.620155 51.2500325,60.6342495 50.9128612,60.6624383 L50.3228115,60.7047216 C50.0137378,60.7329105 49.7046642,60.7470049 49.3955905,60.7751938 C49.1848585,60.7892882 48.9881752,60.8174771 48.7774432,60.845666 C48.4824183,60.8738548 48.1873935,60.9161381 47.8923686,60.944327 L47.2601725,61.0288936 C46.9651476,61.0711769 46.6701228,61.1134602 46.3891467,61.1557435 C46.1784147,61.1839323 45.9676826,61.2262156 45.7709994,61.2544045 L44.8859248,61.4235377 C44.6892416,61.465821 44.4925583,61.4940099 44.2818263,61.5362932 C43.9727526,61.5926709 43.663679,61.6631431 43.3686541,61.7336152 L42.8207508,61.8604651 C42.4695307,61.9450317 42.1323595,62.0295983 41.7951882,62.1141649 C41.6547002,62.1564482 41.5142122,62.1846371 41.3737241,62.2269204 C40.8960648,62.3537703 40.4184055,62.4947146 39.9407462,62.6356589 C39.8705022,62.6497533 39.8002582,62.6779422 39.744063,62.7061311 C39.3366477,62.832981 38.9292324,62.9598309 38.5218172,63.1007752 C38.3672803,63.1571529 38.1986947,63.2135307 38.0441579,63.2699084 C37.7350842,63.3826638 37.4260106,63.4813249 37.1169369,63.6081748 L36.5690336,63.8195913 L35.7261054,64.1578576 C35.543471,64.2283298 35.3467877,64.3128964 35.1641533,64.397463 C34.8972261,64.5102185 34.61625,64.6229739 34.3493227,64.7498238 C34.1666883,64.8343904 33.9700051,64.918957 33.7873706,65.0035236 L32.9865889,65.3840733 C32.8039544,65.4686399 32.62132,65.5673009 32.4386856,65.6518675 C32.1717583,65.7787174 31.9048311,65.9196617 31.6379038,66.0606061 C31.4693182,66.1451727 31.2866837,66.2438337 31.1180981,66.3424947 C30.8371221,66.4975335 30.556146,66.6525722 30.2892188,66.807611 C30.1346819,66.8921776 29.9801451,66.9767442 29.8256083,67.0754052 C29.5024858,67.2586328 29.1793633,67.4559549 28.8562409,67.653277 C28.7578992,67.7096547 28.6455088,67.7801268 28.5471672,67.8365046 L27.282775,68.6398872 C27.1844333,68.696265 27.1001405,68.7667371 27.0017989,68.8372093 C26.6786764,69.0486258 26.3696028,69.2600423 26.0464803,69.4855532 C25.9059923,69.5842142 25.7514555,69.6969697 25.6109674,69.7956307 C25.358089,69.9788584 25.0911617,70.1761804 24.8382833,70.359408 C24.6837464,70.4721635 24.5292096,70.5990134 24.360624,70.7258633 C24.1217943,70.9090909 23.8829647,71.0923185 23.644135,71.2896406 C23.4895982,71.4164905 23.3210126,71.5433404 23.1664758,71.6842847 C22.9416949,71.8675123 22.7169141,72.0648344 22.4780844,72.248062 C22.3235476,72.3890063 22.1690108,72.5158562 22.0144739,72.6568006 C21.7896931,72.8541226 21.5649122,73.0514447 21.3541802,73.2487667 C21.1996434,73.3897111 21.0451065,73.5306554 20.9046185,73.6575053 C20.6798377,73.8689218 20.4550568,74.0803383 20.2443248,74.2917548 C20.1038367,74.4326991 19.9633487,74.559549 19.8228607,74.7004933 C19.584031,74.9260042 19.3592502,75.1656096 19.1344694,75.4052149 L18.7692005,75.7716702 C18.4741756,76.0817477 18.1931996,76.3777308 17.9122235,76.7019027 C17.8560283,76.7582805 17.7998331,76.8287526 17.7436379,76.8851304 C17.4064666,77.2656801 17.0833442,77.6462297 16.7461729,78.0267794 C16.6618801,78.1254405 16.5775873,78.2381959 16.4932944,78.3368569 C16.2544648,78.6187456 16.0156351,78.9147287 15.7908543,79.2107118 C15.6784639,79.3516561 15.5660735,79.4926004 15.453683,79.6476392 C15.2991462,79.8449612 15.1586582,80.0281889 15.0041213,80.2255109 C9.90440595,72.5440451 7.13676366,63.453136 7.13676366,54.1649049 C7.1086942,28.2170543 28.1257031,7.13178295 53.9474026,7.13178295 L53.9474026,7.13178295 Z M51.4186181,101.042988 C51.137642,101.028894 50.8707148,101.000705 50.5897387,100.972516 C50.0277866,100.930233 49.4658345,100.887949 48.9038824,100.831572 C48.5807599,100.789288 48.2435887,100.747005 47.9204662,100.704722 C47.4147093,100.634249 46.9230012,100.577872 46.4172443,100.493305 C46.0660242,100.436927 45.728853,100.366455 45.3776329,100.295983 C44.8999736,100.211416 44.4363631,100.12685 43.9587038,100.014094 C43.6074838,99.9436223 43.2562637,99.8449612 42.9050436,99.7603946 C42.4554819,99.6476392 41.9918714,99.5348837 41.5423098,99.4080338 C41.1910897,99.3093728 40.8398696,99.2107118 40.4886496,99.0979563 C40.0390879,98.9711064 39.603575,98.8301621 39.1540133,98.6751233 C38.8027932,98.5623679 38.465622,98.435518 38.1144019,98.3086681 C37.678889,98.1536293 37.2433761,97.9985906 36.821912,97.8294574 C36.4847408,97.688513 36.1335207,97.5475687 35.7963494,97.4066244 L34.5319572,96.8569415 C34.1947859,96.7019027 33.8716635,96.546864 33.5344922,96.3918252 C33.1130281,96.1945032 32.7056128,95.9830867 32.2981975,95.7716702 C31.9750751,95.602537 31.6519526,95.4334038 31.3288302,95.2501762 C30.9214149,95.0246653 30.5139996,94.7850599 30.1206331,94.5454545 C29.8115595,94.3622269 29.5024858,94.1789993 29.1934121,93.9816772 C28.7859969,93.7279774 28.3926304,93.4601832 27.9992639,93.2064834 C27.704239,93.0091614 27.4092142,92.8118393 27.1282381,92.6145173 C26.7208228,92.3326286 26.3415052,92.0366455 25.9481387,91.7406624 C25.6812114,91.5433404 25.4002354,91.3319239 25.1333081,91.1205074 C24.7258929,90.7963354 24.3325264,90.4721635 23.9391599,90.1338971 C23.7003303,89.9224806 23.4474518,89.7251586 23.2086222,89.5137421 C22.7871581,89.1472868 22.365694,88.7526427 21.9582787,88.372093 C21.7615955,88.1888654 21.5508634,88.0056378 21.3541802,87.8083157 C20.8343745,87.3009161 20.3145688,86.7653277 19.8088119,86.2297393 C19.7385679,86.1451727 19.6542751,86.0747005 19.584031,86.0042283 L19.5559334,85.9760395 C19.5699822,85.9478506 19.584031,85.9196617 19.6121287,85.8914729 C19.7104703,85.7364341 19.8228607,85.5954898 19.9212023,85.4545455 C20.0757391,85.243129 20.2162272,85.017618 20.370764,84.8062016 C20.4831544,84.6511628 20.5955448,84.5102185 20.7079353,84.3551797 C20.8624721,84.1578576 21.0170089,83.9464412 21.1715458,83.7491191 C21.2839362,83.5940803 21.4103754,83.453136 21.5227658,83.2980973 C21.6773027,83.1007752 21.8318395,82.9034531 21.9863763,82.7202255 C22.1128155,82.5651868 22.2392548,82.4242424 22.365694,82.2832981 C22.5202308,82.1000705 22.6888165,81.9168428 22.8433533,81.7336152 C22.9697925,81.5926709 23.0962317,81.4376321 23.2367198,81.2966878 C23.4053054,81.1134602 23.5598422,80.9302326 23.7284279,80.7610994 C23.8548671,80.620155 23.9953551,80.4792107 24.1358431,80.3382664 C24.3044288,80.1691332 24.4730144,79.9859056 24.6556488,79.8167724 C24.7961369,79.675828 24.9366249,79.5489782 25.0630641,79.4080338 C25.2456986,79.2389006 25.4142842,79.0697674 25.5969186,78.9006342 C25.7374067,78.7737844 25.8778947,78.6469345 26.0183827,78.5059901 C26.2010171,78.3368569 26.3836516,78.1818182 26.566286,78.012685 C26.706774,77.8858351 26.8472621,77.7589852 26.9877501,77.6462297 C27.1703845,77.491191 27.3670678,77.3220578 27.563751,77.167019 C27.704239,77.0542636 27.8447271,76.9274137 27.9992639,76.8146582 C28.1959471,76.6596195 28.3926304,76.5045807 28.6033624,76.3495419 C28.7438504,76.2367865 28.8843385,76.124031 29.0388753,76.02537 L29.6710714,75.5602537 L30.0925355,75.2642706 C30.3173164,75.1092319 30.556146,74.9400987 30.7809268,74.7850599 L31.1602445,74.5313601 C31.4271718,74.3481325 31.7081478,74.1789993 31.9891239,74.0098661 C32.0734167,73.9534884 32.1717583,73.8971106 32.2560511,73.8407329 C33.0006377,73.3897111 33.7452242,72.9527837 34.5179084,72.5440451 C34.6302988,72.4876674 34.7426892,72.4312896 34.8550796,72.3608175 C35.1220069,72.2198732 35.3889342,72.0789288 35.6699102,71.9379845 C35.8103982,71.8675123 35.9508863,71.7970402 36.1054231,71.726568 C36.3583015,71.6138125 36.5971312,71.4869626 36.8500096,71.3742072 C37.0045465,71.303735 37.1731321,71.2332629 37.3276689,71.1627907 C37.5664986,71.0641297 37.8053282,70.9513742 38.0301091,70.8527132 L38.535866,70.6412967 C38.7746956,70.5426357 38.9994765,70.4580691 39.2383061,70.359408 C39.4068917,70.2889359 39.5895262,70.2325581 39.7721606,70.162086 C39.9969415,70.0775194 40.2357711,69.9929528 40.4746008,69.9083862 C40.6572352,69.8520085 40.8398696,69.7815363 41.0084553,69.7251586 C41.2332361,69.6546864 41.4720657,69.5701198 41.7108954,69.4996476 L42.2587987,69.3305144 C42.4835795,69.2600423 42.7224092,69.1895701 42.9612388,69.1331924 C43.1438733,69.0768147 43.3405565,69.0345314 43.5231909,68.9781536 C43.7620206,68.9217759 43.9868014,68.8513037 44.2256311,68.794926 C44.4082655,68.7526427 44.6049488,68.696265 44.7875832,68.6539817 C45.0264128,68.5976039 45.2652425,68.5553206 45.4900233,68.4989429 C45.6867066,68.4566596 45.869341,68.4143763 46.0660242,68.3861875 L46.7825132,68.2593376 C46.9791964,68.2311487 47.1618309,68.1888654 47.3585141,68.1606765 C47.5973438,68.1183932 47.8502222,68.0902044 48.0890518,68.0479211 C48.2716863,68.0197322 48.4683695,67.9915433 48.651004,67.9633545 L49.4096393,67.8787879 C49.5922737,67.8646934 49.7749082,67.8365046 49.9575426,67.8224101 C50.2244699,67.7942213 50.4913971,67.7801268 50.7583244,67.751938 C50.92691,67.7378436 51.1095444,67.7237491 51.2781301,67.7096547 L52.1632046,67.6673714 C52.3177415,67.6673714 52.4582295,67.653277 52.5987175,67.653277 C53.0342304,67.6391825 53.4837921,67.6250881 53.919305,67.6250881 C54.3688667,67.6250881 54.8043796,67.6391825 55.2398925,67.653277 C55.3944293,67.653277 55.5349173,67.6673714 55.6894541,67.6673714 L56.5745287,67.7096547 C56.7431143,67.7237491 56.9257488,67.7378436 57.0943344,67.751938 C57.3612617,67.7660324 57.6281889,67.7942213 57.8951162,67.8224101 C58.0777506,67.8365046 58.260385,67.8646934 58.4430195,67.8787879 L59.2016548,67.9633545 C59.3842893,67.9915433 59.5809725,68.0197322 59.7636069,68.0479211 C60.0024366,68.0902044 60.255315,68.1183932 60.4941447,68.1606765 C60.6908279,68.1888654 60.8734624,68.2311487 61.0701456,68.2593376 L61.7866345,68.3861875 C61.9833178,68.4284708 62.1659522,68.4707541 62.3626355,68.4989429 C62.6014651,68.5553206 62.8402947,68.5976039 63.0650756,68.6539817 C63.2617588,68.696265 63.4443933,68.7385483 63.6410765,68.794926 C63.8799061,68.8513037 64.104687,68.9076815 64.3435166,68.9781536 C64.5261511,69.0345314 64.7228343,69.0768147 64.9054688,69.1331924 C65.1442984,69.2036646 65.3690792,69.2600423 65.6079089,69.3305144 L66.1558122,69.4996476 C66.3946418,69.5701198 66.6194227,69.6546864 66.8582523,69.7251586 C67.0408868,69.7815363 67.2235212,69.8520085 67.4061556,69.9083862 C67.6449853,69.9929528 67.8697661,70.0775194 68.094547,70.162086 C68.2771814,70.2325581 68.445767,70.2889359 68.6284015,70.359408 C68.8672311,70.4439746 69.092012,70.5426357 69.3308416,70.6412967 L69.8365985,70.8527132 C70.0754282,70.9513742 70.3142578,71.0500352 70.5390387,71.1627907 C70.6935755,71.2332629 70.8621611,71.303735 71.016698,71.3742072 C71.2695764,71.4869626 71.508406,71.5997181 71.7612845,71.726568 C71.9017725,71.7970402 72.0563094,71.8675123 72.1967974,71.9379845 C72.4637246,72.0789288 72.7447007,72.2198732 73.0116279,72.3608175 C73.1240184,72.4171952 73.2364088,72.4735729 73.3487992,72.5440451 C74.1214834,72.9527837 74.8660699,73.3897111 75.6106565,73.8407329 C75.6949493,73.8971106 75.7932909,73.9534884 75.8775837,74.0098661 C76.1585598,74.1789993 76.425487,74.3622269 76.7064631,74.5313601 L77.0857807,74.7850599 C77.3246104,74.9400987 77.5493912,75.0951374 77.7882209,75.2642706 C77.9287089,75.3629316 78.0691969,75.4615927 78.1956362,75.5602537 L78.8278323,76.02537 C78.9683203,76.1381254 79.1088083,76.2367865 79.2492964,76.3495419 C79.4459796,76.5045807 79.6567116,76.6596195 79.8533949,76.8146582 C79.9938829,76.9274137 80.1343709,77.0542636 80.2889078,77.167019 C80.485591,77.3220578 80.6682254,77.491191 80.8649087,77.6462297 C81.0053967,77.7730796 81.1458847,77.8858351 81.2863728,78.012685 C81.4690072,78.1818182 81.6516416,78.3368569 81.8483249,78.5059901 L82.269789,78.8865398 C82.4524234,79.055673 82.6350578,79.2248062 82.8036435,79.3939394 C82.9441315,79.5207893 83.0705707,79.6617336 83.2110587,79.8026779 L83.7308644,80.324172 C83.8573037,80.4651163 83.9977917,80.6060606 84.1242309,80.7329105 L84.6299878,81.2825934 L85.0093055,81.7054264 C85.1778911,81.888654 85.332428,82.085976 85.5010136,82.2692037 C85.6274528,82.410148 85.753892,82.5651868 85.8662825,82.7061311 C86.0208193,82.9034531 86.1894049,83.1007752 86.3439418,83.2980973 C86.4563322,83.4390416 86.5827714,83.5940803 86.6951618,83.7350247 C86.8496987,83.9323467 87.0042355,84.1437632 87.1587723,84.3551797 C87.2711627,84.496124 87.3835532,84.6511628 87.4818948,84.7921071 C87.6364316,85.0035236 87.7909684,85.2290345 87.9455053,85.4545455 L88.2405301,85.8773784 C88.2545789,85.9055673 88.2826765,85.9337562 88.2967253,85.961945 L88.2686277,85.9901339 C88.1983837,86.0747005 88.1140909,86.1451727 88.0438469,86.2297393 C87.53809,86.7653277 87.0323331,87.3009161 86.5125274,87.8083157 C86.3158442,88.0056378 86.0910633,88.1888654 85.8943801,88.3861875 C85.4869648,88.7667371 85.0795495,89.1472868 84.6721342,89.5137421 C84.4192558,89.739253 84.1663773,89.9365751 83.9134989,90.1479915 C83.5341812,90.4721635 83.1408147,90.7963354 82.7474483,91.106413 L81.9045201,91.7406624 C81.5252024,92.0225511 81.1458847,92.3185342 80.7525183,92.5863284 C80.4574934,92.7977449 80.1484197,92.9950669 79.8393461,93.2064834 C79.4600284,93.4601832 79.0666619,93.713883 78.6732955,93.9675828 C78.350173,94.1649049 78.0410993,94.3622269 77.7179769,94.5454545 C77.3246104,94.7709655 76.9312439,95.0105708 76.5378774,95.2219873 C76.214755,95.4052149 75.8775837,95.5743481 75.5404124,95.7575758 C75.147046,95.9689922 74.7396307,96.1663143 74.3322154,96.3636364 C73.9950441,96.5327696 73.6438241,96.6878083 73.3066528,96.8428471 C72.8992375,97.0260747 72.4918222,97.2093023 72.0703582,97.3784355 C71.7191381,97.5193798 71.367918,97.6744186 71.016698,97.8012685 C70.5952339,97.9704017 70.1737698,98.1254405 69.7523057,98.2804792 C69.4010856,98.4073291 69.0498656,98.534179 68.6845967,98.6469345 C68.2490838,98.7878788 67.8135709,98.9288231 67.3921068,99.055673 C67.026838,99.1684285 66.6756179,99.2670895 66.310349,99.3657505 C65.8607873,99.4926004 65.4112256,99.5912615 64.9757128,99.7040169 C64.6244927,99.7885835 64.2592238,99.8872445 63.9080038,99.9577167 C63.4443933,100.056378 62.9807828,100.140944 62.5031235,100.225511 C62.1519034,100.295983 61.8006833,100.366455 61.4494633,100.422833 C60.9577552,100.5074 60.4660471,100.563777 59.9602902,100.634249 C59.6231189,100.676533 59.2999964,100.732911 58.9628252,100.761099 C58.4008731,100.817477 57.8529698,100.85976 57.2910177,100.902044 C57.0100416,100.916138 56.7290655,100.958421 56.4480895,100.972516 C55.6051613,101.014799 54.7622332,101.042988 53.919305,101.042988 C53.1044744,101.11346 52.2474975,101.085271 51.4186181,101.042988 L51.4186181,101.042988 Z"></path>
            </g>
            <path fill-rule="nonzero" fill="#555555" id="路径-3备份" d="M1056.10727,225.756862 C1054.05644,227.852374 1052.1228,230.322395 1050.30004,233.163237 C1047.54559,237.455271 1046.04776,242.437463 1045.97735,247.542078 C1045.76971,262.595227 1057.76486,274.967087 1072.76928,275.1754 L1074.6795,275.102378 C1087.28942,273.895375 1100.69646,259.823875 1103.46301,248.297139 C1109.68285,222.382475 1075.85523,205.578648 1056.10727,225.756862 Z M1095.09593,246.27587 C1093.12538,254.486075 1082.45347,265.686891 1074.08999,266.491636 L1072.65014,266.545352 C1062.63659,266.399711 1054.44089,257.946627 1054.58276,247.661551 C1054.63087,244.173819 1055.65426,240.769732 1057.53639,237.836962 C1059.05371,235.47216 1060.62648,233.463107 1062.24825,231.806005 C1075.69069,218.070687 1097.92462,228.548338 1095.37587,244.863555 L1095.09593,246.27587 Z"></path>
            <path transform="translate(1196.974259, 250.996374) rotate(-315.000000) translate(-1196.974259, -250.996374)" fill-rule="nonzero" fill="#555555" id="路径-3备份-2" d="M1175.90968,230.605959 C1175.11556,231.345504 1174.33825,232.131912 1173.5779,232.964812 C1168.93897,238.041257 1166.31769,244.651315 1166.21271,251.539587 C1165.976,267.071023 1178.33406,279.854254 1193.81521,280.091733 L1195.77256,280.031841 C1209.2798,278.944949 1223.90365,264.980621 1226.91398,253.43595 C1233.68848,227.455608 1197.14776,210.827475 1175.90968,230.605959 Z M1218.58793,251.250768 C1216.45393,259.434702 1204.70639,270.652441 1195.28477,271.413957 L1193.73878,271.460411 C1183.21817,271.293981 1174.65389,262.435054 1174.81794,251.67159 C1174.89069,246.897938 1176.70727,242.317091 1179.92309,238.797964 C1180.52941,238.133803 1181.14293,237.513093 1181.76474,236.934018 C1197.16036,222.596475 1222.99426,234.352391 1218.58793,251.250768 Z"></path>
            <path fill-rule="nonzero" fill="#FF4848" id="？" d="M1176.90568,828.550445 L1186.0123,829.196105 C1194.94386,829.829353 1204.27032,833.541994 1214.00469,839.95381 L1216.66964,841.769123 L1222.97922,846.207305 L1222.97922,853.938238 C1222.97922,859.148803 1221.44231,864.31978 1218.21335,872.286675 C1215.81432,878.205857 1213.19673,883.146877 1210.43981,886.764679 L1209.24998,888.233147 L1203.16639,895.269168 L1194.20243,892.844062 C1184.51896,890.224296 1175.96693,886.403435 1168.51376,881.162893 L1165.77027,879.130715 L1158.87902,873.756228 L1160.22558,865.104157 C1161.36942,857.754628 1164.79494,849.446796 1170.46799,839.466376 L1172.2373,836.421358 L1176.90568,828.550445 Z M1196.68142,684.330389 C1235.26486,684.330389 1257.88984,704.48874 1257.88984,740.513161 C1257.88984,761.703787 1241.75881,783.722804 1210.3705,809.431683 L1207.06905,812.104502 L1200.07056,817.706567 L1191.87307,814.094811 C1181.86702,809.686211 1175.09065,803.008666 1172.98589,793.600206 L1172.6069,791.542139 L1171.43276,783.494983 L1179.97761,776.037805 L1184.54619,771.920472 L1188.74734,767.993853 L1192.5814,764.268875 C1193.18984,763.665455 1193.783,763.070893 1194.36088,762.485415 L1197.64495,759.083384 C1198.16176,758.535155 1198.66331,757.996465 1199.14962,757.467544 L1201.88444,754.413045 L1204.25352,751.603894 L1206.25721,749.051015 C1206.56073,748.647499 1206.84903,748.255116 1207.12213,747.874093 L1208.57835,745.726113 C1210.06455,743.383439 1210.80644,741.619761 1210.80644,740.513161 C1210.80644,733.250453 1208.5084,731.291308 1197.37044,731.291308 C1189.06753,731.291308 1179.3684,737.4432 1168.66459,751.139858 L1166.76533,753.635518 L1159.51943,763.404903 L1148.5469,758.198597 C1140.15759,754.217995 1134.1314,749.217778 1131.08362,742.362285 L1130.32671,740.445979 L1128.34754,734.748859 L1130.88658,729.279752 C1136.80146,716.539015 1145.58622,705.819081 1156.69591,697.824993 C1168.7919,688.942639 1182.40065,684.330389 1196.68142,684.330389 Z"></path>
        </g>
    </g>
</svg>