<svg xmlns:xlink="http://www.w3.org/1999/xlink" xmlns="http://www.w3.org/2000/svg" version="1.1" viewBox="0 0 1630 1024" height="1024px" width="1630px">
    <title>缺省页-无信号备份 3</title>
    <g fill-rule="evenodd" fill="none" stroke-width="1" stroke="none" id="页面-1">
        <g transform="translate(-4271.000000, -352.000000)" id="画板">
            <g transform="translate(4271.000000, 352.000000)" id="缺省页-无信号备份-3">
                <g transform="translate(113.000000, 100.000000)" id="编组-2">
                    <path transform="translate(701.805556, 415.352565) scale(1, -1) translate(-701.805556, -415.352565)" fill="#EFF0F9" id="椭圆形备份-13" d="M894.831021,679.842786 C1166.43027,679.842786 1403.61111,566.296354 1403.61111,216.601428 C1403.61111,-133.093498 1281.46256,60.2063214 1009.86331,60.2063214 C863.287949,60.2063214 469.51358,-18.1483433 240.606883,81.3682573 C45.357121,166.252592 0.450379168,428.402006 0.03560011,457.527646 C-2.00579033,600.873369 84.1935321,743.760742 143.367207,785.83186 C322.244129,913.009226 710.923196,679.842786 894.831021,679.842786 Z"></path>
                    <path fill="#FFFFFF" stroke-width="7.2" stroke="#555555" id="矩形" d="M61.940319,422.798283 C62.4435847,422.798283 62.9467278,422.813985 63.449014,422.845368 L63.449014,422.845368 L141.723157,427.735866 L141.723157,485.288093 L37.7460396,490.275283 L37.7460396,446.992562 C37.7460396,440.311496 40.4540766,434.262926 44.83238,429.884623 C49.2106834,425.50632 55.2592533,422.798283 61.940319,422.798283 Z"></path>
                    <path fill="#3681FD" stroke-width="6.94856986" stroke="#333333" id="矩形" d="M1072.04425,76.5592366 C1043.20058,206.828521 1028.80871,303.026309 1028.80871,365.14845 C1028.80871,427.101977 1043.09342,505.021206 1071.73207,598.898138 L1071.73207,598.898138 L337.671172,598.898138 L419.791667,338.134412 L419.791667,113.895416 Z"></path>
                    <path transform="translate(318.435013, 602.945623) scale(1, -1) translate(-318.435013, -602.945623)" fill-rule="nonzero" fill="#3681FD" stroke-width="7.2" stroke="#555555" id="路径-25" d="M260.215492,489.043777 C346.536925,479.388979 426.31625,508.434756 494.417762,562.65379 C497.79737,565.344465 501.141371,568.096222 504.439493,570.897538 L509.350983,575.135239 C510.163402,575.847238 510.972632,576.561973 511.778513,577.279266 L516.572327,581.612271 L521.278061,585.998007 L525.888009,590.427834 C535.766898,600.067315 544.917043,609.956409 552.985793,619.699556 L556.631762,624.184589 C575.059272,647.288836 587.029036,669.217124 587.759151,684.605718 L587.794559,686.074342 L504.411721,686.074342 C504.411721,691.645977 505.149251,694.708363 506.195928,697.337105 L506.42665,697.919096 L505.767311,696.684989 L505.029464,695.40192 C504.240276,694.064428 503.315589,692.593551 502.268116,691.012725 L500.013224,687.711419 C498.003996,684.849737 495.677241,681.72604 493.091817,678.448825 C479.784735,661.581112 462.32225,643.862417 442.569549,628.1363 C390.428333,586.624059 331.567121,565.194076 269.458707,572.140719 C267.489257,572.360996 265.542644,572.597452 263.618765,572.850196 L257.915222,573.657394 L252.347455,574.562963 L246.914839,575.567551 C171.801363,590.32793 136.238965,634.390349 132.523305,715.759183 L132.404131,718.681088 L49.0754666,715.667579 C53.8460419,583.026162 127.711229,503.863989 260.215492,489.043777 Z"></path>
                    <path fill="#FFFFFF" stroke-width="7.2" stroke="#555555" id="矩形备份-16" d="M141.723157,486.055654 L141.723157,505.45293 L37.7460396,508.308119 L37.7460396,490.532731 L141.723157,486.055654 Z"></path>
                    <path fill="#FFFFFF" stroke-width="7.2" stroke="#555555" id="矩形备份-12" d="M1145.09634,239.834393 C1147.9397,239.809065 1150.52415,240.938635 1152.40409,242.785379 C1154.28403,244.632123 1155.45946,247.196039 1155.48479,250.039403 C1155.48661,250.243877 1155.48234,250.448361 1155.47199,250.652581 L1155.47199,250.652581 L1144.17446,473.457098 C1144.03478,476.211788 1142.82207,478.666766 1140.95474,480.427501 C1139.08742,482.188236 1136.56548,483.254728 1133.80734,483.232445 L1133.80734,483.232445 L312.767046,476.599297 C309.923662,476.576326 307.358772,475.40302 305.510471,473.524611 C303.66217,471.646202 302.530458,469.06269 302.55343,466.219306 L302.55343,466.219306 L313.804229,256.892158 C313.950259,254.177781 315.138799,251.753998 316.97038,250.002756 C318.801961,248.251515 321.276583,247.172814 323.994778,247.148601 L323.994778,247.148601 Z"></path>
                    <path fill="#FFFFFF" stroke-width="7.2" stroke="#555555" id="矩形备份-14" d="M1126.21163,3.93511301 C1129.05431,3.86794618 1131.6551,4.95936307 1133.56201,6.77824247 C1135.46012,8.58872451 1136.67074,11.1199675 1136.74812,13.9467939 L1136.74812,13.9467939 L1136.752,195.165326 C1136.752,197.699863 1135.82969,200.0459 1134.28145,201.856784 C1132.7332,203.667669 1130.55902,204.943402 1128.05529,205.337332 L1128.05529,205.337332 L1043.96537,218.567769 L424.149703,218.567769 L319.409779,213.534167 C316.569581,213.397673 314.053589,212.122882 312.28177,210.172165 C310.515288,208.227324 309.488504,205.610623 309.617599,202.780266 L309.617599,202.780266 L320.439415,32.3783432 C320.608664,29.7137373 321.782348,27.3348876 323.581028,25.6064224 C325.379708,23.8779571 327.803383,22.7998762 330.472614,22.7368077 L330.472614,22.7368077 L796.68675,11.7211157 Z"></path>
                    <path fill-rule="nonzero" fill="#555555" id="路径-3备份" d="M393.304497,347.060371 C390.746635,349.965812 388.369003,353.357017 386.16303,357.22956 C382.829425,363.080359 381.199181,369.754281 381.458225,376.490804 C382.222128,396.356335 398.880329,411.84096 418.665359,411.076684 L421.17734,410.848113 C437.709697,408.383213 454.405735,388.89822 457.256657,373.505909 C463.666164,338.900574 417.934799,319.083146 393.304497,347.060371 Z M451.858549,371.193908 C449.385643,384.539407 433.202458,403.41924 419.850925,405.416246 L417.545218,405.623879 C401.466424,406.234421 387.607386,393.356249 386.972135,376.834276 C386.756717,371.231574 388.113146,365.680909 390.886945,360.814412 C393.123059,356.8904 395.477992,353.532775 397.941066,350.735984 C418.356885,327.554061 454.909863,342.498464 452.18922,368.903201 L451.858549,371.193908 Z"></path>
                    <path fill-rule="nonzero" fill="#555555" id="路径-3备份-5" d="M506.159734,361.148896 C504.901782,364.70311 504.067186,368.605243 503.644866,372.854934 C503.006045,379.275838 504.541875,385.719833 508.077501,391.452538 C518.503811,408.357878 543.375122,415.026487 563.629128,406.347293 L566.136889,405.131365 C582.175821,396.296444 590.134735,372.646098 585.645058,358.152389 C575.551268,325.567309 518.272871,326.924471 506.159734,361.148896 Z M577.983273,358.727928 C581.766696,370.945681 574.263418,393.227191 561.673176,400.16943 L559.43426,401.25268 C543.426581,408.101214 523.311421,402.711063 514.880912,389.041577 C512.022075,384.40617 510.780786,379.195384 511.298409,374.002645 C511.715288,369.815765 512.519522,366.059258 513.697672,362.73265 C523.463063,335.159212 567.551721,333.350006 577.238803,356.667744 L577.983273,358.727928 Z"></path>
                    <path fill-rule="nonzero" fill="#555555" id="路径-3备份-13" d="M992.559624,89.4090604 C991.301672,92.9632748 990.467076,96.8654078 990.044756,101.115098 C989.405935,107.536002 990.941765,113.979998 994.477391,119.712702 C1004.9037,136.618043 1029.77501,143.286652 1050.02902,134.607457 L1052.53678,133.39153 C1068.57571,124.556609 1076.53462,100.906263 1072.04495,86.4125531 C1061.95116,53.8274733 1004.67276,55.1846358 992.559624,89.4090604 Z M1064.38316,86.9880924 C1068.16659,99.2058454 1060.66331,121.487356 1048.07307,128.429594 L1045.83415,129.512845 C1029.82647,136.361378 1009.71131,130.971227 1001.2808,117.301741 C998.421965,112.666335 997.180676,107.455549 997.698299,102.262809 C998.115178,98.0759293 998.919412,94.3194223 1000.09756,90.9928147 C1009.86295,63.4193766 1053.95161,61.6101708 1063.63869,84.9279086 L1064.38316,86.9880924 Z"></path>
                    <path fill="#FFFFFF" stroke-width="7.2" stroke="#555555" id="矩形备份-13" d="M1049.6246,503.904698 L1147.11463,524.648575 C1149.64653,525.187311 1151.78159,526.624102 1153.23117,528.57122 C1154.68074,530.518339 1155.44482,532.975783 1155.23477,535.555826 L1155.23477,535.555826 L1137.78853,749.841381 C1137.57325,752.485568 1136.37098,754.83152 1134.55937,756.52601 C1132.74776,758.220499 1130.3268,759.263525 1127.67414,759.30186 L1127.67414,759.30186 L312.649801,771.079986 C309.806622,771.121073 307.215951,770.005845 305.325804,768.169549 C303.435657,766.333254 302.246033,763.775892 302.204946,760.932712 L302.204946,760.932712 L308.477124,542.907703 C308.536014,540.863813 309.196863,538.934199 310.316942,537.324041 C311.437022,535.713883 313.016332,534.423181 314.912142,533.657115 L314.912142,533.657115 L367.159017,512.544989 L1049.6246,503.904698 Z"></path>
                    <path fill="#F4F4F4" id="矩形备份-13" d="M366.301955,518.408196 L1045.0825,510.190734 C1046.23374,510.176797 1047.38225,510.305975 1048.50163,510.575298 L1146.39362,534.128206 L1146.39362,534.128206 L1140.352,620.245697 L1078.27978,604.304399 L1039.27495,537.732639 L372.8446,570.234891 L352.429007,584.933315 L316.677372,584.933315 L316.677372,541.81139 L366.301955,518.408196 Z"></path>
                    <path transform="translate(722.602272, 193.965278) scale(1, -1) translate(-722.602272, -193.965278)" fill="#F4F4F4" id="矩形备份-15" d="M317.121517,181.221629 L423.219087,175.445005 L1045.71755,175.445005 C1046.71106,175.445005 1047.70171,175.551544 1048.6725,175.762795 L1128.08303,193.043028 L1128.08303,193.043028 L1128.08303,212.485551 L318.995148,206.547924 L317.121517,181.221629 Z"></path>
                    <path fill-rule="nonzero" fill="#F62234" id="形状结合" d="M1012.60836,199.26895 C1017.07037,202.368641 1020.94695,206.251887 1024.04112,210.721394 L1200.48034,465.586341 C1214.28982,485.534009 1209.70935,512.376105 1190.24958,525.539839 C1183.14552,530.345443 1174.68348,532.837579 1165.97365,532.689289 L821.576923,526.825773 C797.718538,526.419574 778.051407,506.718585 777.649156,482.822385 C777.502309,474.098746 779.991679,465.623664 784.790673,458.509029 L952.748177,209.507599 C965.893808,190.018853 992.694124,185.434854 1012.60836,199.26895 Z M999.040467,433.704977 L997.428452,433.704977 C987.190102,433.704977 978.890278,442.209998 978.890278,452.701473 C978.890278,463.192948 987.190102,471.69797 997.428452,471.69797 L997.428452,471.69797 L999.040467,471.69797 C1009.27882,471.69797 1017.57864,463.192948 1017.57864,452.701473 C1017.57864,442.209998 1009.27882,433.704977 999.040467,433.704977 L999.040467,433.704977 Z M1025.57017,293.296091 L970.659395,293.296091 C970.341029,293.296091 970.023116,293.320088 969.708357,293.367879 C966.249027,293.893123 963.870479,297.123258 964.395722,300.582589 L964.395722,300.582589 L980.394753,405.954557 C981.382208,412.878674 987.17721,418.012219 994.006041,418.012219 L994.006041,418.012219 L1001.65687,418.012219 C1008.4857,418.012219 1014.2807,412.878674 1015.26816,405.954557 L1015.26816,405.954557 L1031.82876,300.615479 C1031.87993,300.290001 1031.90563,299.961027 1031.90563,299.631551 C1031.90563,296.132573 1029.06914,293.296091 1025.57017,293.296091 L1025.57017,293.296091 Z"></path>
                    <path fill-rule="nonzero" fill="#555555" id="路径-3备份-7" d="M867.178733,629.803028 C864.325404,633.044087 861.673124,636.827021 859.212332,641.146894 C855.493651,647.673538 853.675093,655.118387 853.96406,662.633068 C854.816203,684.793332 873.398648,702.066638 895.469112,701.214077 L898.271261,700.959103 C916.713325,698.209474 935.337977,676.473706 938.518219,659.303378 C945.668109,620.700666 894.654163,598.594062 867.178733,629.803028 Z M932.496558,656.72431 C929.737998,671.611392 911.68544,692.672096 896.791627,694.899784 L894.21958,695.131401 C876.283472,695.812469 860.82353,681.446696 860.114899,663.016216 C859.874598,656.766327 861.387712,650.574486 864.481922,645.145844 C866.976336,640.768556 869.603296,637.023081 872.350888,633.903223 C895.125005,608.04348 935.900339,624.71416 932.865426,654.168995 L932.496558,656.72431 Z"></path>
                    <path fill-rule="nonzero" fill="#555555" id="路径-3备份-8" d="M992.559624,646.824108 C991.301672,650.378322 990.467076,654.280455 990.044756,658.530145 C989.405935,664.95105 990.941765,671.395045 994.477391,677.12775 C1004.9037,694.03309 1029.77501,700.701699 1050.02902,692.022504 L1052.53678,690.806577 C1068.57571,681.971656 1076.53462,658.32131 1072.04495,643.8276 C1061.95116,611.24252 1004.67276,612.599683 992.559624,646.824108 Z M1064.38316,644.403139 C1068.16659,656.620892 1060.66331,678.902403 1048.07307,685.844641 L1045.83415,686.927892 C1029.82647,693.776425 1009.71131,688.386275 1001.2808,674.716789 C998.421965,670.081382 997.180676,664.870596 997.698299,659.677856 C998.115178,655.490976 998.919412,651.734469 1000.09756,648.407862 C1009.86295,620.834424 1053.95161,619.025218 1063.63869,642.342956 L1064.38316,644.403139 Z"></path>
                    <path fill="#FFFFFF" stroke-width="7.2" stroke="#555555" id="形状结合" d="M663.305,72.69 L658.524613,92.4901913 L697.925977,136.285083 L640.276991,149.659393 L491.243225,147.345044 L362.715483,144.826602 C359.872552,144.770896 357.32134,143.568139 355.494788,141.668575 C353.668236,139.769011 352.566343,137.172641 352.622048,134.32971 C352.627733,134.039576 352.645681,133.749812 352.675842,133.461195 L352.675842,133.461195 L358.062243,81.917694 C358.33625,79.2956649 359.578439,76.988941 361.411203,75.3377244 C363.243967,73.6865078 365.667306,72.6907984 368.303613,72.6907984 L368.303613,72.6907984 L663.305,72.69 Z"></path>
                    <line stroke-width="7.2" stroke="#555555" id="路径-26" y2="487.210157" x2="64.6449739" y1="422.184042" x1="71.5935437"></line>
                    <line stroke-width="7.2" stroke="#555555" id="路径-27" y2="486.939916" x2="112.750423" y1="425.926979" x1="102.078318"></line>
                </g>
            </g>
        </g>
    </g>
</svg>