<svg xmlns="http://www.w3.org/2000/svg" viewBox="0 0 980.76 1019.04"><defs><style>.cls-1{fill:#8bbee6;stroke:#fff;stroke-miterlimit:10;stroke-width:24.42px;}.cls-2{fill:#fff;}.cls-3{fill:#e5afa1;}.cls-4{fill:#f4d5c1;}.cls-5{fill:#1e2c3f;}.cls-6{fill:#dc6965;}.cls-7{fill:#f3f8ff;}.cls-8{fill:#eaf0f9;}.cls-9{fill:#f8fbff;}.cls-10{fill:#7f6c67;}.cls-11{fill:#5f3327;}.cls-12{fill:#7a4a3d;}.cls-13{fill:none;}</style></defs><title>小镇中老年</title><g id="图层_2" data-name="图层 2"><g id="图层_1-2" data-name="图层 1"><circle class="cls-1" cx="490.38" cy="528.66" r="477.85"/><path class="cls-2" d="M490.38,1019A490.51,490.51,0,0,1,299.5,76.82,490.5,490.5,0,0,1,681.26,980.5,487.43,487.43,0,0,1,490.38,1019Zm0-955.71a465.46,465.46,0,0,0-181.12,894.1A465.45,465.45,0,0,0,671.5,99.9,462.43,462.43,0,0,0,490.38,63.33Z"/><polygon class="cls-3" points="438.8 631.96 436.69 673.37 502.05 717.64 543.9 703.85 547.79 620.14 438.8 631.96"/><path class="cls-3" d="M732.06,389.68s58.11-4.92,46.29,43.33c0,0-20.68,80.76-64,99.48,0,0-9.85,3-23.63,1S732.06,389.68,732.06,389.68Z"/><path class="cls-3" d="M238,372s-58.11-4.92-46.29,43.34c0,0,20.68,80.76,64,99.47,0,0,9.85,3,23.64,1S238,372,238,372Z"/><path class="cls-4" d="M233.75,341.75S254.43,581.07,371.63,631.3c0,0,58.11,28.56,115.23,24.62,0,0,86.67-3.94,141.82-39.39,0,0,90.34-54.41,120.09-252.46,0,0-43.88-103.67-115.17-109,0,0,4.82,26.37-106.47,29.32L478.76,280H435.92l-31.11,6.55s-69.69-59.42-71.66-23c0,0-34.4,7.22-14.7-1.64C318.45,262,260.34,306.29,233.75,341.75Z"/><ellipse class="cls-5" cx="384.58" cy="454.9" rx="25.85" ry="17.93"/><ellipse class="cls-6" cx="494.09" cy="575.33" rx="41.86" ry="23.14"/><ellipse class="cls-5" cx="593.09" cy="454.9" rx="25.85" ry="17.93"/><path class="cls-7" d="M766.37,201.81s-80.76,104.4-230.46,103.41c0,0-172.35,3-236.37-142.8,0,0-40.58-29-54.37-79.21,0,0,47.32-35.14,135.13-35,0,0,74.85-62,239.32-45.3l-2.33,28.71,66.35,16.59s-3.94,18.71-4.92,24.62l51.68,34.42-21.61,11.87S750.61,158.48,766.37,201.81Z"/><path class="cls-7" d="M744.07,406.31s-12.53-42.07-30.89-64.64a26.47,26.47,0,0,0-28.56-8.52c-21.56,6.86-30.43-.82-32.93-10.06-16.75-61.83-111.33-23.81-152.1-28.6h0a111.83,111.83,0,0,0-40.27,3c-20.15,5.06-54.36-2.17-97.75-2.07a94.4,94.4,0,0,0-73.28,35.36A893,893,0,0,0,218.53,431s-26.85-131.84-18-181.09l-23.64-8.86s14.78-76.82,75.84-129c0,0,11.82-13.79-7.88-28.56,0,0-12.8-20.68,133.94-34.47,0,0,100.46-64,229.47-41.36l2,25.6s58.11,3,68,14.78L671.51,68.7s43.56,29.38,54.4,32.33L690,100.21s82.73,82.73,90.61,185.16l-18.12,4.53S751,377.75,744.07,406.31Z"/><path class="cls-8" d="M766.52,187.77s-89.69,97.51-239.39,96.63c0,0-172.35,2.65-236.37-127.91,0,0-41.7-35-55.49-80,0,0,40.67-26.4,136.25-22.38,0,0,74.85-55.57,239.32-40.58l-2.33,25.72,66.35,14.86s-3.94,16.76-4.93,22.06l27.3,14.45-1.69,27S750.76,149,766.52,187.77Z"/><path class="cls-9" d="M762.51,180.81s-80.76,94.68-230.46,93.78c0,0-172.35,2.68-236.37-129.51,0,0-40.58-26.29-54.37-71.84,0,0,47.32-31.86,135.13-31.78,0,0,76.79-50.56,241.26-35.38l-4.27,20.34L692.87,40S676,52.16,673.74,57l52.17,34.9-21,13.85S746.75,141.5,762.51,180.81Z"/><path class="cls-7" d="M429.38,575.33h22.85s43.16-29.74,83.71,0h26.82S496.07,482.47,429.38,575.33Z"/><path class="cls-10" d="M702,939.33,648,730.76s-11.4-25.51-63.29-45.11c14,9.27,36,32.18,42,61.79L649,947l1.59,19.86q3.07-1.11,6.17-2.27C672.1,958.9,689.56,947.63,702,939.33Z"/><path class="cls-10" d="M331.47,965c-2.42-9.27,26.76-207.71,32.27-224.81,2.39-7.44,3.83-16.84,9.05-26.21,5.75-12.65,18.1-27,44.36-35.06-8.43,1.61-21,5-39.56,11.6,0,0-38.41,13.72-56.85,59.3L261.21,932.59a462.52,462.52,0,0,0,70.62,33.16A2.6,2.6,0,0,1,331.47,965Z"/><path class="cls-11" d="M331.47,965a2.6,2.6,0,0,0,.36.76,465.19,465.19,0,0,0,294.37,9C581.77,959.5,491.34,925,446.8,882.37c-60.4-57.78-78.35-140.28-78.35-140.28l-.43-2.85A52.21,52.21,0,0,1,372.79,714c-5.22,9.37-6.66,18.77-9.05,26.21C358.23,757.28,329.05,955.72,331.47,965Z"/><path class="cls-12" d="M626.71,745.8c-14.45-72.22-74.85-67-74.85-67l-53.57,33.42-61.13-37.79c-75.84,11.26-69.07,64.95-69.14,64.78l.43,2.85s17.95,82.5,78.35,140.28c44.54,42.6,135,77.13,179.4,92.33q12.42-3.75,24.52-8.16L649,945.4Z"/><path class="cls-7" d="M414.16,679.87s-2.43,79.18,20.56,98.22c0,0,24.95,29.55,62.37,28.89,0,0,61.72-6.56,75.51-74.85,0,0,5.68-32.24,1.08-50.63,0,0-23.78-7.89-28.38-7.89-1.95,0-53.46,35.35-53.46,35.35s-39.07-28.37-55.16-35.59C428.49,673.52,414.16,679.87,414.16,679.87Z"/><path class="cls-10" d="M436.68,673.37s-3.28,84,49.25,108.86c0,0,59.31,9.15,59.37-108.62l-54.92,16.73Z"/><circle class="cls-7" cx="492.37" cy="730.31" r="9.52"/><circle class="cls-7" cx="492.37" cy="765.5" r="9.52"/><path class="cls-13" d="M433.78,678.34l57.55,31.17,1.3-.76-55.95-35.38c-7.43,1.1-13.6,3.71-19.53,5.54C431.12,676.23,433.78,678.34,433.78,678.34Z"/><path class="cls-13" d="M556.07,678.77a366.55,366.55,0,0,1,37,11.57A72,72,0,0,0,556.07,678.77Z"/><path class="cls-3" d="M449.19,511.31a2.65,2.65,0,0,0-4.43-2.83c-12.64,15.6-38.08,34.47-48.89,38.29C376.79,553.5,426.6,557.56,449.19,511.31Z"/><path class="cls-3" d="M534.12,511.31a2.65,2.65,0,0,1,4.43-2.83c12.64,15.6,38.08,34.47,48.89,38.29C606.52,553.5,556.71,557.56,534.12,511.31Z"/></g></g></svg>