<svg xmlns="http://www.w3.org/2000/svg" viewBox="0 0 980.76 992.35"><defs><style>.cls-1{fill:none;}.cls-2{fill:#8bbee6;stroke:#fff;stroke-miterlimit:10;stroke-width:24.42px;}.cls-3{fill:#fff;}.cls-4{fill:#5f3327;}.cls-5{fill:#e5afa1;}.cls-6{fill:#f4d5c1;}.cls-7{fill:#1e2c3f;}.cls-8{fill:#dc6965;}.cls-9{fill:#7a4a3d;}.cls-10{fill:#963b3b;}</style></defs><title>精致妈妈</title><g id="图层_2" data-name="图层 2"><g id="图层_1-2" data-name="图层 1"><path class="cls-1" d="M555.45,653.15a364.6,364.6,0,0,1,37,11.58A72,72,0,0,0,555.45,653.15Z"/><circle class="cls-2" cx="490.38" cy="501.97" r="477.85"/><path class="cls-3" d="M490.38,992.35A490.5,490.5,0,0,1,299.5,50.14,490.5,490.5,0,0,1,681.26,953.81,487.25,487.25,0,0,1,490.38,992.35Zm0-955.7A465.45,465.45,0,0,0,309.26,930.74,465.45,465.45,0,0,0,671.5,73.21,462.42,462.42,0,0,0,490.38,36.65Z"/><path class="cls-4" d="M178,248.59S87.68,649.84,233.75,689.22c87,23.46,47.53,61.82,30.29,71.28-7.91,4.34,58.51-.4,67.28,1.68,25.76,6.11,70.73,36.46,82.17,29.15,12.73-8.13,149.41-38.73,250.61-25.18,33.73,4.51,31-53.26,84.67-26.31,5.94,3-78.7-43-32.45-62,101.38-41.6,83.41-304.74,75.82-315-10.89-14.68-25.06-48.66-24.37-76.08s12.84-120.55-13.57-111S231.88,100.38,178,248.59Z"/><polygon class="cls-5" points="438.8 605.27 436.69 646.68 432.57 690.95 512.05 762.18 565.05 682.08 547.79 593.45 438.8 605.27"/><path class="cls-5" d="M732.06,363s58.11-4.92,46.29,43.34c0,0-20.68,80.76-64,99.47,0,0-9.85,2.95-23.63,1S732.06,363,732.06,363Z"/><path class="cls-5" d="M238,345.27s-58.11-4.93-46.29,43.33c0,0,20.68,80.76,64,99.47,0,0,9.85,3,23.64,1S238,345.27,238,345.27Z"/><path class="cls-6" d="M233.75,315.06s20.68,239.33,137.88,289.55c0,0,58.11,28.57,115.23,24.63,0,0,86.67-3.94,141.82-39.4,0,0,90.34-54.4,120.09-252.45,0,0-43.88-103.68-115.17-109,0,0,4.82,26.36-106.47,29.32l-48.37-4.37H435.92l-31.11,6.56s-69.69-59.43-71.66-23c0,0-34.4,7.22-14.7-1.64C318.45,235.29,260.34,279.61,233.75,315.06Z"/><ellipse class="cls-7" cx="393.59" cy="433.79" rx="38.98" ry="23.97"/><ellipse class="cls-8" cx="494.09" cy="548.64" rx="41.86" ry="23.14"/><path class="cls-7" d="M347.24,412.55,362.49,424c3.09,2.32,6.08-2.89,3-5.18l-15.25-11.47c-3.09-2.32-6.09,2.89-3,5.18Z"/><path class="cls-7" d="M426.34,401.92l-15,12.55c-3,2.48,1.3,6.7,4.24,4.24l15-12.54c3-2.49-1.3-6.71-4.24-4.25Z"/><path class="cls-7" d="M382.18,401.8l2.07,15c.53,3.8,6.31,2.18,5.79-1.6l-2.07-15c-.53-3.81-6.31-2.19-5.79,1.59Z"/><ellipse class="cls-7" cx="594.63" cy="433.79" rx="38.98" ry="23.97"/><path class="cls-7" d="M548.28,412.55,563.54,424c3.08,2.32,6.08-2.89,3-5.18l-15.25-11.47c-3.09-2.32-6.08,2.89-3,5.18Z"/><path class="cls-7" d="M627.38,401.92l-15,12.55c-3,2.48,1.3,6.7,4.24,4.24l15-12.54c3-2.49-1.3-6.71-4.25-4.25Z"/><path class="cls-7" d="M583.23,401.8l2.07,15c.52,3.8,6.3,2.18,5.78-1.6l-2.07-15c-.52-3.81-6.31-2.19-5.78,1.59Z"/><path class="cls-7" d="M332.84,381.78C360.15,364.1,398,364.57,427,377.09c3.5,1.52,6.56-3.65,3-5.18-22.14-9.57-46.23-12.4-69.84-7.11-10.37,2.32-21.32,6-30.33,11.8-3.23,2.09-.23,7.29,3,5.18Z"/><path class="cls-7" d="M541.13,381.78c27.31-17.68,65.15-17.21,94.11-4.69,3.51,1.52,6.57-3.65,3-5.18-22.14-9.57-46.22-12.4-69.83-7.11-10.38,2.32-21.33,6-30.33,11.8-3.23,2.09-.23,7.29,3,5.18Z"/><path class="cls-5" d="M739.6,375s-21.23,28.19-39.1,5.62c-6.69-8.44-3.2-77.43-13.3-74.13-21,6.87-22.19-39.5-24.63-48.74-16.31-61.84-32.9,60.37-72.59,55.58l-64.15-8.72c-13.13-1.59-32.65-37.05-58-33.81-20.08,2.56-23.65,56.6-65.89,56.7-27.76.06-79.78,47.36-97.17,69.59-18.08,23.09-65-66.61-83.7,30.62,0,0-68.79-96.13-5.13-204.45l-23-8.87s14.38-76.82,73.82-129c0,0-20.13-49.25,122.72-63l124.15-8.68c64.9-4.54,129,16.93,178.82,59.9h0S772.32,130.24,780,232.66L760.66,345.12S746.31,346.41,739.6,375Z"/><circle class="cls-3" cx="243.32" cy="488.07" r="17.89"/><circle class="cls-3" cx="716.32" cy="507.63" r="17.89"/><path class="cls-9" d="M735.34,361.93s-21.66,28.2-39.9,5.63c-6.81-8.45-3.26-77.43-13.56-74.13-21.41,6.86-22.64-39.51-25.13-48.74-16.64-61.84-33.57,60.37-74.06,55.57l-65.45-8.71c-13.4-1.59-33.32-37.06-59.16-33.82-20.49,2.57-24.14,56.6-67.23,56.7-28.32.07-81.4,47.37-99.14,69.59-18.44,23.1-66.28-66.61-85.4,30.63,0,0-97.76-81.22-32.8-189.54l4.09-23.78s14.67-76.82,75.32-129c0,0-20.54-49.24,125.21-63L504.79.6A255.54,255.54,0,0,1,687.24,60.49h0s81.49,56.71,89.31,159.14l2,147.93S742.19,333.37,735.34,361.93Z"/><path class="cls-9" d="M626.2,24.12s-19,190.67,24.52,213.18c0,0-.73,69.86,33.9,65.8s-5.45,100.75,53.82,68.5c0,0,22.62-22.06,45.69,6.17S799.48,2.33,626.2,24.12Z"/><path class="cls-6" d="M619.94,950c8.22-2.48,38.86-12.35,87.94-36.51L657.72,722.21a81.94,81.94,0,0,0-29.16-44.39c-9.3-7.18-26.72-14.58-43.81-23.25,0,0-22-7.89-26.59-7.89-.89,0-15.92,26.88-72,23.61-34.05-2-48.45-20.09-49.44-23.61-6.51.12-41.47,10.86-59.09,17.15,0,0-38.41,13.72-56.85,59.29L309.26,930.74C436.86,985.94,551.19,967.79,619.94,950Z"/><path class="cls-8" d="M391.61,659.08,438,728.4c3.76,6.15,39.36,30.67,76.28,25.06,25.88-3.93,41.08-10.36,58.88-36.32a76.49,76.49,0,0,0,11.78-27.83l6.49-31.44s36.88,14.89,47.46,29.41L621.57,831.92,655.42,937S523.68,997.2,364,950l40.16-120.21L351.8,679.84S368.75,663.66,391.61,659.08Z"/><path class="cls-10" d="M351.18,679.41l32.75,164.07-20.55,106c157.8,47.39,292-12.56,292-12.56s-3.2-10.61-12.21-36.37C507,917.27,351.18,679.41,351.18,679.41Z"/></g></g></svg>