<svg xmlns="http://www.w3.org/2000/svg" viewBox="0 0 980.76 1008.7"><defs><style>.cls-1{fill:#e3f0d5;}.cls-2{fill:#fff;}.cls-3{fill:#e5afa1;}.cls-4{fill:#f4d5c1;}.cls-5{fill:#1e2c3f;}.cls-6{fill:#dc6965;}.cls-7{fill:#d2a597;}.cls-8{fill:#a54d05;}.cls-9{fill:#964406;}.cls-10{fill:#b2540f;}.cls-11{fill:#3f5472;}.cls-12{fill:#22324f;}.cls-13{fill:#1a191e;}.cls-14{fill:none;}.cls-15{fill:#19283f;}</style></defs><title>新锐商务</title><g id="图层_2" data-name="图层 2"><g id="图层_1-2" data-name="图层 1"><circle class="cls-1" cx="490.38" cy="518.32" r="477.85"/><path class="cls-2" d="M490.38,1008.7A490.5,490.5,0,0,1,299.5,66.49,490.5,490.5,0,0,1,681.26,970.16,487.43,487.43,0,0,1,490.38,1008.7Zm0-955.7A465.45,465.45,0,0,0,309.26,947.09,465.45,465.45,0,0,0,671.5,89.56,462.42,462.42,0,0,0,490.38,53Z"/><polygon class="cls-3" points="435.24 629.17 437.19 670.54 498.49 714.86 540.34 701.07 544.23 617.36 435.24 629.17"/><path class="cls-3" d="M728.5,386.9s58.11-4.93,46.29,43.33c0,0-20.68,80.76-64,99.47,0,0-9.85,3-23.63,1S728.5,386.9,728.5,386.9Z"/><path class="cls-3" d="M234.45,369.17s-58.1-4.93-46.28,43.33c0,0,20.68,80.76,64,99.47,0,0,9.85,3,23.64,1S234.45,369.17,234.45,369.17Z"/><path class="cls-4" d="M230.19,339s20.68,239.32,137.88,289.55c0,0,58.11,28.56,115.23,24.62,0,0,86.67-3.94,141.82-39.4,0,0,90.34-54.4,120.09-252.45,0,0-43.88-103.68-115.17-109,0,0-6.71,42.35-118,45.31l-43.52,15.75-21.33-15.75-45.94-13.79s-69.69-59.43-71.66-23c0,0-34.4,7.23-14.7-1.64C314.89,259.19,256.78,303.51,230.19,339Z"/><ellipse class="cls-5" cx="371.02" cy="446.44" rx="25.85" ry="23.6"/><ellipse class="cls-6" cx="490.53" cy="572.54" rx="41.86" ry="23.14"/><ellipse class="cls-5" cx="608.91" cy="446.44" rx="25.85" ry="23.6"/><path class="cls-7" d="M742.43,400s-18.18-61.24-44.77-71.09c0,0-27,22.42-43.78,46.06,0,0-9.85-35.45-47.28-25.6,0,0,2,26.59-1,30.53s-113.26-40.38-113.26-40.38l-2,21.66s-133.55,40.05-177.87-49.57c0,0-45.43,38.61-93.69,119.37,0,0-28.79-138.14-19.93-187.38l-23.63-8.86S192,164.23,253,112c0,0,11.82-13.79-7.87-28.56,0,0-12.81-20.68,133.94-34.47,0,0,100.45-64,229.47-41.36l2,25.6s58.11,3,68,14.78L671.81,68.7s44.19,32.77,55,35.72l-36.52-4.21s76.94,74.61,84.82,177l-14.26,6.36S749.33,371.46,742.43,400Z"/><path class="cls-8" d="M740.51,403.52S720.39,336,693.8,326.15c0,0-27,22.42-43.78,46.06,0,0-9.85-35.46-47.28-25.61,0,0,2,26.59-1,30.53S488.5,336.75,488.5,336.75l-2,21.67S353,398.47,308.66,308.84c0,0-45.43,38.61-93.69,119.37,0,0-26.85-131.84-18-181.08l-23.64-8.86s14.78-76.82,75.84-129c0,0,11.82-13.79-7.88-28.56,0,0-12.81-20.69,133.94-34.47,0,0,100.46-64,229.47-41.37l2,25.61s58.11,2.95,68,14.77L668,65.91s43.56,29.38,54.4,32.34l-35.89-.82s82.73,82.73,90.61,185.15L759,287.11S747.4,375,740.51,403.52Z"/><path class="cls-9" d="M763,205.56S673.27,314.43,523.57,313.44c0,0-172.35,3-236.37-142.81,0,0-41.7-39-55.49-89.25,0,0,40.67-29.48,136.25-25,0,0,74.85-62,239.32-45.3L605,39.8,671.3,56.39S667.36,75.1,666.37,81l27.3,16.13L692,127.3S747.2,162.23,763,205.56Z"/><path class="cls-10" d="M759,196.24s-80.76,104.4-230.46,103.41c0,0-172.35,3-236.37-142.8,0,0-40.58-29-54.37-79.21,0,0,47.32-35.13,135.13-35,0,0,76.79-55.75,241.26-39L609.87,26l79.44,15s-16.86,13.37-19.13,18.75l52.17,38.48-21,15.26S743.19,152.91,759,196.24Z"/><path class="cls-11" d="M702,929,648,720.42s-3.06-19.17-54.95-38.77c14,9.26,27.69,25.84,33.62,55.46L649,936.71l1.59,19.85q3.07-1.11,6.17-2.27C672.1,948.57,689.56,937.29,702,929Z"/><path class="cls-11" d="M331.47,954.65c-2.42-9.26,26.76-207.71,32.27-224.81,2.39-7.44,3.83-16.84,9.05-26.21,5.75-12.65,18.1-27,44.36-35.06-8.43,1.61-21,5-39.56,11.61,0,0-52.79,17.37-56.85,59.29L261.21,922.25a462.52,462.52,0,0,0,70.62,33.16A2.6,2.6,0,0,1,331.47,954.65Z"/><path class="cls-12" d="M626.71,735.46c-14.45-72.22-84.49-74.91-84.49-74.91l-43.93,41.36-61.13-37.79c-75.84,11.27-69.07,65-69.14,64.78l.43,2.85S386.4,814.25,446.8,872c44.54,42.6,135,77.13,179.4,92.33q12.42-3.75,24.52-8.16L649,935.06Z"/><circle class="cls-13" cx="492.37" cy="719.97" r="9.52"/><circle class="cls-13" cx="492.37" cy="788.18" r="9.52"/><path class="cls-14" d="M433.78,668l57.55,31.17,1.3-.76-55.47-34.29a134.51,134.51,0,0,0-20,4.45C431.12,665.89,433.78,668,433.78,668Z"/><polygon class="cls-11" points="437.16 664.12 493.86 699.17 542.22 660.55 573.06 692.01 528.74 736.97 544.23 771.82 490.38 874.85 435.24 773.17 454.89 737.69 414.23 697.46 437.16 664.12"/><polygon class="cls-2" points="456.3 675.95 493.86 699.17 528.53 671.49 490.38 874.85 456.3 675.95"/><polygon class="cls-11" points="544.23 778.71 608.91 778.66 608.91 788.18 544.23 788.18 544.23 778.71"/><path class="cls-15" d="M331.47,954.65a2.6,2.6,0,0,0,.36.76,465.19,465.19,0,0,0,294.37,9c-44.43-15.2-134.86-49.73-179.4-92.33-60.4-57.78-78.35-140.28-78.35-140.28L368,728.9a52.21,52.21,0,0,1,4.77-25.27c-5.22,9.37-6.66,18.77-9.05,26.21C358.23,746.94,329.05,945.39,331.47,954.65Z"/><circle class="cls-13" cx="490.38" cy="884.37" r="9.52"/><circle class="cls-13" cx="490.38" cy="928.19" r="9.52"/></g></g></svg>