<svg xmlns="http://www.w3.org/2000/svg" viewBox="0 0 980.76 1003.72"><defs><style>.cls-1{fill:#8bbee6;stroke:#fff;stroke-miterlimit:10;stroke-width:24.42px;}.cls-2{fill:#fff;}.cls-3{fill:#7a4a3d;}.cls-4{fill:#e5afa1;}.cls-5{fill:#f4d5c1;}.cls-6{fill:#1e2c3f;}.cls-7{fill:#dc6965;}.cls-8{fill:#d2a597;}.cls-9{fill:#7f2020;}.cls-10{fill:#fcc;}.cls-11{fill:none;}</style></defs><title>女生</title><g id="图层_2" data-name="图层 2"><g id="图层_1-2" data-name="图层 1"><circle class="cls-1" cx="490.38" cy="513.35" r="477.85"/><path class="cls-2" d="M490.38,1003.72A490.5,490.5,0,0,1,299.5,61.51,490.5,490.5,0,0,1,681.26,965.18,487.25,487.25,0,0,1,490.38,1003.72Zm0-955.7A465.45,465.45,0,0,0,309.26,942.11,465.45,465.45,0,0,0,671.5,84.58,462.42,462.42,0,0,0,490.38,48Z"/><path class="cls-3" d="M200.42,275.09S77.16,236.67,61.63,386.24s0,207.6,0,207.6l10.95-41.43c4.25-3.66,10.19,21.19,12.3,16,4-9.74,9.21-17.47,16-9.64L102,560l4.73-73.69s15.12-184,86-172.69S200.42,275.09,200.42,275.09Z"/><polygon class="cls-4" points="435.24 624.2 437.19 665.56 498.49 709.88 540.34 696.09 544.23 612.38 435.24 624.2"/><path class="cls-4" d="M728.5,381.92s58.11-4.93,46.29,43.33c0,0-20.68,80.76-64,99.47,0,0-9.85,3-23.63,1S728.5,381.92,728.5,381.92Z"/><path class="cls-4" d="M234.45,364.19s-58.1-4.92-46.28,43.34c0,0,20.68,80.75,64,99.47,0,0,9.85,2.95,23.64,1S234.45,364.19,234.45,364.19Z"/><path class="cls-5" d="M230.19,334s20.68,239.32,137.88,289.55c0,0,58.11,28.56,115.23,24.62,0,0,86.67-3.94,141.82-39.39,0,0,90.34-54.41,120.09-252.46,0,0-43.88-103.67-115.17-109,0,0-6.71,42.35-118,45.31l-43.52,15.75-21.33-15.75-45.94-13.79s-69.69-59.42-71.66-23c0,0-34.4,7.22-14.7-1.65C314.89,254.21,256.78,298.53,230.19,334Z"/><ellipse class="cls-6" cx="345.5" cy="439.23" rx="32.58" ry="25.83"/><path class="cls-7" d="M531.59,559.89c0,12.79-18.74,23.15-41.86,23.15s-41.85-10.36-41.85-23.15,18.74,0,41.85,0S531.59,547.11,531.59,559.89Z"/><ellipse class="cls-6" cx="627.5" cy="439.23" rx="32.58" ry="25.83"/><path class="cls-6" d="M318.25,406.37l8.56,12.14c2.21,3.14,7.41.14,5.18-3l-8.56-12.14c-2.21-3.14-7.41-.14-5.18,3Z"/><path class="cls-6" d="M372.19,405.06l-11.56,10.18c-2.91,2.55,1.35,6.78,4.24,4.24l11.56-10.18c2.91-2.55-1.35-6.78-4.24-4.24Z"/><path class="cls-6" d="M343,400.11l-.63,14.14c-.17,3.87,5.83,3.86,6,0l.63-14.14c.17-3.86-5.83-3.86-6,0Z"/><path class="cls-6" d="M600,406.37l8.56,12.14c2.21,3.14,7.41.14,5.18-3l-8.56-12.14c-2.21-3.14-7.41-.14-5.18,3Z"/><path class="cls-6" d="M654,405.06l-11.56,10.18c-2.91,2.55,1.35,6.78,4.24,4.24L658.2,409.3c2.9-2.55-1.36-6.78-4.25-4.24Z"/><path class="cls-6" d="M624.8,400.11l-.63,14.14c-.17,3.87,5.83,3.86,6,0l.63-14.14c.17-3.86-5.83-3.86-6,0Z"/><path class="cls-8" d="M742.43,395S724.25,333.8,697.66,324c0,0-27,22.42-43.78,46.05,0,0-9.85-35.45-47.28-25.6,0,0,2,26.59-1,30.53s-113.26-40.38-113.26-40.38l-2,21.67s-133.55,40-177.87-49.58c0,0-45.43,38.61-93.69,119.37,0,0,15.43-358.25,162.18-372l269.28,15.8,40,25.46s76.94,74.61,84.82,177l-14.26,6.36S749.33,366.48,742.43,395Z"/><path class="cls-3" d="M745.8,401.33S725.68,333.8,699.09,324c0,0-27,22.42-43.78,46.05,0,0-9.85-35.45-47.28-25.6,0,0,2,26.59-1,30.53s-113.26-40.38-113.26-40.38l-2,21.67s-133.55,40-177.87-49.58c0,0-45.43,38.61-93.69,119.37,0,0-26.86-131.84-18-181.08l-23.64-8.87s14.77-76.82,75.83-129c0,0,11.82-13.79-7.87-28.57,0,0-19.22-22.1,115.74-36A34.05,34.05,0,0,0,380,35.42C397.39,21.68,449-9.85,543,3a109.66,109.66,0,0,1,23.79,6l71,26.7a213,213,0,0,1,135.68,167.7c3.67,24.41,6.89,50.62,8.91,76.95l-18.11,4.53S752.69,372.77,745.8,401.33Z"/><polygon class="cls-7" points="223.87 335.8 203.95 294.93 161.45 352 223.87 335.8"/><polygon class="cls-7" points="204.18 294.93 234.79 261.32 166.05 242.93 204.18 294.93"/><path class="cls-3" d="M733.63,275.56a3.61,3.61,0,0,1,1.35-.69c10.33-2.91,123.21-31.33,138,111.37,11.23,108.17,6.21,168.46,2.58,193.55a3.79,3.79,0,0,1-7.32.73l-16.12-45.37a3.78,3.78,0,0,0-7.35,1.33h0a3.79,3.79,0,0,1-7.38,1.27l-8.74-26.23a58.57,58.57,0,0,1-2.8-13.48c-3.11-35-20.79-194.49-83.9-184.41C675.21,324.29,727.4,280.62,733.63,275.56Z"/><polygon class="cls-7" points="736.31 246.76 756.23 287.63 798.73 230.56 736.31 246.76"/><polygon class="cls-7" points="756 287.63 725.39 321.24 794.13 339.63 756 287.63"/><path class="cls-2" d="M702,924,648,715.45s-3.06-19.18-54.95-38.78c14,9.27,27.69,25.85,33.62,55.46L649,931.73l1.59,19.85q3.07-1.11,6.17-2.26C672.1,943.59,689.56,932.31,702,924Z"/><path class="cls-2" d="M331.47,949.67c-2.42-9.26,26.76-207.71,32.27-224.81,2.39-7.43,3.83-16.83,9.05-26.21,5.75-12.65,18.1-27,44.36-35.06-8.43,1.62-21,5-39.56,11.61,0,0-52.79,17.38-56.85,59.29L261.21,917.27a461.57,461.57,0,0,0,70.62,33.16A2.49,2.49,0,0,1,331.47,949.67Z"/><path class="cls-9" d="M331.47,949.67a2.49,2.49,0,0,0,.36.76,465,465,0,0,0,294.37,9c-44.43-15.2-134.86-49.72-179.4-92.32-60.4-57.78-78.35-140.28-78.35-140.28l-.43-2.86a52.21,52.21,0,0,1,4.77-25.27c-5.22,9.38-6.66,18.78-9.05,26.21C358.23,742,329.05,940.41,331.47,949.67Z"/><path class="cls-7" d="M626.71,730.49c-14.45-72.23-74.85-67-74.85-67l-53.57,33.42-61.13-37.8c-75.84,11.27-69.07,65-69.14,64.78l.43,2.86s17.95,82.5,78.35,140.28c44.54,42.6,135,77.12,179.4,92.32q12.42-3.74,24.52-8.15L649,930.09Z"/><path class="cls-10" d="M414.16,664.55s-2.43,79.19,20.56,98.23c0,0,24.95,29.54,62.37,28.89,0,0,61.72-6.57,75.51-74.85,0,0,5.68-32.25,1.08-50.63,0,0-26.69-6.17-31.29-6.17-1.95,0-50.55,33.63-50.55,33.63s-38.6-27.29-54.68-34.51C429,659.29,414.16,664.55,414.16,664.55Z"/><path class="cls-2" d="M437.16,659.14S433.4,751.21,485.93,767c0,0,73-10.4,56.46-107l-49.76,30.33Z"/><circle class="cls-2" cx="492.37" cy="714.99" r="9.52"/><circle class="cls-2" cx="492.37" cy="750.19" r="9.52"/><path class="cls-11" d="M433.78,663l57.55,31.17,1.3-.76-55.47-34.3a135.78,135.78,0,0,0-20,4.45C431.12,660.91,433.78,663,433.78,663Z"/><path class="cls-11" d="M556.07,663.45a366.34,366.34,0,0,1,37,11.58A72,72,0,0,0,556.07,663.45Z"/><polygon class="cls-10" points="436.16 785.66 490.96 807.01 542.62 783.09 569.77 835.43 491.11 820.33 405.62 833.46 436.16 785.66"/><polygon class="cls-10" points="491.11 814.13 437.1 912.93 475.2 894.13 491.11 814.13"/><polygon class="cls-10" points="490.16 814.13 531.59 912.93 502.36 894.13 490.16 814.13"/></g></g></svg>