<?xml version="1.0" standalone="no"?><!DOCTYPE svg PUBLIC "-//W3C//DTD SVG 1.1//EN" "http://www.w3.org/Graphics/SVG/1.1/DTD/svg11.dtd"><svg t="1713701708071" class="icon" viewBox="0 0 1024 1024" version="1.1" xmlns="http://www.w3.org/2000/svg" p-id="2222" xmlns:xlink="http://www.w3.org/1999/xlink" width="200" height="200"><path d="M320.545707 479.179085H116.47185A116.610043 116.610043 0 0 1 0 362.707235V158.633378a116.610043 116.610043 0 0 1 116.47185-116.47185h204.073857a116.610043 116.610043 0 0 1 116.471849 116.47185v204.073857a116.610043 116.610043 0 0 1-116.471849 116.47185zM116.47185 88.745243a69.976076 69.976076 0 0 0-69.888135 69.888135v204.073857a69.976076 69.976076 0 0 0 69.888135 69.888135h204.073857a69.976076 69.976076 0 0 0 69.888135-69.888135V158.633378a69.976076 69.976076 0 0 0-69.888135-69.888135zM320.633648 1024H116.559791A116.610043 116.610043 0 0 1 0.087941 907.578402V703.44173a116.610043 116.610043 0 0 1 116.47185-116.484412h204.073857a116.622606 116.622606 0 0 1 116.484413 116.484412v204.136672a116.610043 116.610043 0 0 1-116.484413 116.421598zM116.559791 633.553595a69.976076 69.976076 0 0 0-69.888135 69.888135v204.136672a69.976076 69.976076 0 0 0 69.888135 69.837883h204.073857a69.963513 69.963513 0 0 0 69.888135-69.837883V703.44173a69.963513 69.963513 0 0 0-69.888135-69.888135zM865.906832 1024H661.795286a116.610043 116.610043 0 0 1-116.43416-116.421598V703.44173a116.622606 116.622606 0 0 1 116.43416-116.484412h204.111546a116.622606 116.622606 0 0 1 116.484413 116.484412v204.136672a116.610043 116.610043 0 0 1-116.484413 116.421598zM661.795286 633.553595a69.963513 69.963513 0 0 0-69.888135 69.888135v204.136672a69.963513 69.963513 0 0 0 69.888135 69.837883h204.111546a69.963513 69.963513 0 0 0 69.888135-69.837883V703.44173a69.963513 69.963513 0 0 0-69.888135-69.888135zM763.781963 521.340613a115.680379 115.680379 0 0 1-82.350661-34.008122L537.119778 343.03353a116.635169 116.635169 0 0 1 0-164.726447L681.431302 34.008122a116.710547 116.710547 0 0 1 164.701321 0l144.311524 144.298961a116.635169 116.635169 0 0 1 0 164.726447L846.132623 487.332491a115.579875 115.579875 0 0 1-82.35066 34.008122z m0-474.744335a69.435866 69.435866 0 0 0-49.410397 20.352108L570.085169 211.247347a69.976076 69.976076 0 0 0 0 98.845919l144.286397 144.298961c26.269295 26.281858 72.589186 26.231606 98.820793 0l144.311524-144.298961a69.976076 69.976076 0 0 0 0-98.845919L813.192359 66.948386a69.398177 69.398177 0 0 0-49.410396-20.352108z" p-id="2223"></path></svg>