<?xml version="1.0" standalone="no"?><!DOCTYPE svg PUBLIC "-//W3C//DTD SVG 1.1//EN" "http://www.w3.org/Graphics/SVG/1.1/DTD/svg11.dtd"><svg t="1713245787724" class="icon" viewBox="0 0 1094 1024" version="1.1" xmlns="http://www.w3.org/2000/svg" p-id="4274" xmlns:xlink="http://www.w3.org/1999/xlink" width="213.671875" height="200"><path d="M989.649627 716.726857h-63.328841V538.205038c0-18.834871-14.262638-34.121143-31.800905-34.121143H575.62368V409.636571h159.277495c17.60651 0 31.869147-15.286272 31.869147-34.121142V68.425143c0-18.834871-14.262638-34.121143-31.869147-34.121143h-382.1568c-17.674752 0-31.800905 15.286272-31.800905 34.121143V375.515429c0 18.834871 14.126153 34.121143 31.800905 34.121142h159.209252v94.447324H195.445906c-17.538267 0-31.800905 15.286272-31.800905 34.121143L163.508517 716.726857h-65.580837c-17.674752 0-31.800905 15.286272-31.800905 34.121143v204.726857c0 18.834871 14.126153 34.121143 31.800905 34.121143h191.0784c17.538267 0 31.93739-15.286272 31.93739-34.121143v-204.726857c0-18.834871-14.399122-34.121143-31.93739-34.121143h-61.827511V572.326181h284.775058V716.726857h-63.738294c-17.538267 0-31.869147 15.286272-31.869148 34.121143v204.726857c0 18.834871 14.33088 34.121143 31.869148 34.121143h191.0784c17.60651 0 31.869147-15.286272 31.869147-34.121143v-204.726857c0-18.834871-14.262638-34.121143-31.869147-34.121143h-63.670053V572.326181h287.095296V716.726857h-64.147749c-17.674752 0-31.800905 15.286272-31.800905 34.121143v204.726857c0 18.834871 14.126153 34.121143 31.800905 34.121143h191.0784c17.538267 0 31.800905-15.286272 31.800906-34.121143v-204.726857c0-18.834871-14.262638-34.121143-31.800906-34.121143z" p-id="4275"></path></svg>