<?xml version="1.0" standalone="no"?><!DOCTYPE svg PUBLIC "-//W3C//DTD SVG 1.1//EN" "http://www.w3.org/Graphics/SVG/1.1/DTD/svg11.dtd"><svg t="1713701730711" class="icon" viewBox="0 0 1024 1024" version="1.1" xmlns="http://www.w3.org/2000/svg" p-id="2382" xmlns:xlink="http://www.w3.org/1999/xlink" width="200" height="200"><path d="M512.009171 702.416298c-104.99394 0-190.4223-85.416357-190.4223-190.4223S407.015231 321.571698 512.009171 321.571698s190.410297 85.416357 190.410296 190.4223-85.416357 190.4223-190.410296 190.4223z m0-332.230737a141.808438 141.808438 0 1 0 141.808437 141.808437A141.964482 141.964482 0 0 0 512.009171 370.185561z" p-id="2383"></path><path d="M565.59245 1024h-107.166559a66.150863 66.150863 0 0 1-66.078843-66.018826V899.29644a405.499631 405.499631 0 0 1-156.116517-89.869627l-50.570421 29.192324a66.126856 66.126856 0 0 1-90.253736-24.210903L41.811091 721.609772a66.186874 66.186874 0 0 1 24.1989-90.26574l50.678452-29.264345a394.456482 394.456482 0 0 1 0-180.123364l-50.678452-29.264344a66.17487 66.17487 0 0 1-24.186897-90.26574l53.58328-92.810466a66.150863 66.150863 0 0 1 90.253736-24.186897l50.570421 29.192325a405.127525 405.127525 0 0 1 156.116517-89.917641V66.078843a66.150863 66.150863 0 0 1 66.078843-66.018826h107.166559a66.162867 66.162867 0 0 1 66.078843 66.078843v58.612714a405.295573 405.295573 0 0 1 156.116518 89.91764l50.57042-29.204328a66.150863 66.150863 0 0 1 90.26574 24.198901l53.58328 92.810465a66.186874 66.186874 0 0 1-24.198901 90.26574l-50.678451 29.264345a394.456482 394.456482 0 0 1 0 180.123363l50.678451 29.264345a66.17487 66.17487 0 0 1 24.186897 90.26574l-53.571276 92.798462a66.126856 66.126856 0 0 1-90.241733 24.210904l-50.594427-29.240338a405.715692 405.715692 0 0 1-156.116518 89.88163v58.624718a66.162867 66.162867 0 0 1-66.078843 66.066839zM244.11678 748.725504l13.203765 13.407823a356.393628 356.393628 0 0 0 165.407167 95.307178l18.221196 4.717345v95.823324a17.488987 17.488987 0 0 0 17.476983 17.464981h107.166559a17.488987 17.488987 0 0 0 17.476984-17.464981v-95.883341l18.221196-4.657328a356.393628 356.393628 0 0 0 165.407167-95.247161l13.203765-13.407823 82.823618 47.773623a17.488987 17.488987 0 0 0 23.790784-6.469845l53.583279-92.798462a17.549004 17.549004 0 0 0-6.397824-23.850801l-82.895638-47.905661 5.017431-18.125168a348.61541 348.61541 0 0 0 0-190.854424l-5.017431-18.125168 82.895638-47.881654a17.573011 17.573011 0 0 0 6.409828-23.850801l-53.595283-92.798462a17.452977 17.452977 0 0 0-23.862805-6.385821l-82.823618 47.773623-13.203765-13.431831a356.501659 356.501659 0 0 0-165.395163-95.24716l-18.233199-4.693338V66.078843a17.488987 17.488987 0 0 0-17.476984-17.46498h-107.094539a17.488987 17.488987 0 0 0-17.476983 17.46498v95.835328l-18.2332 4.693338a356.501659 356.501659 0 0 0-165.395163 95.24716l-13.203765 13.431831-82.763601-47.773623a17.609021 17.609021 0 0 0-23.850801 6.385821l-53.58328 92.822469a17.561008 17.561008 0 0 0 6.385821 23.850801l82.907642 47.881654-5.017431 18.125168a348.61541 348.61541 0 0 0 0 190.854423l5.017431 18.125169-82.907642 47.90566a17.585014 17.585014 0 0 0-6.397824 23.850802l53.595283 92.774455a17.561008 17.561008 0 0 0 23.874808 6.409828z" p-id="2384"></path><path d="M565.59245 1024h-107.166559a66.150863 66.150863 0 0 1-66.078843-66.018826v-58.52869a394.384461 394.384461 0 0 1-156.044497-90.025671l-50.690454 29.264345a66.186874 66.186874 0 0 1-90.253737-24.186897L41.775081 721.705799a66.198877 66.198877 0 0 1 24.186897-90.26574l50.558417-29.192324a405.079511 405.079511 0 0 1 0.192054-180.14737l-50.750471-29.312359a66.17487 66.17487 0 0 1-24.186897-90.26574l53.583279-92.810465a66.150863 66.150863 0 0 1 90.253737-24.186897l50.762475 29.300355a405.331583 405.331583 0 0 1 155.924463-90.253737V66.078843a66.150863 66.150863 0 0 1 66.090846-66.018826h107.154556a66.162867 66.162867 0 0 1 66.078843 66.078843v58.52869a394.396465 394.396465 0 0 1 155.984479 90.025671l50.702459-29.264345a66.150863 66.150863 0 0 1 90.253736 24.210904l53.58328 92.774455a66.17487 66.17487 0 0 1-24.186897 90.289747l-50.558417 29.192324a404.911463 404.911463 0 0 1-0.192055 180.147371l50.750472 29.312358a66.17487 66.17487 0 0 1 24.186897 90.26574l-53.571277 92.798462a66.114853 66.114853 0 0 1-90.277743 24.16289l-50.750472-29.264345a405.511634 405.511634 0 0 1-155.924462 90.241733v58.384649a66.162867 66.162867 0 0 1-66.03083 66.054836z m-321.331629-275.370524l13.203765 13.407824a349.047533 349.047533 0 0 0 165.275129 95.403205l18.209193 4.693338v95.751304a17.488987 17.488987 0 0 0 17.476983 17.46498h107.166559a17.488987 17.488987 0 0 0 17.476984-17.46498v-95.547246l18.221196-4.717345a356.429638 356.429638 0 0 0 165.191105-95.583256l13.203765-13.43183 82.967659 47.86965a16.97284 16.97284 0 0 0 13.203765 1.704486 17.248919 17.248919 0 0 0 10.611026-8.090307l53.58328-92.798462a17.549004 17.549004 0 0 0-6.397825-23.850801l-82.967658-47.917664 5.041437-18.137172a356.609689 356.609689 0 0 0 0.216062-190.854424l-5.053441-18.125168 82.7636-47.809633a17.488987 17.488987 0 0 0 6.397825-23.874808l-53.535266-92.798462a17.585014 17.585014 0 0 0-23.862805-6.409828l-82.895638 47.845643-13.203765-13.407823a348.891489 348.891489 0 0 0-165.287133-95.427212l-18.209192-4.717345V66.078843a17.488987 17.488987 0 0 0-17.476984-17.46498h-107.142552a17.488987 17.488987 0 0 0-17.488987 17.46498v95.571253l-18.209193 4.705341a356.573679 356.573679 0 0 0-165.203109 95.619267l-13.203765 13.455837-82.967659-47.917664a17.609021 17.609021 0 0 0-23.862804 6.385821l-53.58328 92.822469a17.561008 17.561008 0 0 0 6.385821 23.850801l82.979662 47.917664-5.041437 18.137172a356.729724 356.729724 0 0 0-0.204058 190.854423l5.041437 18.125169-82.823618 47.809633a17.549004 17.549004 0 0 0-6.38582 23.826794l53.631293 92.846476a17.573011 17.573011 0 0 0 23.862804 6.385821z" p-id="2385"></path></svg>