<?xml version="1.0" standalone="no"?><!DOCTYPE svg PUBLIC "-//W3C//DTD SVG 1.1//EN" "http://www.w3.org/Graphics/SVG/1.1/DTD/svg11.dtd"><svg t="1713701418378" class="icon" viewBox="0 0 1026 1024" version="1.1" xmlns="http://www.w3.org/2000/svg" p-id="6622" xmlns:xlink="http://www.w3.org/1999/xlink" width="200.390625" height="200"><path d="M515.726785 576.371737c-158.9091 0-288.204691-129.245399-288.204691-288.217239S356.855329 0 515.726785 0s288.217239 129.245399 288.217239 288.204691S674.686077 576.371737 515.726785 576.371737z m0-526.204445c-131.227998 0-237.987207 106.759209-237.987207 237.987206S384.536431 526.17935 515.726785 526.17935s238.037399-106.734113 238.037399-237.974659S647.004975 50.217484 515.726785 50.217484z" p-id="6623" fill="#2c2c2c"></path><path d="M50.192388 1024l-50.192388-3.237409c17.80575-276.396932 248.916599-492.914345 526.166801-492.914345v50.192388C275.317795 578.06573 66.216308 773.941524 50.192388 1024zM598.544225 950.066613h-43.91834a136.62368 136.62368 0 1 1 0-273.234811h128.517609a136.485651 136.485651 0 0 1 100.485161 228.877288L746.611769 871.728843a86.280715 86.280715 0 0 0-63.518467-144.679557H554.625885a86.406196 86.406196 0 1 0 0 172.799843h43.91834z" p-id="6624" fill="#2c2c2c"></path><path d="M890.300027 1001.902801H761.757322A136.510747 136.510747 0 0 1 661.284709 773.025513l37.029435 33.879862a86.280715 86.280715 0 0 0 63.443178 144.779942h128.542705a86.418744 86.418744 0 0 0 0-172.824939h-43.918339v-50.192388h43.918339a136.636228 136.636228 0 0 1 0 273.259907z" p-id="6625" fill="#2c2c2c"></path></svg>