<svg xmlns="http://www.w3.org/2000/svg" viewBox="0 0 980.76 1017.17"><defs><style>.cls-1{fill:#e3f0d5;}.cls-2{fill:#fff;}.cls-3{fill:#e5afa1;}.cls-4{fill:#f4d5c1;}.cls-5{fill:#1e2c3f;}.cls-6{fill:#dc6965;}.cls-7{fill:#28395e;}.cls-8{fill:#1d2d49;}.cls-9{fill:#374968;}.cls-10{fill:#64b2ff;}.cls-11{fill:#3390ff;}.cls-12{fill:none;}.cls-13{fill:#f5a51f;}.cls-14{fill:#1664b2;}.cls-15{fill:#1a191e;}</style></defs><title>都市蓝领</title><g id="图层_2" data-name="图层 2"><g id="图层_1-2" data-name="图层 1"><circle class="cls-1" cx="490.38" cy="526.79" r="477.85"/><path class="cls-2" d="M490.38,1017.17A490.5,490.5,0,0,1,299.5,75,490.5,490.5,0,0,1,681.26,978.63,487.25,487.25,0,0,1,490.38,1017.17Zm0-955.7A465.45,465.45,0,0,0,309.26,955.56,465.45,465.45,0,0,0,671.5,98,462.42,462.42,0,0,0,490.38,61.47Z"/><polygon class="cls-3" points="435.24 637.64 437.19 679.01 498.49 723.33 540.34 709.54 544.23 625.83 435.24 637.64"/><path class="cls-3" d="M728.5,395.37s58.11-4.93,46.29,43.33c0,0-20.68,80.76-64,99.47,0,0-9.85,3-23.63,1S728.5,395.37,728.5,395.37Z"/><path class="cls-3" d="M234.45,377.64s-58.1-4.92-46.28,43.33c0,0,20.68,80.76,64,99.48,0,0,9.85,2.95,23.64,1S234.45,377.64,234.45,377.64Z"/><path class="cls-4" d="M230.19,347.44S250.87,586.76,368.07,637c0,0,58.11,28.56,115.23,24.62,0,0,86.67-3.94,141.82-39.39,0,0,90.34-54.41,120.09-252.46,0,0-43.88-103.67-115.17-109,0,0-6.71,42.35-118,45.31l-43.52,15.75-21.33-15.75-45.94-13.79s-69.69-59.43-71.66-23c0,0-34.4,7.23-14.7-1.64C314.89,267.66,256.78,312,230.19,347.44Z"/><ellipse class="cls-5" cx="345.17" cy="452.68" rx="25.85" ry="25.83"/><ellipse class="cls-6" cx="490.53" cy="581.01" rx="41.86" ry="23.14"/><ellipse class="cls-5" cx="629.34" cy="452.68" rx="25.85" ry="25.83"/><path class="cls-7" d="M740,418.36S719.89,350.83,693.3,341c0,0-27,22.42-43.78,46.06,0,0-9.85-35.46-47.28-25.61,0,0,2,26.59-1,30.53S488,351.58,488,351.58l-2,21.67S352.48,413.3,308.16,323.68c0,0-45.43,38.61-93.69,119.37,0,0-26.85-131.84-18-181.09l9.92-9.81s-18.78-75.87,42.28-128.07c0,0,57.72-6.64,38-21.41,0,0-58.71-27.83,88-41.62,0,0,80-52.14,209-29.49l22.45,13.73s41.17,12.14,51,24l10.25,11.5s33.4,34,44.24,37L686,112.26S768.69,195,776.57,297.42L758.45,302S746.9,389.8,740,418.36Z"/><path class="cls-8" d="M762.46,220.4S672.77,329.26,523.07,328.27c0,0-172.35,3-236.37-142.8,0,0,35.84-30.85,22.06-81.08,0,0-36.88-37.66,58.7-33.17,0,0,63.24-54.86,227.71-38.11l9.28,21.52,56.2,23.52s6.21,11.79,5.22,17.69L693.17,112l-1.69,30.15S746.7,177.06,762.46,220.4Z"/><path class="cls-9" d="M758.45,211.07S677.69,315.47,528,314.49c0,0-172.35,2.95-236.37-142.81,0,0,30.92-17.06,17.14-67.29,0,0-24.19-47,63.62-47,0,0,45.42-45,209.9-28.23l27.09,11.65L669.68,74.6h0l40.37,41.33-9.18,12.42S742.69,167.74,758.45,211.07Z"/><path class="cls-10" d="M702,937.47,648,728.9s-12.86-30.69-62.24-46.11c14,9.26,35,33.18,40.91,62.79L649,945.18,650.62,965q3.07-1.11,6.17-2.26C672.1,957,689.56,945.76,702,937.47Z"/><path class="cls-10" d="M331.47,963.12c-2.42-9.26,26.76-207.71,32.27-224.81,2.39-7.43,3.83-16.84,9.05-26.21,5.75-12.65,18.1-27,44.36-35.06-8.43,1.62-21,5-39.56,11.61,0,0-52.79,17.37-56.85,59.29L261.21,930.72a462.52,462.52,0,0,0,70.62,33.16A2.49,2.49,0,0,1,331.47,963.12Z"/><path class="cls-11" d="M626.71,743.94C612.26,671.71,543.62,669,543.62,669l-51,43.08-55.47-39.51c-75.84,11.27-69.07,64.95-69.14,64.78l.43,2.86s17.95,82.5,78.35,140.27c44.54,42.61,135,77.13,179.4,92.33q12.42-3.75,24.52-8.15L649,943.54Z"/><path class="cls-12" d="M433.78,676.48l57.55,31.17,1.3-.77-55.47-34.29a134.51,134.51,0,0,0-20,4.45C431.12,674.36,433.78,676.48,433.78,676.48Z"/><polygon class="cls-10" points="437.16 672.59 492.63 706.88 543.62 669.02 584.68 690.12 540.73 742.89 496.91 712.1 488.79 712.1 438.29 743.62 396.52 694.22 437.16 672.59"/><polygon class="cls-10" points="544.23 780.37 608.91 780.21 608.91 813.82 544.23 813.82 544.23 780.37"/><path class="cls-13" d="M544.23,783.37l64.68-.16-3-3v33.61l3-3H544.23l3,3V780.37c0-3.86-6-3.87-6,0v33.45a3,3,0,0,0,3,3h64.68a3,3,0,0,0,3-3V780.21a3,3,0,0,0-3-3l-64.68.16C540.37,777.38,540.36,783.38,544.23,783.37Z"/><polygon class="cls-10" points="377.91 780.37 442.59 780.21 442.59 813.82 377.91 813.82 377.91 780.37"/><path class="cls-13" d="M377.91,783.37l64.68-.16-3-3v33.61l3-3H377.91l3,3V780.37c0-3.86-6-3.87-6,0v33.45a3,3,0,0,0,3,3h64.68a3,3,0,0,0,3-3V780.21a3,3,0,0,0-3-3l-64.68.16C374.05,777.38,374,783.38,377.91,783.37Z"/><path class="cls-14" d="M331.47,963.12a2.49,2.49,0,0,0,.36.76,465,465,0,0,0,294.37,9c-44.43-15.2-134.86-49.72-179.4-92.33-60.4-57.77-78.35-140.27-78.35-140.27l-.43-2.86a52.21,52.21,0,0,1,4.77-25.27c-5.22,9.37-6.66,18.78-9.05,26.21C358.23,755.41,329.05,953.86,331.47,963.12Z"/><path class="cls-10" d="M469.8,725.34h43.51L524,990.09s-12.75,5.18-54.22,1.59Z"/><circle class="cls-15" cx="576.57" cy="797.97" r="9.54"/><circle class="cls-15" cx="410.25" cy="797.97" r="9.54"/><path class="cls-11" d="M498.1,0s-330.75,0-304,309.82c0,0,351.28-159,583.78-10.3C777.83,299.52,798.32,44.88,498.1,0Z"/><path class="cls-10" d="M194.05,309.82s338.81-172.63,583.78-10.3c0,0,25.93,43,30.84,44.63S476.84,273.86,194.05,309.82Z"/><path class="cls-13" d="M392.79,135.83h7.3l4.2,23.3,2.37,14.36h.24c1-4.81,2-9.61,3-14.36l5.78-23.3h6.21l5.84,23.3c1,4.69,2,9.49,3,14.36h.31c.73-4.87,1.52-9.67,2.25-14.36l4.26-23.3h6.75l-8.82,44.78h-8.7l-6-24.88c-.79-3.53-1.46-6.88-2.06-10.29h-.31c-.61,3.41-1.34,6.76-2.07,10.29l-5.9,24.88H402Z"/><path class="cls-13" d="M448.76,163.94c0-11.2,7.48-17.64,15.76-17.64s15.75,6.44,15.75,17.64-7.48,17.46-15.75,17.46S448.76,175,448.76,163.94Zm24.33,0c0-7.12-3.28-11.86-8.57-11.86S456,156.82,456,163.94s3.28,11.74,8.52,11.74S473.09,171,473.09,163.94Z"/><path class="cls-13" d="M488.49,147.15h5.72l.54,6h.19c2.37-4.32,5.9-6.87,9.49-6.87a8.3,8.3,0,0,1,3.77.73l-1.28,6.08a9.75,9.75,0,0,0-3.34-.55c-2.74,0-6,1.89-8.16,7.18v20.87h-6.93Z"/><path class="cls-13" d="M513.37,132.12h6.81v31.27h.19l13.14-16.24h7.72l-11.37,13.56,12.65,19.9h-7.6l-9.07-15.15L520.18,172v8.64h-6.81Z"/><path class="cls-13" d="M544.52,163.94c0-10.89,7.42-17.64,15.27-17.64,8.88,0,13.63,6.38,13.63,15.87a17.45,17.45,0,0,1-.31,3.53H551.4c.54,6.39,4.56,10.22,10.34,10.22a14.24,14.24,0,0,0,8-2.49l2.43,4.44a20.26,20.26,0,0,1-11.31,3.53C551.76,181.4,544.52,175,544.52,163.94Zm22.88-3c0-5.78-2.62-9.13-7.49-9.13-4.19,0-7.91,3.23-8.58,9.13Z"/><path class="cls-13" d="M581.27,147.15H587l.54,6h.19c2.37-4.32,5.9-6.87,9.49-6.87A8.3,8.3,0,0,1,601,147l-1.28,6.08a9.81,9.81,0,0,0-3.35-.55c-2.73,0-6,1.89-8.15,7.18v20.87h-6.93Z"/></g></g></svg>