<svg xmlns="http://www.w3.org/2000/svg" viewBox="0 0 980.76 1011.49"><defs><style>.cls-1{fill:#e3f0d5;}.cls-2{fill:#fff;}.cls-3{fill:#e5afa1;}.cls-4{fill:#f4d5c1;}.cls-5{fill:#374968;}.cls-6{fill:#1e2c3f;}.cls-7{fill:#dc6965;}.cls-8{fill:#d2a597;}.cls-9{fill:#28395e;}.cls-10{fill:#1d2d49;}.cls-11{fill:#182311;}.cls-12{fill:#526b45;}.cls-13{fill:#e4f3f9;}.cls-14{fill:#1a191e;}.cls-15{fill:none;}</style></defs><title>学生</title><g id="图层_2" data-name="图层 2"><g id="图层_1-2" data-name="图层 1"><circle class="cls-1" cx="490.38" cy="521.11" r="477.85"/><path class="cls-2" d="M490.38,1011.49A490.51,490.51,0,0,1,299.5,69.27,490.5,490.5,0,0,1,681.26,972.94,487.26,487.26,0,0,1,490.38,1011.49Zm0-955.71A465.45,465.45,0,0,0,309.26,949.87,465.45,465.45,0,0,0,671.5,92.34,462.42,462.42,0,0,0,490.38,55.78Z"/><polygon class="cls-3" points="435.24 631.96 437.19 673.32 498.49 717.64 540.34 703.85 544.23 620.14 435.24 631.96"/><path class="cls-3" d="M728.5,389.68s58.11-4.92,46.29,43.33c0,0-20.68,80.76-64,99.48,0,0-9.85,3-23.63,1S728.5,389.68,728.5,389.68Z"/><path class="cls-3" d="M234.45,372s-58.1-4.92-46.28,43.34c0,0,20.68,80.76,64,99.47,0,0,9.85,3,23.64,1S234.45,372,234.45,372Z"/><path class="cls-4" d="M230.19,341.75S250.87,581.07,368.07,631.3c0,0,58.11,28.56,115.23,24.62,0,0,86.67-3.94,141.82-39.39,0,0,90.34-54.41,120.09-252.46,0,0-43.88-103.67-115.17-109,0,0-6.71,42.35-118,45.31l-43.52,15.75-21.33-15.75L401.25,286.6s-69.69-59.42-71.66-23c0,0-34.4,7.22-14.7-1.64C314.89,262,256.78,306.29,230.19,341.75Z"/><path class="cls-5" d="M752.31,391.74,748,390.47l-27.62,37.15a95.55,95.55,0,0,0-189.15,18.63H440.71a95.54,95.54,0,0,0-183.07-37.73l-23.14-36.6-5.38.15,24.07,48.86a95.55,95.55,0,1,0,187,35.78h91.56a95.55,95.55,0,0,0,190.59-9.89q0-3.7-.28-7.34l1.62,1.26ZM345.17,536.37a89.55,89.55,0,1,1,89.55-89.55A89.66,89.66,0,0,1,345.17,536.37Zm371.19-89.55a89.52,89.52,0,1,1-.88-12.55l0,0,0,0A90.49,90.49,0,0,1,716.36,446.82Z"/><ellipse class="cls-6" cx="345.17" cy="446.99" rx="25.85" ry="25.83"/><ellipse class="cls-7" cx="490.53" cy="575.33" rx="41.86" ry="23.14"/><ellipse class="cls-6" cx="629.34" cy="446.99" rx="25.85" ry="25.83"/><path class="cls-8" d="M742.43,402.8s-18.18-61.23-44.77-71.08c0,0-27,22.42-43.78,46.06,0,0-9.85-35.46-47.28-25.61,0,0,2,26.59-1,30.53s-113.26-40.38-113.26-40.38l-2,21.67S356.84,404,312.52,314.41c0,0-45.43,38.61-93.69,119.37,0,0-28.79-138.13-19.93-187.38l-23.63-8.86S192,167,253,114.82c0,0,11.82-13.79-7.87-28.56,0,0-12.81-20.69,133.94-34.47,0,0,100.45-64,229.47-41.37l2,25.61s58.11,2.95,68,14.77l-6.69,20.68s44.19,32.77,55,35.73L690.32,103s76.94,74.61,84.82,177l-14.26,6.36S749.33,374.24,742.43,402.8Z"/><path class="cls-5" d="M762.06,211.11S677.13,320,527.43,319c0,0-172.36,2.95-236.37-142.81,0,0-41.7-39-55.49-89.26,0,0,40.67-29.47,136.25-25,0,0,74.85-62,239.32-45.3l-2.33,28.71L675.16,62s-3.94,18.71-4.93,24.62L706.6,89.2l-10.76,43.67S746.3,167.77,762.06,211.11Z"/><path class="cls-5" d="M762.81,201.81s-80.76,104.4-230.46,103.41c0,0-172.35,3-236.37-142.8,0,0-40.58-29-54.37-79.21,0,0,47.32-35.14,135.13-35,0,0,74.85-62,239.32-45.3l-2.33,28.71,66.35,16.59s-3.94,18.71-4.92,24.62l51.68,34.42-21.61,11.87S747.05,158.48,762.81,201.81Z"/><path class="cls-9" d="M740.51,406.31s-20.12-67.53-46.71-77.38c0,0-27,22.42-43.78,46.06,0,0-9.85-35.45-47.28-25.6,0,0,2,26.59-1,30.53S488.5,339.54,488.5,339.54l-2,21.66S353,401.25,308.66,311.63c0,0-45.43,38.61-93.69,119.37,0,0-26.85-131.84-18-181.09l-23.64-8.86s14.78-76.82,75.84-129c0,0,11.82-13.79-7.88-28.56,0,0-12.81-20.68,133.94-34.47,0,0,100.46-64,229.47-41.36l2,25.6s58.11,3,68,14.78L668,68.7s43.56,29.38,54.4,32.33l-35.89-.82s82.73,82.73,90.61,185.16L759,289.9S747.4,377.75,740.51,406.31Z"/><path class="cls-10" d="M763,208.35S673.27,317.21,523.57,316.23c0,0-172.35,2.95-236.37-142.81,0,0-41.7-39-55.49-89.26,0,0,40.67-29.47,136.25-25,0,0,74.85-62,239.32-45.3L605,42.59,671.3,59.17s-3.94,18.72-4.93,24.63l27.3,16.13L692,130.09S747.2,165,763,208.35Z"/><path class="cls-5" d="M759,199S678.19,303.42,528.49,302.44c0,0-172.35,2.95-236.37-142.81,0,0-40.58-29-54.37-79.21,0,0,47.32-35.13,135.13-35,0,0,76.79-55.76,241.26-39L609.87,28.8l79.44,15s-16.86,13.37-19.13,18.74L722.35,101l-21,15.27S743.19,155.69,759,199Z"/><path class="cls-2" d="M702,931.78,648,723.21S645,704,593.09,684.43c14,9.27,27.69,25.85,33.62,55.46L649,939.49l1.59,19.85q3.07-1.11,6.17-2.26C672.1,951.35,689.56,940.07,702,931.78Z"/><path class="cls-2" d="M331.47,957.43c-2.42-9.26,26.76-207.71,32.27-224.81,2.39-7.43,3.83-16.83,9.05-26.21,5.75-12.65,18.1-27,44.36-35.06-8.43,1.62-21,5-39.56,11.61,0,0-52.79,17.38-56.85,59.3L261.21,925a461.57,461.57,0,0,0,70.62,33.16A2.49,2.49,0,0,1,331.47,957.43Z"/><path class="cls-11" d="M331.47,957.43a2.49,2.49,0,0,0,.36.76,465,465,0,0,0,294.37,8.95c-44.43-15.2-134.86-49.72-179.4-92.32C386.4,817,368.45,734.54,368.45,734.54l-.43-2.86a52.21,52.21,0,0,1,4.77-25.27c-5.22,9.38-6.66,18.78-9.05,26.21C358.23,749.72,329.05,948.17,331.47,957.43Z"/><path class="cls-12" d="M626.71,738.25c-14.45-72.22-74.85-67-74.85-67L498.29,704.7l-61.13-37.8c-75.84,11.27-69.07,65-69.14,64.78l.43,2.86S386.4,817,446.8,874.82c44.54,42.6,135,77.12,179.4,92.32q12.42-3.74,24.52-8.15L649,937.85Z"/><path class="cls-5" d="M414.16,672.32s-2.43,79.18,20.56,98.22c0,0,24.95,29.54,62.37,28.89,0,0,61.72-6.57,75.51-74.85,0,0,5.68-32.25,1.08-50.63,0,0-26.69-6.17-31.29-6.17-1.95,0-50.55,33.63-50.55,33.63s-38.6-27.29-54.68-34.51C429,667.05,414.16,672.32,414.16,672.32Z"/><path class="cls-13" d="M436.68,707.76s-3.28,51.21,49.25,67c0,0,50.26,5.23,64.71-63.06l-54.86-11.79Z"/><circle class="cls-14" cx="492.37" cy="722.75" r="9.52"/><circle class="cls-14" cx="492.37" cy="757.95" r="9.52"/><path class="cls-15" d="M433.78,670.79,491.33,702l1.3-.76-55.47-34.3a135.78,135.78,0,0,0-20,4.45C431.12,668.67,433.78,670.79,433.78,670.79Z"/><path class="cls-15" d="M556.07,671.22a364,364,0,0,1,37,11.57A71.84,71.84,0,0,0,556.07,671.22Z"/><polygon class="cls-2" points="437.16 665.9 492.63 697.29 543.62 663.33 570.76 715.67 492.1 700.57 406.62 713.7 437.16 665.9"/></g></g></svg>