<svg xmlns="http://www.w3.org/2000/svg" viewBox="0 0 980.76 1022.41"><defs><style>.cls-1{fill:#e5afa1;}.cls-2{fill:#8bbee6;stroke:#fff;stroke-miterlimit:10;stroke-width:24.42px;}.cls-3{fill:#fff;}.cls-4{fill:#5f3327;}.cls-5{fill:none;}.cls-6{fill:#bc9f26;}.cls-7{fill:#f4d5c1;}.cls-8{fill:#1e2c3f;}.cls-9{fill:#dc6965;}.cls-10{fill:#7a4a3d;}.cls-11{fill:#abc699;}.cls-12{fill:#6c8959;}.cls-13{fill:#ffda3e;}.cls-14{fill:#ffe67b;}</style></defs><title>旅游</title><g id="图层_2" data-name="图层 2"><g id="图层_1-2" data-name="图层 1"><path class="cls-1" d="M449.19,535.43a2.64,2.64,0,0,0-4.43-2.82c-12.64,15.6-38.08,34.47-48.89,38.28C376.79,577.62,426.6,581.68,449.19,535.43Z"/><path class="cls-1" d="M534.12,535.43a2.64,2.64,0,0,1,4.43-2.82c12.64,15.6,38.08,34.47,48.89,38.28C606.52,577.62,556.71,581.68,534.12,535.43Z"/><circle class="cls-2" cx="490.38" cy="532.03" r="477.85"/><path class="cls-3" d="M490.38,1022.41A490.51,490.51,0,0,1,299.5,80.19,490.5,490.5,0,0,1,681.26,983.87,487.43,487.43,0,0,1,490.38,1022.41Zm0-955.71A465.46,465.46,0,0,0,309.26,960.8,465.45,465.45,0,0,0,671.5,103.27,462.43,462.43,0,0,0,490.38,66.7Z"/><path class="cls-1" d="M449.19,514.68a2.65,2.65,0,0,0-4.43-2.83c-12.64,15.6-38.08,34.47-48.89,38.29C376.79,556.87,426.6,560.93,449.19,514.68Z"/><path class="cls-1" d="M534.12,514.68a2.65,2.65,0,0,1,4.43-2.83c12.64,15.6,38.08,34.47,48.89,38.29C606.52,556.87,556.71,560.93,534.12,514.68Z"/><path class="cls-4" d="M258.65,533.83s-9.4,221.75,5.81,243.51c9.06,13,5,34.16,3.15,39.39-.82,2.4,6.1-.22,7,.93,2.68,3.38,7.37,20.15,8.56,16.11,1.32-4.49,15.56-21.41,26.1-13.92,3.51,2.5,3.23-29.43,8.82-14.53.61,1.65-8.2-23.79-3.38-34.28,10.56-23,8.68-168.41,7.89-174.06a357.67,357.67,0,0,1-2.53-42.05c.07-15.15,1.33-66.62-1.42-61.32S264.26,451.93,258.65,533.83Z"/><path class="cls-4" d="M638.67,528s41.8,218,61.61,235.66c11.8,10.54,12.67,32.11,12.13,37.61-.26,2.53,5.88-1.61,7-.7,3.39,2.67,11.8,17.91,12,13.71.26-4.68,10.22-24.41,22.2-19.54,4,1.62-3.62-29.39,5.24-16.18,1,1.46-13.44-21.27-11.16-32.58,5-24.8-30.25-165.9-32.32-171.22a357.88,357.88,0,0,1-12.13-40.34c-3.41-14.76-14-65.14-15.47-59.36S625.31,447,638.67,528Z"/><path class="cls-5" d="M556.07,682.14a366.55,366.55,0,0,1,37,11.57A72,72,0,0,0,556.07,682.14Z"/><path class="cls-6" d="M0,396.68s801.31-26.86,956.4-95.5L812.92,210S146.13,196.85,0,396.68Z"/><polygon class="cls-1" points="438.8 635.33 436.69 676.74 432.57 721.01 512.05 792.24 565.05 712.14 547.79 623.51 438.8 635.33"/><path class="cls-1" d="M732.06,393.05s58.11-4.92,46.29,43.34c0,0-20.68,80.75-64,99.47,0,0-9.85,2.95-23.63,1S732.06,393.05,732.06,393.05Z"/><path class="cls-1" d="M238,375.32s-58.11-4.92-46.29,43.34c0,0,20.68,80.76,64,99.47,0,0,9.85,3,23.64,1S238,375.32,238,375.32Z"/><path class="cls-7" d="M233.75,345.12s20.68,239.32,137.88,289.55c0,0,58.11,28.56,115.23,24.62,0,0,86.67-3.94,141.82-39.39,0,0,90.34-54.41,120.09-252.46,0,0-43.88-103.67-115.17-109,0,0,4.82,26.37-106.47,29.32l-48.37-4.36H435.92L404.81,290s-69.69-59.42-71.66-23c0,0-34.4,7.22-14.7-1.64C318.45,265.35,260.34,309.67,233.75,345.12Z"/><ellipse class="cls-8" cx="393.59" cy="463.85" rx="38.98" ry="23.97"/><ellipse class="cls-9" cx="494.09" cy="578.7" rx="41.86" ry="23.14"/><path class="cls-8" d="M347.24,442.61l15.25,11.47c3.09,2.32,6.08-2.89,3-5.18l-15.25-11.47c-3.09-2.32-6.09,2.89-3,5.18Z"/><path class="cls-8" d="M426.34,432l-15,12.54c-3,2.49,1.3,6.71,4.24,4.25l15-12.55c3-2.48-1.3-6.7-4.24-4.24Z"/><path class="cls-8" d="M382.18,431.86l2.07,15c.53,3.81,6.31,2.19,5.79-1.59l-2.07-15c-.53-3.81-6.31-2.19-5.79,1.59Z"/><ellipse class="cls-8" cx="594.63" cy="463.85" rx="38.98" ry="23.97"/><path class="cls-8" d="M548.28,442.61l15.26,11.47c3.08,2.32,6.08-2.89,3-5.18l-15.25-11.47c-3.09-2.32-6.08,2.89-3,5.18Z"/><path class="cls-8" d="M627.38,432l-15,12.54c-3,2.49,1.3,6.71,4.24,4.25l15-12.55c3-2.48-1.3-6.7-4.25-4.24Z"/><path class="cls-8" d="M583.23,431.86l2.07,15c.52,3.81,6.3,2.19,5.78-1.59l-2.07-15c-.52-3.81-6.31-2.19-5.78,1.59Z"/><path class="cls-8" d="M332.84,411.84c27.31-17.69,65.14-17.22,94.11-4.69,3.5,1.52,6.56-3.65,3-5.18-22.14-9.57-46.23-12.4-69.84-7.11-10.37,2.32-21.32,6-30.33,11.8-3.23,2.09-.23,7.28,3,5.18Z"/><path class="cls-8" d="M541.13,411.84c27.31-17.69,65.15-17.22,94.11-4.69,3.51,1.52,6.57-3.65,3-5.18-22.14-9.57-46.22-12.4-69.83-7.11-10.38,2.32-21.33,6-30.33,11.8-3.23,2.09-.23,7.28,3,5.18Z"/><path class="cls-1" d="M739.6,405s-21.23,28.2-39.1,5.63c-6.69-8.44-3.2-77.43-13.3-74.13-21,6.86-22.19-39.5-24.63-48.74-16.31-61.84-32.9,60.37-72.59,55.58l-64.15-8.72c-13.13-1.59-32.65-37.05-58-33.82-20.08,2.57-23.65,56.6-65.89,56.7-27.76.07-79.78,47.37-97.17,69.59-18.08,23.1-65-66.61-83.7,30.63,0,0-68.79-96.13-5.13-204.46l-23-8.86s14.38-76.82,73.82-129c0,0-20.13-49.24,122.72-63l124.15-8.68c64.9-4.54,129,16.93,178.82,59.89h0S772.32,160.29,780,262.72L760.66,375.18S746.31,376.46,739.6,405Z"/><path class="cls-10" d="M735.34,392s-21.66,28.19-39.9,5.62c-6.81-8.44-3.26-77.42-13.56-74.12-21.41,6.86-22.64-39.51-25.13-48.75-16.64-61.83-33.57,60.38-74.06,55.58l-65.45-8.72c-13.4-1.58-33.32-37.05-59.16-33.81-20.49,2.56-24.14,56.6-67.23,56.7-28.32.06-81.4,47.37-99.14,69.59-18.44,23.1-66.28-66.61-85.4,30.63,0,0-97.76-81.22-32.8-189.55l4.09-23.77s14.67-76.82,75.32-129c0,0-20.54-49.24,125.21-63l126.66-8.69a255.54,255.54,0,0,1,182.45,59.9h0s81.49,56.71,89.31,159.13l2,147.93S742.19,363.43,735.34,392Z"/><path class="cls-10" d="M626.2,54.18s-19,190.66,24.52,213.17c0,0-.73,69.87,33.9,65.81s-5.45,100.75,53.82,68.5c0,0,22.62-22.06,45.69,6.17S799.48,32.38,626.2,54.18Z"/><path class="cls-7" d="M619.94,980c8.22-2.48,38.86-12.35,87.94-36.51L657.72,752.27a82,82,0,0,0-29.16-44.4c-9.3-7.17-26.72-14.57-43.81-23.25,0,0-22-7.88-26.59-7.88-.89,0-8.54,27.51-66.9,29.33-38.26,1.19-53.59-25.81-54.58-29.33-6.51.12-41.47,10.86-59.09,17.14,0,0-38.41,13.73-56.85,59.3L309.26,960.8C436.86,1016,551.19,997.85,619.94,980Z"/><path class="cls-11" d="M391.61,689.13,438,758.46c3.76,6.15,39.36,30.67,76.28,25.06,25.88-3.93,41.08-10.36,58.88-36.33a76.38,76.38,0,0,0,11.78-27.82l6.49-31.44s36.88,14.89,47.46,29.41l8.5,151.1L655.42,967S523.68,1027.26,364,980L404.17,859.8,351.8,709.9S368.75,693.71,391.61,689.13Z"/><path class="cls-12" d="M351.8,709.9l8.93,182L364,980c167.66,46.51,291.41-13,291.41-13S659,955,652.25,928.34C516,945,351.8,709.9,351.8,709.9Z"/><path class="cls-13" d="M0,396.68s618-270.63,956.4-95.5C956.4,301.18,458.77-188.58,0,396.68Z"/><path class="cls-13" d="M150.38,209.16S221.24-91.28,642.06,28c95,26.93,170.39,163,162.13,182L240.36,272.09c-76,2.83-87-9.36-88.54-30.34-.7-9.31.45-20.36-1.44-32.59Z"/><path class="cls-14" d="M819.41,203s-254.36-47.25-701.5,66.41l33.91-27.66s241.77-98,641.73-62.75Z"/><polygon class="cls-3" points="173.89 175.03 228.69 196.38 280.35 172.47 307.5 224.8 228.84 209.7 143.35 222.83 173.89 175.03"/><polygon class="cls-3" points="228.84 203.5 174.83 302.3 212.93 283.5 228.84 203.5"/><polygon class="cls-3" points="227.9 203.5 269.32 302.3 240.09 283.5 227.9 203.5"/><polygon class="cls-13" points="452.7 948.52 435.97 951.07 428.59 966.3 420.99 951.18 404.22 948.87 416.25 936.96 413.27 920.3 428.31 928.07 443.24 920.09 440.5 936.79 452.7 948.52"/><polygon class="cls-13" points="518.33 842.59 501.6 845.15 494.21 860.38 486.61 845.25 469.85 842.94 481.88 831.04 478.9 814.38 493.94 822.14 508.86 814.16 506.12 830.86 518.33 842.59"/><polygon class="cls-13" points="552.09 956.46 535.36 959.01 527.98 974.24 520.38 959.12 503.61 956.8 515.65 944.9 512.66 928.24 527.7 936.01 542.63 928.02 539.89 944.73 552.09 956.46"/><polygon class="cls-13" points="577.5 897.3 566.82 898.93 562.11 908.65 557.26 899 546.56 897.52 554.24 889.92 552.34 879.29 561.93 884.25 571.46 879.15 569.71 889.81 577.5 897.3"/><polygon class="cls-13" points="605.14 794.09 594.19 795.76 589.36 805.73 584.38 795.83 573.41 794.32 581.28 786.52 579.33 775.62 589.18 780.71 598.95 775.48 597.15 786.41 605.14 794.09"/><polygon class="cls-13" points="435.49 815.35 424.81 816.98 420.1 826.7 415.25 817.05 404.54 815.57 412.23 807.97 410.32 797.34 419.92 802.3 429.45 797.2 427.7 807.86 435.49 815.35"/></g></g></svg>