<svg xmlns="http://www.w3.org/2000/svg" viewBox="0 0 980.76 1009.25"><defs><style>.cls-1{fill:#8bbee6;stroke:#fff;stroke-miterlimit:10;stroke-width:24.42px;}.cls-2{fill:#fff;}.cls-3{fill:#f3f8ff;}.cls-4{fill:none;}.cls-5{fill:#cddef9;}.cls-6{fill:#dae4ef;}.cls-7{fill:#1c1c84;}.cls-8{fill:#1e2c3f;}.cls-9{fill:#e5afa1;}.cls-10{fill:#f4d5c1;}.cls-11{fill:#dc6965;}.cls-12{fill:#0b2835;}.cls-13{fill:#0f3651;}.cls-14{fill:#28395e;}</style></defs><title>医生</title><g id="图层_2" data-name="图层 2"><g id="图层_1-2" data-name="图层 1"><circle class="cls-1" cx="490.38" cy="518.87" r="477.85"/><path class="cls-2" d="M490.38,1009.25A490.51,490.51,0,0,1,299.5,67,490.5,490.5,0,0,1,681.26,970.71,487.43,487.43,0,0,1,490.38,1009.25Zm0-955.71a465.46,465.46,0,0,0-181.12,894.1A465.45,465.45,0,0,0,671.5,90.11,462.43,462.43,0,0,0,490.38,53.54Z"/><path class="cls-2" d="M703.07,932.88,648,721s-3.06-19.18-54.95-38.78c14,9.27,27.69,25.85,33.62,55.46L649,937.25l1.59,19.86a59.22,59.22,0,0,0,6.17-2.27C671.5,947.64,690.62,941.17,703.07,932.88Z"/><path class="cls-2" d="M331.47,955.2c-2.42-9.27,26.76-207.71,32.27-224.81,2.39-7.44,3.83-16.84,9.05-26.21,5.75-12.65,18.1-27,44.36-35.06-8.43,1.61-21,5-39.56,11.6,0,0-52.79,17.38-56.85,59.3L261.21,922.8A462.52,462.52,0,0,0,331.83,956,2.6,2.6,0,0,1,331.47,955.2Z"/><path class="cls-3" d="M626.71,736c-14.45-72.22-84.49-74.91-84.49-74.91l-50.89,38.62-54.17-35.05c-75.84,11.26-69.07,65-69.14,64.78l.43,2.85s17.95,82.5,78.35,140.28c44.54,42.6,135,77.13,179.4,92.33q12.42-3.75,24.52-8.16L649,935.61Z"/><path class="cls-4" d="M433.78,668.55l57.55,31.17,1.3-.76-55.47-34.29a134.51,134.51,0,0,0-20,4.45C431.12,666.44,433.78,668.55,433.78,668.55Z"/><polygon class="cls-2" points="436.7 664.78 454.89 742.96 490.38 875.4 542.22 661.1 580.43 692.47 541.23 738.24 544.23 788.73 490.38 875.4 440.49 788.73 442.94 736.42 398.13 700.46 436.7 664.78"/><polygon class="cls-5" points="444.26 699.72 494.07 698.29 531.8 704.18 490.38 875.4 444.26 699.72"/><path class="cls-6" d="M331.47,955.2a2.6,2.6,0,0,0,.36.76,465.19,465.19,0,0,0,294.37,8.95c-44.43-15.2-134.86-49.73-179.4-92.33C386.4,814.8,368.45,732.3,368.45,732.3l-.43-2.85a52.21,52.21,0,0,1,4.77-25.27c-5.22,9.37-6.66,18.77-9.05,26.21C358.23,747.49,329.05,945.93,331.47,955.2Z"/><circle class="cls-2" cx="490.38" cy="884.92" r="9.52"/><circle class="cls-2" cx="490.38" cy="928.74" r="9.52"/><polygon class="cls-7" points="465.28 704.18 476.18 739.15 470.73 800.55 490.38 875.4 509.31 799.09 499.9 739.69 509.31 708.43 492.63 693.83 465.28 704.18"/><polygon class="cls-2" points="436.7 664.78 492.63 693.83 542.22 661.1 528.57 717.51 492.12 700.33 446.71 711 436.7 664.78"/><rect class="cls-2" x="371.5" y="886.37" width="65.68" height="65.68"/><rect class="cls-2" x="548.07" y="886.37" width="65.68" height="65.68"/><path class="cls-8" d="M404.5,858.75c-3.52-20.81-7.28-41.61-9.48-62.61-2.14-20.54-3.88-42.07-1.77-62.67,3.42-33.42,21.91-65.64,51.05-83a90.22,90.22,0,0,1,92.25,0c29.13,17.36,47.62,49.58,51.05,83,4.34,42.36-5.7,85-17.55,125.28-2.18,7.42,9.39,10.59,11.57,3.19,11.51-39.14,20-78.74,18.57-119.78-1.29-37.07-18.22-73.08-48-95.61a102.44,102.44,0,0,0-101.38-12.76c-33.33,14.17-57.26,45.23-66.09,80-6,23.68-4.54,48.86-2.54,73,2.1,25.26,6.56,50.24,10.79,75.21,1.29,7.59,12.86,4.37,11.57-3.19Z"/><path class="cls-8" d="M373.45,894.67c0-13.59,9.87-27.67,24.43-27.67s24.42,14.08,24.42,27.67c0,7.73,12,7.74,12,0C434.3,874.55,419,855,397.88,855s-36.43,19.55-36.43,39.67c0,7.73,12,7.74,12,0Z"/><ellipse class="cls-8" cx="568.79" cy="877.84" rx="24.42" ry="27.04"/><polygon class="cls-9" points="435.24 629.72 437.16 664.67 492.63 693.83 542.22 661.1 544.23 617.9 435.24 629.72"/><path class="cls-9" d="M728.5,387.44s58.11-4.92,46.29,43.34c0,0-20.68,80.76-64,99.47,0,0-9.85,3-23.63,1S728.5,387.44,728.5,387.44Z"/><path class="cls-9" d="M234.45,369.72s-58.1-4.93-46.28,43.33c0,0,20.68,80.76,64,99.47,0,0,9.85,3,23.64,1S234.45,369.72,234.45,369.72Z"/><path class="cls-10" d="M230.19,339.51s20.68,239.33,137.88,289.55c0,0,58.11,28.57,115.23,24.63,0,0,86.67-3.94,141.82-39.4,0,0,90.34-54.4,120.09-252.45,0,0-9.21-119.21-80.5-124.52,0,0-41.38,57.88-152.67,60.83l-43.52,15.76-21.33-15.76-45.94-13.78s-69.69-59.43-71.66-23c0,0-34.4,7.22-14.7-1.64C314.89,259.74,256.78,304.06,230.19,339.51Z"/><ellipse class="cls-8" cx="371.02" cy="446.99" rx="25.85" ry="23.6"/><ellipse class="cls-11" cx="490.53" cy="573.09" rx="41.86" ry="23.14"/><ellipse class="cls-8" cx="608.91" cy="446.99" rx="25.85" ry="23.6"/><path class="cls-12" d="M273.09,323.85,239,411s-30.13-184-18.45-212.07,46.35-89.1,46.35-89.1,118.89-9.33,70.9,131.88l-42.35,39.63C287,290.34,277.09,312.8,273.09,323.85Z"/><path class="cls-13" d="M314,264s134.36,96.84,308.12,38.86a57.58,57.58,0,0,0,13.55-6.64c21-13.9,96.84-54.07,96.84,92.08l1.61,41.14S794.89,297,776.37,210.62c0,0-.73-151.76-91.59-157.8a63.58,63.58,0,0,1-32.66-11.54C643,34.78,629.91,28,614.58,27.46c-26.82-1-58.25-36.72-96.2-25.16a96.85,96.85,0,0,1-35.24,4.05c-27.09-2-74.19-1.43-104.47,21.11-32.82,24.43-60.42,14.9-87.28,34-18.28,13-28.8,34.28-28.8,56.7v0s81.78-19.31,60,110C322.56,228.1,305.12,258.72,314,264Z"/><path class="cls-14" d="M420.69,570h27s37.77-34.56,81.73-1.49h26.82S492.63,480.71,420.69,570Z"/></g></g></svg>