<svg xmlns="http://www.w3.org/2000/svg" viewBox="0 0 980.76 992.35"><defs><style>.cls-1{fill:#8bbee6;stroke:#fff;stroke-miterlimit:10;stroke-width:24.42px;}.cls-2{fill:#fff;}.cls-3{fill:#eaf0f9;}.cls-4{fill:#e5afa1;}.cls-5{fill:#f4d5c1;}.cls-6{fill:#1e2c3f;}.cls-7{fill:#dc6965;}.cls-8{fill:#0f3651;}.cls-9{fill:#020f19;}.cls-10{fill:none;}.cls-11{fill:#0b2835;}.cls-12{fill:#cafcfb;}.cls-13{fill:#f7f8f9;}</style></defs><title>都市银发</title><g id="图层_2" data-name="图层 2"><g id="图层_1-2" data-name="图层 1"><circle class="cls-1" cx="490.38" cy="501.97" r="477.85"/><path class="cls-2" d="M490.38,992.35A490.5,490.5,0,0,1,299.5,50.14,490.5,490.5,0,0,1,681.26,953.81,487.25,487.25,0,0,1,490.38,992.35Zm0-955.7A465.45,465.45,0,0,0,309.26,930.74,465.45,465.45,0,0,0,671.5,73.21,462.42,462.42,0,0,0,490.38,36.65Z"/><path class="cls-3" d="M178,248.59s-91,270,55,309.34c87,23.46,83.28,39.91,66,49.37a9.87,9.87,0,0,0,2.49,18.25c25.76,6.11,59.44,12,70.88,4.74,17-10.84,44.06,3,50.63,6.7a9.65,9.65,0,0,0,3.34,1.13c16.59,2.46,138.81,19.57,154.54-7.83,16.89-29.42,20.7-9,57.63-11.18s74-43.83,74-62.24,4.54-31.26,24.07-41.18,56.58-137.48,45.68-152.16-15.2-49.34-14.51-76.76,12.84-120.55-13.57-111S231.88,100.38,178,248.59Z"/><polygon class="cls-4" points="438.8 605.27 436.69 646.68 502.05 690.95 543.9 677.17 547.79 593.45 438.8 605.27"/><path class="cls-4" d="M732.06,363s58.11-4.92,46.29,43.34c0,0-20.68,80.76-64,99.47,0,0-9.85,2.95-23.63,1S732.06,363,732.06,363Z"/><path class="cls-4" d="M238,345.27s-58.11-4.93-46.29,43.33c0,0,20.68,80.76,64,99.47,0,0,9.85,3,23.64,1S238,345.27,238,345.27Z"/><path class="cls-5" d="M233.75,315.06s20.68,239.33,137.88,289.55c0,0,58.11,28.57,115.23,24.63,0,0,86.67-3.94,141.82-39.4,0,0,90.34-54.4,120.09-252.45,0,0-43.88-103.68-115.17-109,0,0,4.82,26.36-106.47,29.32l-48.37-4.37H435.92l-31.11,6.56s-69.69-59.43-71.66-23c0,0-34.4,7.22-14.7-1.64C318.45,235.29,260.34,279.61,233.75,315.06Z"/><ellipse class="cls-6" cx="384.58" cy="428.21" rx="25.85" ry="17.93"/><ellipse class="cls-7" cx="494.09" cy="548.64" rx="41.86" ry="23.14"/><ellipse class="cls-6" cx="593.09" cy="428.21" rx="25.85" ry="17.93"/><path class="cls-4" d="M449.94,497.16a2.65,2.65,0,0,0-4.44-2.83c-12.64,15.6-38.08,34.47-48.89,38.29C377.54,539.35,427.34,543.41,449.94,497.16Z"/><path class="cls-4" d="M534.86,497.16a2.65,2.65,0,0,1,4.43-2.83c12.64,15.6,38.08,34.47,48.89,38.29C607.26,539.35,557.45,543.41,534.86,497.16Z"/><path class="cls-4" d="M739.6,375s-21.23,28.19-39.1,5.62c-6.69-8.44-3.2-77.43-13.3-74.13-21,6.87-22.19-39.5-24.63-48.74-16.31-61.84-32.9,60.37-72.59,55.58l-64.15-8.72c-13.13-1.59-32.65-37.05-58-33.81-20.08,2.56-23.65,56.6-65.89,56.7-27.76.06-79.78,47.36-97.17,69.59-18.08,23.09-65-66.61-83.7,30.62,0,0-68.79-96.13-5.13-204.45l-23-8.87s14.38-76.82,73.82-129c0,0-20.13-49.25,122.72-63l124.15-8.68c64.9-4.54,129,16.93,178.82,59.9h0S772.32,130.24,780,232.66L760.66,345.12S746.31,346.41,739.6,375Z"/><path class="cls-8" d="M264.08,378.78l62.32,5.84,99.29,9.29L448.42,396l-5.79-4.4c8.93,26.13,8.16,62.19-20,76.81-13.52,7-29.68,8-44.61,7.35-18.07-.77-36.58-4.07-53.05-11.8a92.75,92.75,0,0,1-48.26-52.59,116.52,116.52,0,0,1-4.34-15.31,91.82,91.82,0,0,1-1.81-11.58,79.26,79.26,0,0,1-.45-11.73c.41-7.71-11.59-7.69-12,0-.66,12.36,1.82,25.44,5.47,37.15,7.86,25.24,24.27,46.93,47.27,60.22,16.33,9.44,34.73,14.32,53.35,16.53,18.07,2.14,37.58,2.28,55-3.81,23.25-8.15,37.14-27.21,39.79-51.38a102.31,102.31,0,0,0-4.72-43.05,6.29,6.29,0,0,0-5.78-4.41L386.1,378.2l-99.29-9.29-22.73-2.13C256.4,366.06,256.45,378.07,264.08,378.78Z"/><path class="cls-8" d="M713.54,366.78l-62.32,5.84-99.29,9.29L529.2,384a6.31,6.31,0,0,0-5.79,4.41C512.68,419.87,516.53,462,549,478.8c14.84,7.68,32.09,9.55,48.58,9.06,20.09-.59,40.23-4.24,58.68-12.36,25.69-11.3,45.11-32.16,55.27-58.21,5.36-13.74,8.84-29.65,8-44.51-.41-7.68-12.42-7.73-12,0,.62,11.62-1.16,20.76-4.45,32-6.5,22.24-20.46,41.78-40.57,53.95-14.64,8.86-31.46,13.74-48.36,15.85s-34.83,2.5-51.15-2.84c-9.91-3.25-19-9.38-24.55-17.85-4.88-7.5-7.34-16.61-8-24.94A88.15,88.15,0,0,1,535,391.63L529.2,396l62.32-5.83,99.28-9.29,22.74-2.13C721.16,378.07,721.23,366.06,713.54,366.78Z"/><path class="cls-8" d="M459,420.61c-1.66,1.31.43-.3.88-.59,1.2-.8,2.4-1.59,3.65-2.32a61,61,0,0,1,13.88-6c15.53-4.5,31-1.15,43.63,8.92,4.49,3.57,10.9-2.75,6.37-6.36-14.48-11.54-31.92-16.35-50.08-11.86a65.63,65.63,0,0,0-24.7,11.86c-4.53,3.59,1.87,9.92,6.37,6.36Z"/><path class="cls-8" d="M702,912.65,648,704.08s-11.4-25.52-63.29-45.12c14,9.27,36,32.19,42,61.8L649,920.36l1.59,19.85q3.07-1.11,6.17-2.26C672.1,932.22,689.56,920.94,702,912.65Z"/><path class="cls-8" d="M331.47,938.3c-2.42-9.26,26.76-207.71,32.27-224.81,2.39-7.43,3.83-16.83,9.05-26.21,5.75-12.65,18.1-27,44.36-35.06-8.43,1.62-21,5-39.56,11.61,0,0-38.41,13.72-56.85,59.29L261.21,905.9a462.52,462.52,0,0,0,70.62,33.16A2.49,2.49,0,0,1,331.47,938.3Z"/><path class="cls-9" d="M331.47,938.3a2.49,2.49,0,0,0,.36.76,465,465,0,0,0,294.37,9c-44.43-15.2-134.86-49.72-179.4-92.33-60.4-57.77-78.35-140.27-78.35-140.27l-.43-2.86a52.21,52.21,0,0,1,4.77-25.27c-5.22,9.38-6.66,18.78-9.05,26.21C358.23,730.59,329.05,929,331.47,938.3Z"/><path class="cls-10" d="M556.07,652.08a366.34,366.34,0,0,1,37,11.58A72,72,0,0,0,556.07,652.08Z"/><path class="cls-11" d="M649,918.72l-22.32-199.6c-8.73-43.62-34.21-59-53-64.3h0s-23.78-7.9-28.38-7.9c-1.83,0-47.46,31.24-52.93,35l-7.83-4.85c-12.09-8.54-36.1-25.1-47.86-30.38-8.19.15-22.52,6.5-22.52,6.5h0C362.8,670.67,368.09,712.7,368,712.55l.43,2.86s17.95,82.5,78.35,140.27c44.54,42.61,135,77.13,179.4,92.33q12.42-3.75,24.52-8.15Z"/><path class="cls-4" d="M492.35,702.58s-30.09,56.06,1.86,57.88S492.35,702.58,492.35,702.58Z"/><path class="cls-8" d="M436.68,637.16s56.32,2.2,55.16,45.12c0,0-32.73,11.54-55.16,0Z"/><path class="cls-8" d="M546,637.16s-55.38,2.2-54.24,45.12c0,0,32.19,11.54,54.24,0Z"/><path class="cls-8" d="M486.31,683.92s-80.8,27.2-120.22,21.18l-1.5,5.35s58.25,5.24,134.81-26.53C499.4,683.92,492,679.93,486.31,683.92Z"/><path class="cls-12" d="M491.43,682.1s-43.27-20.44-27.35-5.55S491.43,682.1,491.43,682.1Z"/><path class="cls-12" d="M491.43,682.1s44.09-20.44,27.88-5.55S491.43,682.1,491.43,682.1Z"/><circle class="cls-2" cx="445.55" cy="703.76" r="5.12"/><circle class="cls-2" cx="437.55" cy="694.34" r="5.12"/><circle class="cls-2" cx="432.43" cy="683.95" r="5.12"/><circle class="cls-2" cx="429.18" cy="672.56" r="5.12"/><circle class="cls-2" cx="455.79" cy="708.88" r="5.12"/><circle class="cls-2" cx="467.09" cy="711.6" r="5.12"/><circle class="cls-2" cx="479.11" cy="714.87" r="5.12"/><circle class="cls-2" cx="490.43" cy="717.26" r="5.12"/><circle class="cls-2" cx="502.41" cy="718.07" r="5.12"/><circle class="cls-2" cx="514.9" cy="714.81" r="5.12"/><circle class="cls-2" cx="527.68" cy="711.6" r="5.12"/><circle class="cls-2" cx="538.58" cy="706.48" r="5.12"/><circle class="cls-2" cx="547.19" cy="696.24" r="5.12"/><circle class="cls-2" cx="552.31" cy="683.95" r="5.12"/><circle class="cls-2" cx="554.27" cy="672.6" r="5.12"/><path class="cls-13" d="M735.34,361.93s-21.66,28.2-39.9,5.63c-6.81-8.45-3.26-77.43-13.56-74.13-21.41,6.86-22.64-39.51-25.13-48.74-16.64-61.84-33.57,60.37-74.06,55.57l-65.45-8.71c-13.4-1.59-33.32-37.06-59.16-33.82-20.49,2.57-24.14,56.6-67.23,56.7-28.32.07-81.4,47.37-99.14,69.59-18.44,23.1-66.28-66.61-85.4,30.63,0,0-97.76-81.22-32.8-189.54l4.09-23.78s14.67-76.82,75.32-129c0,0-20.54-49.24,125.21-63L504.79.6A255.54,255.54,0,0,1,687.24,60.49h0s81.49,56.71,89.31,159.14l2,147.93S742.19,333.37,735.34,361.93Z"/><path class="cls-13" d="M626.2,24.12s-19,190.67,24.52,213.18c0,0-.73,69.86,33.9,65.8s-5.45,100.75,53.82,68.5c0,0,22.62-22.06,45.69,6.17S799.48,2.33,626.2,24.12Z"/></g></g></svg>